<svg version="1.1" xmlns="http://www.w3.org/2000/svg" xmlns:xlink="http://www.w3.org/1999/xlink" width="1310.90087890625" height="636"><defs/><g><g transform="translate(10,2) scale(1,1)"><rect fill="#C0C0C0" stroke="none" x="335" y="87" width="704" height="544" opacity="0.2"/></g><g transform="translate(10,2) scale(1,1)"><rect fill="#ffffff" stroke="none" x="328" y="80" width="704" height="544"/></g><g transform="translate(10,2) scale(1,1)"><path fill="none" stroke="#000000" d="M 328 80 L 1032 80 L 1032 624 L 328 624 L 328 80 Z Z" stroke-miterlimit="10"/></g><g transform="translate(10,2) scale(1,1)"><g><path fill="none" stroke="none"/><text fill="#000000" stroke="none" font-family="Arial" font-size="13px" font-style="normal" font-weight="bold" text-decoration="none" x="634.839599609375" y="99.5">Gérer le réseau</text></g></g><g transform="translate(10,2) scale(1,1)"><path fill="#ffffff" stroke="none" d="M 61.55070774147727 113.68 C 61.55070774147727 108.886167936 65.43655006642273 105 70.22998046875 105 C 75.02341087107727 105 78.90925319602273 108.886167936 78.90925319602273 113.68 C 78.90925319602273 118.473832064 75.02341087107727 122.36 70.22998046875 122.36 C 65.43655006642273 122.36 61.55070774147727 118.473832064 61.55070774147727 113.68 Z"/></g><g transform="translate(10,2) scale(1,1)"><path fill="none" stroke="#000000" d="M 61.55070774147727 113.68 C 61.55070774147727 108.886167936 65.43655006642273 105 70.22998046875 105 C 75.02341087107727 105 78.90925319602273 108.886167936 78.90925319602273 113.68 C 78.90925319602273 118.473832064 75.02341087107727 122.36 70.22998046875 122.36 C 65.43655006642273 122.36 61.55070774147727 118.473832064 61.55070774147727 113.68 Z" stroke-miterlimit="10"/></g><g transform="translate(10,2) scale(1,1)"><path fill="none" stroke="#000000" d="M 70.22998046875 122.36 L 70.22998046875 139.64" stroke-miterlimit="10"/></g><g transform="translate(10,2) scale(1,1)"><path fill="none" stroke="#000000" d="M 61.04016228693182 128.84 L 79.41979865056818 128.84" stroke-miterlimit="10"/></g><g transform="translate(10,2) scale(1,1)"><path fill="none" stroke="#000000" d="M 70.22998046875 139.64 L 57.466344105113635 157" stroke-miterlimit="10"/></g><g transform="translate(10,2) scale(1,1)"><path fill="none" stroke="#000000" d="M 70.22998046875 139.64 L 82.99361683238637 157" stroke-miterlimit="10"/></g><g transform="translate(10,2) scale(1,1)"><g><path fill="none" stroke="none"/><text fill="#000000" stroke="none" font-family="Arial" font-size="13px" font-style="normal" font-weight="bold" text-decoration="none" x="10.609619140625" y="177.5">utilisateur authentifié</text></g></g><g transform="translate(10,2) scale(1,1)"><rect fill="#C0C0C0" stroke="none" x="455" y="15" width="51.00429687500002" height="15" opacity="0.2"/></g><g transform="translate(10,2) scale(1,1)"><rect fill="#C0C0C0" stroke="none" x="455" y="29" width="127.5107421875" height="25" opacity="0.2"/></g><g transform="translate(10,2) scale(1,1)"><rect fill="#ffffff" stroke="none" x="448" y="23" width="127.5107421875" height="24"/></g><g transform="translate(10,2) scale(1,1)"><path fill="none" stroke="#000000" d="M 448 23 L 575.5107421875 23 L 575.5107421875 47 L 448 47 L 448 23 Z Z" stroke-miterlimit="10"/></g><g transform="translate(10,2) scale(1,1)"><rect fill="#ffffff" stroke="none" x="448" y="8" width="51.00429687500002" height="15"/></g><g transform="translate(10,2) scale(1,1)"><path fill="none" stroke="#000000" d="M 448 8 L 499.004296875 8 L 499.004296875 23 L 448 23 L 448 8 Z Z" stroke-miterlimit="10"/></g><g transform="translate(10,2) scale(1,1)"><rect fill="#ffffff" stroke="none" x="448" y="22" width="127.5107421875" height="25"/></g><g transform="translate(10,2) scale(1,1)"><path fill="none" stroke="#000000" d="M 448 22 L 575.5107421875 22 L 575.5107421875 47 L 448 47 L 448 22 Z Z" stroke-miterlimit="10"/></g><g transform="translate(10,2) scale(1,1)"><g><path fill="none" stroke="none"/><text fill="#000000" stroke="none" font-family="Arial" font-size="13px" font-style="normal" font-weight="bold" text-decoration="none" x="456.10546875" y="42.5">decouverte_reseau</text></g></g><g transform="translate(10,2) scale(1,1)"><path fill="#C0C0C0" stroke="none" d="M 559 156 C 559 139.9837408 612.9496816 127 679.5 127 C 746.0503184 127 800 139.9837408 800 156 C 800 172.0162592 746.0503184 185 679.5 185 C 612.9496816 185 559 172.0162592 559 156 Z" opacity="0.2"/></g><g transform="translate(10,2) scale(1,1)"><path fill="#ffffff" stroke="none" d="M 552 149 C 552 132.9837408 605.9496816 120 672.5 120 C 739.0503184 120 793 132.9837408 793 149 C 793 165.0162592 739.0503184 178 672.5 178 C 605.9496816 178 552 165.0162592 552 149 Z"/></g><g transform="translate(10,2) scale(1,1)"><path fill="none" stroke="#000000" d="M 552 149 C 552 132.9837408 605.9496816 120 672.5 120 C 739.0503184 120 793 132.9837408 793 149 C 793 165.0162592 739.0503184 178 672.5 178 C 605.9496816 178 552 165.0162592 552 149 Z" stroke-miterlimit="10"/></g><g transform="translate(10,2) scale(1,1)"><g><path fill="none" stroke="none"/><text fill="#000000" stroke="none" font-family="Arial" font-size="13px" font-style="normal" font-weight="bold" text-decoration="none" x="597.346923828125" y="156">afficher la carte du réseau</text></g></g><g transform="translate(10,2) scale(1,1)"><path fill="none" stroke="#000000" d="M 141 144 L 551 148" stroke-miterlimit="10"/></g><g transform="translate(10,2) scale(1,1)"><path fill="none" stroke="#000000" d="M 632 119 L 539 48" stroke-miterlimit="10" stroke-dasharray="3"/></g><g transform="translate(10,2) scale(1,1)"><path fill="none" stroke="#000000" d="M 549.6321289471578 50.82096331968533 L 539 48 L 544.523328184157 57.512772769813054" stroke-miterlimit="10"/></g><g transform="translate(10,2) scale(1,1)"><g><path fill="none" stroke="none"/><text fill="#000000" stroke="none" font-family="Arial" font-size="13px" font-style="normal" font-weight="normal" text-decoration="none" x="546.5" y="100.5">+depends</text></g></g><g transform="translate(10,2) scale(1,1)"><path fill="#C0C0C0" stroke="none" d="M 711 287 C 711 269.3268864 769.4268336 255 841.5 255 C 913.5731664 255 972 269.3268864 972 287 C 972 304.6731136 913.5731664 319 841.5 319 C 769.4268336 319 711 304.6731136 711 287 Z" opacity="0.2"/></g><g transform="translate(10,2) scale(1,1)"><path fill="#ffffff" stroke="none" d="M 704 280 C 704 262.3268864 762.4268336 248 834.5 248 C 906.5731664 248 965 262.3268864 965 280 C 965 297.6731136 906.5731664 312 834.5 312 C 762.4268336 312 704 297.6731136 704 280 Z"/></g><g transform="translate(10,2) scale(1,1)"><path fill="none" stroke="#000000" d="M 704 280 C 704 262.3268864 762.4268336 248 834.5 248 C 906.5731664 248 965 262.3268864 965 280 C 965 297.6731136 906.5731664 312 834.5 312 C 762.4268336 312 704 297.6731136 704 280 Z" stroke-miterlimit="10"/></g><g transform="translate(10,2) scale(1,1)"><g><path fill="none" stroke="none"/><text fill="#000000" stroke="none" font-family="Arial" font-size="13px" font-style="normal" font-weight="bold" text-decoration="none" x="753.767333984375" y="287">afficher infos d'une machine</text></g></g><g transform="translate(10,2) scale(1,1)"><path fill="#ffffff" stroke="none" d="M 176 104 L 285 104 L 295 114 L 295 173 L 176 173 L 176 104"/></g><g transform="translate(10,2) scale(1,1)"><path fill="none" stroke="#000000" d="M 176 104 L 285 104 L 295 114 L 295 173 L 176 173 L 176 104 L 176 104" stroke-miterlimit="10"/></g><g transform="translate(10,2) scale(1,1)"><path fill="none" stroke="#000000" d="M 285 104 L 285 114 L 295 114 L 285 104" stroke-miterlimit="10"/></g><g transform="translate(10,2) scale(1,1)"><g><path fill="none" stroke="none"/><text fill="#000000" stroke="none" font-family="Arial" font-size="13px" font-style="normal" font-weight="normal" text-decoration="none" x="181" y="122">Condition : si</text><text fill="#000000" stroke="none" font-family="Arial" font-size="13px" font-style="normal" font-weight="normal" text-decoration="none" x="181" y="135">présence d'un</text><text fill="#000000" stroke="none" font-family="Arial" font-size="13px" font-style="normal" font-weight="normal" text-decoration="none" x="181" y="148">parc informatique</text></g></g><g transform="translate(10,2) scale(1,1)"><g><path fill="none" stroke="none"/></g></g><g transform="translate(10,2) scale(1,1)"><g><path fill="none" stroke="none"/><text fill="#000000" stroke="none" font-family="Arial" font-size="13px" font-style="normal" font-weight="normal" text-decoration="none" x="181" y="165">: sinon</text></g></g><g transform="translate(10,2) scale(1,1)"><path fill="#ffffff" stroke="none" d="M 1256.7711667258523 257.68 C 1256.7711667258523 252.886167936 1260.6570090507978 249 1265.450439453125 249 C 1270.2438698554522 249 1274.1297121803977 252.886167936 1274.1297121803977 257.68 C 1274.1297121803977 262.473832064 1270.2438698554522 266.36 1265.450439453125 266.36 C 1260.6570090507978 266.36 1256.7711667258523 262.473832064 1256.7711667258523 257.68 Z"/></g><g transform="translate(10,2) scale(1,1)"><path fill="none" stroke="#000000" d="M 1256.7711667258523 257.68 C 1256.7711667258523 252.886167936 1260.6570090507978 249 1265.450439453125 249 C 1270.2438698554522 249 1274.1297121803977 252.886167936 1274.1297121803977 257.68 C 1274.1297121803977 262.473832064 1270.2438698554522 266.36 1265.450439453125 266.36 C 1260.6570090507978 266.36 1256.7711667258523 262.473832064 1256.7711667258523 257.68 Z" stroke-miterlimit="10"/></g><g transform="translate(10,2) scale(1,1)"><path fill="none" stroke="#000000" d="M 1265.450439453125 266.36 L 1265.450439453125 283.64" stroke-miterlimit="10"/></g><g transform="translate(10,2) scale(1,1)"><path fill="none" stroke="#000000" d="M 1256.2606212713067 272.84 L 1274.6402576349433 272.84" stroke-miterlimit="10"/></g><g transform="translate(10,2) scale(1,1)"><path fill="none" stroke="#000000" d="M 1265.450439453125 283.64 L 1252.6868030894886 301" stroke-miterlimit="10"/></g><g transform="translate(10,2) scale(1,1)"><path fill="none" stroke="#000000" d="M 1265.450439453125 283.64 L 1278.2140758167614 301" stroke-miterlimit="10"/></g><g transform="translate(10,2) scale(1,1)"><g><path fill="none" stroke="none"/><text fill="#000000" stroke="none" font-family="Arial" font-size="13px" font-style="normal" font-weight="bold" text-decoration="none" x="1249.1845703125" y="321.5">agent</text></g></g><g transform="translate(10,2) scale(1,1)"><path fill="none" stroke="#000000" d="M 794 177 L 1239 281" stroke-miterlimit="10"/></g><g transform="translate(10,2) scale(1,1)"><g><path fill="none" stroke="none"/><text fill="#000000" stroke="none" font-family="Arial" font-size="13px" font-style="normal" font-weight="normal" text-decoration="none" x="989.550048828125" y="220.5">+interroge</text></g></g><g transform="translate(10,2) scale(1,1)"><path fill="#C0C0C0" stroke="none" d="M 727 399 C 727 381.3268864 798.6344320000001 367 887 367 C 975.3655679999999 367 1047 381.3268864 1047 399 C 1047 416.6731136 975.3655679999999 431 887 431 C 798.6344320000001 431 727 416.6731136 727 399 Z" opacity="0.2"/></g><g transform="translate(10,2) scale(1,1)"><path fill="#ffffff" stroke="none" d="M 720 392 C 720 374.3268864 791.6344320000001 360 880 360 C 968.3655679999999 360 1040 374.3268864 1040 392 C 1040 409.6731136 968.3655679999999 424 880 424 C 791.6344320000001 424 720 409.6731136 720 392 Z"/></g><g transform="translate(10,2) scale(1,1)"><path fill="none" stroke="#000000" d="M 720 392 C 720 374.3268864 791.6344320000001 360 880 360 C 968.3655679999999 360 1040 374.3268864 1040 392 C 1040 409.6731136 968.3655679999999 424 880 424 C 791.6344320000001 424 720 409.6731136 720 392 Z" stroke-miterlimit="10"/></g><g transform="translate(10,2) scale(1,1)"><g><path fill="none" stroke="none"/><text fill="#000000" stroke="none" font-family="Arial" font-size="13px" font-style="normal" font-weight="bold" text-decoration="none" x="780.287841796875" y="399">proposer mises à jour des logiciels</text></g></g><g transform="translate(10,2) scale(1,1)"><path fill="none" stroke="#000000" d="M 1239 294 L 1001 359" stroke-miterlimit="10"/></g><g transform="translate(10,2) scale(1,1)"><g><path fill="none" stroke="none"/><text fill="#000000" stroke="none" font-family="Arial" font-size="13px" font-style="normal" font-weight="normal" text-decoration="none" x="1098.885498046875" y="346.5">+renvoie</text></g></g><g transform="translate(10,2) scale(1,1)"><path fill="none" stroke="#000000" d="M 294 175 L 473 287" stroke-miterlimit="10" stroke-dasharray="3"/></g><g transform="translate(10,2) scale(1,1)"><path fill="#C0C0C0" stroke="none" d="M 407 323 C 407 307.5360256 460.2781088 295 526 295 C 591.7218912 295 645 307.5360256 645 323 C 645 338.4639744 591.7218912 351 526 351 C 460.2781088 351 407 338.4639744 407 323 Z" opacity="0.2"/></g><g transform="translate(10,2) scale(1,1)"><path fill="#ffffff" stroke="none" d="M 400 316 C 400 300.5360256 453.2781088 288 519 288 C 584.7218912 288 638 300.5360256 638 316 C 638 331.4639744 584.7218912 344 519 344 C 453.2781088 344 400 331.4639744 400 316 Z"/></g><g transform="translate(10,2) scale(1,1)"><path fill="none" stroke="#000000" d="M 400 316 C 400 300.5360256 453.2781088 288 519 288 C 584.7218912 288 638 300.5360256 638 316 C 638 331.4639744 584.7218912 344 519 344 C 453.2781088 344 400 331.4639744 400 316 Z" stroke-miterlimit="10"/></g><g transform="translate(10,2) scale(1,1)"><g><path fill="none" stroke="none"/><text fill="#000000" stroke="none" font-family="Arial" font-size="13px" font-style="normal" font-weight="bold" text-decoration="none" x="444.926025390625" y="323">selectionner une machine</text></g></g><g transform="translate(10,2) scale(1,1)"><path fill="none" stroke="#000000" d="M 1239 287 L 966 282" stroke-miterlimit="10"/></g><g transform="translate(10,2) scale(1,1)"><path fill="none" stroke="#000000" d="M 723 359 L 639 341" stroke-miterlimit="10" stroke-dasharray="3"/></g><g transform="translate(10,2) scale(1,1)"><path fill="none" stroke="#000000" d="M 649.8191044286832 339.013299378052 L 639 341 L 648.0550715898543 347.2454526259203" stroke-miterlimit="10"/></g><g transform="translate(10,2) scale(1,1)"><g><path fill="none" stroke="none"/><text fill="#000000" stroke="none" font-family="Arial" font-size="13px" font-style="normal" font-weight="normal" text-decoration="none" x="646.5" y="385.5">«include»</text></g></g><g transform="translate(10,2) scale(1,1)"><path fill="none" stroke="#000000" d="M 645 179 L 546 287" stroke-miterlimit="10"/></g><g transform="translate(10,2) scale(1,1)"><path fill="#C0C0C0" stroke="none" d="M 647 499 C 647 483.5360256 707.441552 471 782 471 C 856.558448 471 917 483.5360256 917 499 C 917 514.4639744 856.558448 527 782 527 C 707.441552 527 647 514.4639744 647 499 Z" opacity="0.2"/></g><g transform="translate(10,2) scale(1,1)"><path fill="#ffffff" stroke="none" d="M 640 492 C 640 476.5360256 700.441552 464 775 464 C 849.558448 464 910 476.5360256 910 492 C 910 507.4639744 849.558448 520 775 520 C 700.441552 520 640 507.4639744 640 492 Z"/></g><g transform="translate(10,2) scale(1,1)"><path fill="none" stroke="#000000" d="M 640 492 C 640 476.5360256 700.441552 464 775 464 C 849.558448 464 910 476.5360256 910 492 C 910 507.4639744 849.558448 520 775 520 C 700.441552 520 640 507.4639744 640 492 Z" stroke-miterlimit="10"/></g><g transform="translate(10,2) scale(1,1)"><g><path fill="none" stroke="none"/><text fill="#000000" stroke="none" font-family="Arial" font-size="13px" font-style="normal" font-weight="bold" text-decoration="none" x="691.90283203125" y="499">supprimer un logiciel présent</text></g></g><g transform="translate(10,2) scale(1,1)"><path fill="none" stroke="#000000" d="M 733 463 L 561 345" stroke-miterlimit="10" stroke-dasharray="3"/></g><g transform="translate(10,2) scale(1,1)"><path fill="none" stroke="#000000" d="M 571.76153840963 347.2780015491782 L 561 345 L 566.9987664424715 354.2203471284262" stroke-miterlimit="10"/></g><g transform="translate(10,2) scale(1,1)"><g><path fill="none" stroke="none"/><text fill="#000000" stroke="none" font-family="Arial" font-size="13px" font-style="normal" font-weight="normal" text-decoration="none" x="602.5" y="434.5">«include»</text></g></g><g transform="translate(10,2) scale(1,1)"><path fill="#C0C0C0" stroke="none" d="M 383 563 C 383 547.5360256 441.202976 535 513 535 C 584.797024 535 643 547.5360256 643 563 C 643 578.4639744 584.797024 591 513 591 C 441.202976 591 383 578.4639744 383 563 Z" opacity="0.2"/></g><g transform="translate(10,2) scale(1,1)"><path fill="#ffffff" stroke="none" d="M 376 556 C 376 540.5360256 434.202976 528 506 528 C 577.797024 528 636 540.5360256 636 556 C 636 571.4639744 577.797024 584 506 584 C 434.202976 584 376 571.4639744 376 556 Z"/></g><g transform="translate(10,2) scale(1,1)"><path fill="none" stroke="#000000" d="M 376 556 C 376 540.5360256 434.202976 528 506 528 C 577.797024 528 636 540.5360256 636 556 C 636 571.4639744 577.797024 584 506 584 C 434.202976 584 376 571.4639744 376 556 Z" stroke-miterlimit="10"/></g><g transform="translate(10,2) scale(1,1)"><g><path fill="none" stroke="none"/><text fill="#000000" stroke="none" font-family="Arial" font-size="13px" font-style="normal" font-weight="bold" text-decoration="none" x="426.143310546875" y="563">installer un nouveau logiciel</text></g></g><g transform="translate(10,2) scale(1,1)"><path fill="none" stroke="#000000" d="M 508 527 L 517 345" stroke-miterlimit="10" stroke-dasharray="3"/></g><g transform="translate(10,2) scale(1,1)"><path fill="none" stroke="#000000" d="M 520.7024437664147 355.3581808323922 L 517 345 L 512.2936831868526 354.9423630015347" stroke-miterlimit="10"/></g><g transform="translate(10,2) scale(1,1)"><g><path fill="none" stroke="none"/><text fill="#000000" stroke="none" font-family="Arial" font-size="13px" font-style="normal" font-weight="normal" text-decoration="none" x="454.5" y="440.5">«include»</text></g></g><g transform="translate(10,2) scale(1,1)"><path fill="none" stroke="#000000" d="M 703 295 L 639 302" stroke-miterlimit="10" stroke-dasharray="3"/></g><g transform="translate(10,2) scale(1,1)"><path fill="none" stroke="#000000" d="M 648.6447408719001 296.7104845671934 L 639 302 L 649.5601139050361 305.0796094415792" stroke-miterlimit="10"/></g><g transform="translate(10,2) scale(1,1)"><g><path fill="none" stroke="none"/><text fill="#000000" stroke="none" font-family="Arial" font-size="13px" font-style="normal" font-weight="normal" text-decoration="none" x="647.5" y="333.5">«extend»</text></g></g><g transform="translate(10,2) scale(1,1)"><path fill="none" stroke="#000000" d="M 911 510 L 1104 536 L 1239 327" stroke-miterlimit="10"/></g><g transform="translate(10,2) scale(1,1)"><path fill="none" stroke="#000000" d="M 637 557 L 1088 560 L 1239 327" stroke-miterlimit="10"/></g><g transform="translate(10,2) scale(1,1)"><g><path fill="none" stroke="none"/><text fill="#000000" stroke="none" font-family="Arial" font-size="13px" font-style="normal" font-weight="normal" text-decoration="none" x="1146.75" y="516.5">+execute</text></g></g></g></svg>