<svg version="1.1" xmlns="http://www.w3.org/2000/svg" xmlns:xlink="http://www.w3.org/1999/xlink" width="1098.93896484375" height="500"><defs/><g><g transform="translate(10,10) scale(1,1)"><rect fill="#C0C0C0" stroke="none" x="223" y="103" width="599" height="384" opacity="0.2"/></g><g transform="translate(10,10) scale(1,1)"><rect fill="#ffffff" stroke="none" x="216" y="96" width="599" height="384"/></g><g transform="translate(10,10) scale(1,1)"><path fill="none" stroke="#000000" d="M 216 96 L 815 96 L 815 480 L 216 480 L 216 96 Z Z" stroke-miterlimit="10"/></g><g transform="translate(10,10) scale(1,1)"><g><path fill="none" stroke="none"/><text fill="#000000" stroke="none" font-family="Arial" font-size="13px" font-style="normal" font-weight="bold" text-decoration="none" x="466.00732421875" y="115.5">Client Warecloud</text></g></g><g transform="translate(10,10) scale(1,1)"><path fill="#ffffff" stroke="none" d="M 61.55070774147727 201.68 C 61.55070774147727 196.886167936 65.43655006642273 193 70.22998046875 193 C 75.02341087107727 193 78.90925319602273 196.886167936 78.90925319602273 201.68 C 78.90925319602273 206.47383206400002 75.02341087107727 210.36 70.22998046875 210.36 C 65.43655006642273 210.36 61.55070774147727 206.47383206400002 61.55070774147727 201.68 Z"/></g><g transform="translate(10,10) scale(1,1)"><path fill="none" stroke="#000000" d="M 61.55070774147727 201.68 C 61.55070774147727 196.886167936 65.43655006642273 193 70.22998046875 193 C 75.02341087107727 193 78.90925319602273 196.886167936 78.90925319602273 201.68 C 78.90925319602273 206.47383206400002 75.02341087107727 210.36 70.22998046875 210.36 C 65.43655006642273 210.36 61.55070774147727 206.47383206400002 61.55070774147727 201.68 Z" stroke-miterlimit="10"/></g><g transform="translate(10,10) scale(1,1)"><path fill="none" stroke="#000000" d="M 70.22998046875 210.36 L 70.22998046875 227.64" stroke-miterlimit="10"/></g><g transform="translate(10,10) scale(1,1)"><path fill="none" stroke="#000000" d="M 61.04016228693182 216.84 L 79.41979865056818 216.84" stroke-miterlimit="10"/></g><g transform="translate(10,10) scale(1,1)"><path fill="none" stroke="#000000" d="M 70.22998046875 227.64 L 57.466344105113635 245" stroke-miterlimit="10"/></g><g transform="translate(10,10) scale(1,1)"><path fill="none" stroke="#000000" d="M 70.22998046875 227.64 L 82.99361683238637 245" stroke-miterlimit="10"/></g><g transform="translate(10,10) scale(1,1)"><g><path fill="none" stroke="none"/><text fill="#000000" stroke="none" font-family="Arial" font-size="13px" font-style="normal" font-weight="bold" text-decoration="none" x="10.609619140625" y="265.5">utilisateur authentifié</text></g></g><g transform="translate(10,10) scale(1,1)"><rect fill="#C0C0C0" stroke="none" x="391" y="7" width="46.08613281250001" height="15" opacity="0.2"/></g><g transform="translate(10,10) scale(1,1)"><rect fill="#C0C0C0" stroke="none" x="391" y="21" width="115.21533203125" height="25" opacity="0.2"/></g><g transform="translate(10,10) scale(1,1)"><rect fill="#ffffff" stroke="none" x="384" y="15" width="115.21533203125" height="24"/></g><g transform="translate(10,10) scale(1,1)"><path fill="none" stroke="#000000" d="M 384 15 L 499.21533203125 15 L 499.21533203125 39 L 384 39 L 384 15 Z Z" stroke-miterlimit="10"/></g><g transform="translate(10,10) scale(1,1)"><rect fill="#ffffff" stroke="none" x="384" y="0" width="46.08613281250001" height="15"/></g><g transform="translate(10,10) scale(1,1)"><path fill="none" stroke="#000000" d="M 384 0 L 430.0861328125 0 L 430.0861328125 15 L 384 15 L 384 0 Z Z" stroke-miterlimit="10"/></g><g transform="translate(10,10) scale(1,1)"><rect fill="#ffffff" stroke="none" x="384" y="14" width="115.21533203125" height="25"/></g><g transform="translate(10,10) scale(1,1)"><path fill="none" stroke="#000000" d="M 384 14 L 499.21533203125 14 L 499.21533203125 39 L 384 39 L 384 14 Z Z" stroke-miterlimit="10"/></g><g transform="translate(10,10) scale(1,1)"><g><path fill="none" stroke="none"/><text fill="#000000" stroke="none" font-family="Arial" font-size="13px" font-style="normal" font-weight="bold" text-decoration="none" x="392.102294921875" y="34.5">création package</text></g></g><g transform="translate(10,10) scale(1,1)"><path fill="#C0C0C0" stroke="none" d="M 263 187 C 263 171.5360256 313.8156752 159 376.5 159 C 439.1843248 159 490 171.5360256 490 187 C 490 202.4639744 439.1843248 215 376.5 215 C 313.8156752 215 263 202.4639744 263 187 Z" opacity="0.2"/></g><g transform="translate(10,10) scale(1,1)"><path fill="#ffffff" stroke="none" d="M 256 180 C 256 164.5360256 306.8156752 152 369.5 152 C 432.1843248 152 483 164.5360256 483 180 C 483 195.4639744 432.1843248 208 369.5 208 C 306.8156752 208 256 195.4639744 256 180 Z"/></g><g transform="translate(10,10) scale(1,1)"><path fill="none" stroke="#000000" d="M 256 180 C 256 164.5360256 306.8156752 152 369.5 152 C 432.1843248 152 483 164.5360256 483 180 C 483 195.4639744 432.1843248 208 369.5 208 C 306.8156752 208 256 195.4639744 256 180 Z" stroke-miterlimit="10"/></g><g transform="translate(10,10) scale(1,1)"><g><path fill="none" stroke="none"/><text fill="#000000" stroke="none" font-family="Arial" font-size="13px" font-style="normal" font-weight="bold" text-decoration="none" x="299.03466796875" y="187">séléctionner un package</text></g></g><g transform="translate(10,10) scale(1,1)"><path fill="none" stroke="#000000" d="M 382 151 L 432 40" stroke-miterlimit="10" stroke-dasharray="3"/></g><g transform="translate(10,10) scale(1,1)"><path fill="none" stroke="#000000" d="M 431.66422902572185 50.99487416266472 L 432 40 L 423.9880239884493 47.537124145875296" stroke-miterlimit="10"/></g><g transform="translate(10,10) scale(1,1)"><g><path fill="none" stroke="none"/><text fill="#000000" stroke="none" font-family="Arial" font-size="13px" font-style="normal" font-weight="normal" text-decoration="none" x="364.5" y="94.5">+depends</text></g></g><g transform="translate(10,10) scale(1,1)"><path fill="none" stroke="#000000" d="M 141 219 L 255 199" stroke-miterlimit="10"/></g><g transform="translate(10,10) scale(1,1)"><path fill="#ffffff" stroke="none" d="M 966.7902096946023 161.68 C 966.7902096946023 156.886167936 970.6760520195477 153 975.469482421875 153 C 980.2629128242023 153 984.1487551491477 156.886167936 984.1487551491477 161.68 C 984.1487551491477 166.47383206400002 980.2629128242023 170.36 975.469482421875 170.36 C 970.6760520195477 170.36 966.7902096946023 166.47383206400002 966.7902096946023 161.68 Z"/></g><g transform="translate(10,10) scale(1,1)"><path fill="none" stroke="#000000" d="M 966.7902096946023 161.68 C 966.7902096946023 156.886167936 970.6760520195477 153 975.469482421875 153 C 980.2629128242023 153 984.1487551491477 156.886167936 984.1487551491477 161.68 C 984.1487551491477 166.47383206400002 980.2629128242023 170.36 975.469482421875 170.36 C 970.6760520195477 170.36 966.7902096946023 166.47383206400002 966.7902096946023 161.68 Z" stroke-miterlimit="10"/></g><g transform="translate(10,10) scale(1,1)"><path fill="none" stroke="#000000" d="M 975.469482421875 170.36 L 975.469482421875 187.64" stroke-miterlimit="10"/></g><g transform="translate(10,10) scale(1,1)"><path fill="none" stroke="#000000" d="M 966.2796642400568 176.84 L 984.6593006036932 176.84" stroke-miterlimit="10"/></g><g transform="translate(10,10) scale(1,1)"><path fill="none" stroke="#000000" d="M 975.469482421875 187.64 L 962.7058460582386 205" stroke-miterlimit="10"/></g><g transform="translate(10,10) scale(1,1)"><path fill="none" stroke="#000000" d="M 975.469482421875 187.64 L 988.2331187855114 205" stroke-miterlimit="10"/></g><g transform="translate(10,10) scale(1,1)"><g><path fill="none" stroke="none"/><text fill="#000000" stroke="none" font-family="Arial" font-size="13px" font-style="normal" font-weight="bold" text-decoration="none" x="882.58740234375" y="225.5">gestionnaire de base de donnée</text></g></g><g transform="translate(10,10) scale(1,1)"><path fill="none" stroke="#000000" d="M 484 182 L 871 189" stroke-miterlimit="10"/></g><g transform="translate(10,10) scale(1,1)"><g><path fill="none" stroke="none"/><text fill="#000000" stroke="none" font-family="Arial" font-size="13px" font-style="normal" font-weight="normal" text-decoration="none" x="703.5" y="180.5">+récupérer</text></g></g><g transform="translate(10,10) scale(1,1)"><path fill="#C0C0C0" stroke="none" d="M 239 419 C 239 403.5360256 313.3207232 391 405 391 C 496.6792768 391 571 403.5360256 571 419 C 571 434.4639744 496.6792768 447 405 447 C 313.3207232 447 239 434.4639744 239 419 Z" opacity="0.2"/></g><g transform="translate(10,10) scale(1,1)"><path fill="#ffffff" stroke="none" d="M 232 412 C 232 396.5360256 306.3207232 384 398 384 C 489.6792768 384 564 396.5360256 564 412 C 564 427.4639744 489.6792768 440 398 440 C 306.3207232 440 232 427.4639744 232 412 Z"/></g><g transform="translate(10,10) scale(1,1)"><path fill="none" stroke="#000000" d="M 232 412 C 232 396.5360256 306.3207232 384 398 384 C 489.6792768 384 564 396.5360256 564 412 C 564 427.4639744 489.6792768 440 398 440 C 306.3207232 440 232 427.4639744 232 412 Z" stroke-miterlimit="10"/></g><g transform="translate(10,10) scale(1,1)"><g><path fill="none" stroke="none"/><text fill="#000000" stroke="none" font-family="Arial" font-size="13px" font-style="normal" font-weight="bold" text-decoration="none" x="293.94287109375" y="419">afficher les informations du package</text></g></g><g transform="translate(10,10) scale(1,1)"><path fill="none" stroke="#000000" d="M 394 383 L 373 209" stroke-miterlimit="10" stroke-dasharray="3"/></g><g transform="translate(10,10) scale(1,1)"><path fill="none" stroke="#000000" d="M 378.39688409046835 218.58507392324387 L 373 209 L 370.0385025683479 219.59384410694804" stroke-miterlimit="10"/></g><g transform="translate(10,10) scale(1,1)"><g><path fill="none" stroke="none"/><text fill="#000000" stroke="none" font-family="Arial" font-size="13px" font-style="normal" font-weight="normal" text-decoration="none" x="339.5" y="303.5">+depends</text></g></g><g transform="translate(10,10) scale(1,1)"><rect fill="#C0C0C0" stroke="none" x="639" y="7" width="49.55703125000002" height="15" opacity="0.2"/></g><g transform="translate(10,10) scale(1,1)"><rect fill="#C0C0C0" stroke="none" x="639" y="21" width="123.892578125" height="25" opacity="0.2"/></g><g transform="translate(10,10) scale(1,1)"><rect fill="#ffffff" stroke="none" x="632" y="15" width="123.892578125" height="24"/></g><g transform="translate(10,10) scale(1,1)"><path fill="none" stroke="#000000" d="M 632 15 L 755.892578125 15 L 755.892578125 39 L 632 39 L 632 15 Z Z" stroke-miterlimit="10"/></g><g transform="translate(10,10) scale(1,1)"><rect fill="#ffffff" stroke="none" x="632" y="0" width="49.55703125000002" height="15"/></g><g transform="translate(10,10) scale(1,1)"><path fill="none" stroke="#000000" d="M 632 0 L 681.55703125 0 L 681.55703125 15 L 632 15 L 632 0 Z Z" stroke-miterlimit="10"/></g><g transform="translate(10,10) scale(1,1)"><rect fill="#ffffff" stroke="none" x="632" y="14" width="123.892578125" height="25"/></g><g transform="translate(10,10) scale(1,1)"><path fill="none" stroke="#000000" d="M 632 14 L 755.892578125 14 L 755.892578125 39 L 632 39 L 632 14 Z Z" stroke-miterlimit="10"/></g><g transform="translate(10,10) scale(1,1)"><g><path fill="none" stroke="none"/><text fill="#000000" stroke="none" font-family="Arial" font-size="13px" font-style="normal" font-weight="bold" text-decoration="none" x="640.10546875" y="34.5">découverte réseau</text></g></g><g transform="translate(10,10) scale(1,1)"><path fill="#C0C0C0" stroke="none" d="M 519 279 C 519 265.7451648 586.15728 255 669 255 C 751.84272 255 819 265.7451648 819 279 C 819 292.2548352 751.84272 303 669 303 C 586.15728 303 519 292.2548352 519 279 Z" opacity="0.2"/></g><g transform="translate(10,10) scale(1,1)"><path fill="#ffffff" stroke="none" d="M 512 272 C 512 258.7451648 579.15728 248 662 248 C 744.84272 248 812 258.7451648 812 272 C 812 285.2548352 744.84272 296 662 296 C 579.15728 296 512 285.2548352 512 272 Z"/></g><g transform="translate(10,10) scale(1,1)"><path fill="none" stroke="#000000" d="M 512 272 C 512 258.7451648 579.15728 248 662 248 C 744.84272 248 812 258.7451648 812 272 C 812 285.2548352 744.84272 296 662 296 C 579.15728 296 512 285.2548352 512 272 Z" stroke-miterlimit="10"/></g><g transform="translate(10,10) scale(1,1)"><g><path fill="none" stroke="none"/><text fill="#000000" stroke="none" font-family="Arial" font-size="13px" font-style="normal" font-weight="bold" text-decoration="none" x="568.787841796875" y="279">déployer sur plusieurs machines</text></g></g><g transform="translate(10,10) scale(1,1)"><path fill="none" stroke="#000000" d="M 665 247 L 690 40" stroke-miterlimit="10" stroke-dasharray="3"/></g><g transform="translate(10,10) scale(1,1)"><path fill="none" stroke="#000000" d="M 692.9606277193433 50.59408719557547 L 690 40 L 684.6023290404436 49.584630833389504" stroke-miterlimit="10"/></g><g transform="translate(10,10) scale(1,1)"><g><path fill="none" stroke="none"/><text fill="#000000" stroke="none" font-family="Arial" font-size="13px" font-style="normal" font-weight="normal" text-decoration="none" x="633.5" y="147.5">+depends</text></g></g><g transform="translate(10,10) scale(1,1)"><path fill="#C0C0C0" stroke="none" d="M 471 344 C 471 334.6111584 524.725824 327 591 327 C 657.274176 327 711 334.6111584 711 344 C 711 353.3888416 657.274176 361 591 361 C 524.725824 361 471 353.3888416 471 344 Z" opacity="0.2"/></g><g transform="translate(10,10) scale(1,1)"><path fill="#ffffff" stroke="none" d="M 464 337 C 464 327.6111584 517.725824 320 584 320 C 650.274176 320 704 327.6111584 704 337 C 704 346.3888416 650.274176 354 584 354 C 517.725824 354 464 346.3888416 464 337 Z"/></g><g transform="translate(10,10) scale(1,1)"><path fill="none" stroke="#000000" d="M 464 337 C 464 327.6111584 517.725824 320 584 320 C 650.274176 320 704 327.6111584 704 337 C 704 346.3888416 650.274176 354 584 354 C 517.725824 354 464 346.3888416 464 337 Z" stroke-miterlimit="10"/></g><g transform="translate(10,10) scale(1,1)"><g><path fill="none" stroke="none"/><text fill="#000000" stroke="none" font-family="Arial" font-size="13px" font-style="normal" font-weight="bold" text-decoration="none" x="509.20556640625" y="344">déployer sur une machine</text></g></g><g transform="translate(10,10) scale(1,1)"><path fill="none" stroke="#000000" d="M 582 247 L 461 209" stroke-miterlimit="10" stroke-dasharray="3"/></g><g transform="translate(10,10) scale(1,1)"><path fill="none" stroke="#000000" d="M 471.9570448781336 208.0288318690539 L 461 209 L 469.4345203061579 216.0610811640294" stroke-miterlimit="10"/></g><g transform="translate(10,10) scale(1,1)"><g><path fill="none" stroke="none"/><text fill="#000000" stroke="none" font-family="Arial" font-size="13px" font-style="normal" font-weight="normal" text-decoration="none" x="483.5" y="262.5">«include»</text></g></g><g transform="translate(10,10) scale(1,1)"><path fill="none" stroke="#000000" d="M 559 319 L 409 209" stroke-miterlimit="10" stroke-dasharray="3"/></g><g transform="translate(10,10) scale(1,1)"><path fill="none" stroke="#000000" d="M 419.68458761874797 211.6152604874653 L 409 209 L 414.70587593414257 218.40441278465448" stroke-miterlimit="10"/></g><g transform="translate(10,10) scale(1,1)"><g><path fill="none" stroke="none"/><text fill="#000000" stroke="none" font-family="Arial" font-size="13px" font-style="normal" font-weight="normal" text-decoration="none" x="438.5" y="294.5">«include»</text></g></g><g transform="translate(10,10) scale(1,1)"><path fill="none" stroke="#000000" d="M 141 241 L 360 272 L 511 272" stroke-miterlimit="10"/></g><g transform="translate(10,10) scale(1,1)"><path fill="none" stroke="#000000" d="M 141 241 L 352 272 L 520 319" stroke-miterlimit="10"/></g><g transform="translate(10,10) scale(1,1)"><path fill="none" stroke="#000000" d="M 944 399 L 904 336 L 705 337" stroke-miterlimit="10"/></g><g transform="translate(10,10) scale(1,1)"><path fill="none" stroke="#000000" d="M 715.1413934582108 332.73946731901304 L 705 337 L 715.1836996351745 341.158396534789" stroke-miterlimit="10"/></g><g transform="translate(10,10) scale(1,1)"><g><path fill="none" stroke="none"/><text fill="#000000" stroke="none" font-family="Arial" font-size="13px" font-style="normal" font-weight="normal" text-decoration="none" x="904.5" y="321.5">+execute</text></g></g><g transform="translate(10,10) scale(1,1)"><path fill="none" stroke="#000000" d="M 944 399 L 904 336 L 757 297" stroke-miterlimit="10"/></g><g transform="translate(10,10) scale(1,1)"><path fill="none" stroke="#000000" d="M 767.9023172612305 295.5373044282976 L 757 297 L 765.7433844236255 303.6748205085009" stroke-miterlimit="10"/></g><g transform="translate(10,10) scale(1,1)"><path fill="none" stroke="#000000" d="M 141 270 L 345 383" stroke-miterlimit="10"/></g><g transform="translate(10,10) scale(1,1)"><path fill="#ffffff" stroke="none" d="M 960.4093503196023 409.68 C 960.4093503196023 404.886167936 964.2951926445477 401 969.088623046875 401 C 973.8820534492023 401 977.7678957741477 404.886167936 977.7678957741477 409.68 C 977.7678957741477 414.473832064 973.8820534492023 418.36 969.088623046875 418.36 C 964.2951926445477 418.36 960.4093503196023 414.473832064 960.4093503196023 409.68 Z"/></g><g transform="translate(10,10) scale(1,1)"><path fill="none" stroke="#000000" d="M 960.4093503196023 409.68 C 960.4093503196023 404.886167936 964.2951926445477 401 969.088623046875 401 C 973.8820534492023 401 977.7678957741477 404.886167936 977.7678957741477 409.68 C 977.7678957741477 414.473832064 973.8820534492023 418.36 969.088623046875 418.36 C 964.2951926445477 418.36 960.4093503196023 414.473832064 960.4093503196023 409.68 Z" stroke-miterlimit="10"/></g><g transform="translate(10,10) scale(1,1)"><path fill="none" stroke="#000000" d="M 969.088623046875 418.36 L 969.088623046875 435.64" stroke-miterlimit="10"/></g><g transform="translate(10,10) scale(1,1)"><path fill="none" stroke="#000000" d="M 959.8988048650568 424.84 L 978.2784412286932 424.84" stroke-miterlimit="10"/></g><g transform="translate(10,10) scale(1,1)"><path fill="none" stroke="#000000" d="M 969.088623046875 435.64 L 956.3249866832386 453" stroke-miterlimit="10"/></g><g transform="translate(10,10) scale(1,1)"><path fill="none" stroke="#000000" d="M 969.088623046875 435.64 L 981.8522594105114 453" stroke-miterlimit="10"/></g><g transform="translate(10,10) scale(1,1)"><g><path fill="none" stroke="none"/><text fill="#000000" stroke="none" font-family="Arial" font-size="13px" font-style="normal" font-weight="bold" text-decoration="none" x="952.82275390625" y="473.5">agent</text></g></g></g></svg>