<svg version="1.1" xmlns="http://www.w3.org/2000/svg" xmlns:xlink="http://www.w3.org/1999/xlink" width="1322.93896484375" height="580"><defs/><g><g transform="translate(-102,-22) scale(1,1)"><rect fill="#C0C0C0" stroke="none" x="327" y="39" width="880" height="560" opacity="0.2"/></g><g transform="translate(-102,-22) scale(1,1)"><rect fill="#ffffff" stroke="none" x="320" y="32" width="880" height="560"/></g><g transform="translate(-102,-22) scale(1,1)"><path fill="none" stroke="#000000" d="M 320 32 L 1200 32 L 1200 592 L 320 592 L 320 32 Z Z" stroke-miterlimit="10"/></g><g transform="translate(-102,-22) scale(1,1)"><g><path fill="none" stroke="none"/><text fill="#000000" stroke="none" font-family="Arial" font-size="13px" font-style="normal" font-weight="bold" text-decoration="none" x="677.62646484375" y="51.5">Utiliser la découverte réseau</text></g></g><g transform="translate(-102,-22) scale(1,1)"><path fill="#ffffff" stroke="none" d="M 173.55070774147728 161.68 C 173.55070774147728 156.886167936 177.43655006642274 153 182.22998046875 153 C 187.02341087107726 153 190.90925319602272 156.886167936 190.90925319602272 161.68 C 190.90925319602272 166.47383206400002 187.02341087107726 170.36 182.22998046875 170.36 C 177.43655006642274 170.36 173.55070774147728 166.47383206400002 173.55070774147728 161.68 Z"/></g><g transform="translate(-102,-22) scale(1,1)"><path fill="none" stroke="#000000" d="M 173.55070774147728 161.68 C 173.55070774147728 156.886167936 177.43655006642274 153 182.22998046875 153 C 187.02341087107726 153 190.90925319602272 156.886167936 190.90925319602272 161.68 C 190.90925319602272 166.47383206400002 187.02341087107726 170.36 182.22998046875 170.36 C 177.43655006642274 170.36 173.55070774147728 166.47383206400002 173.55070774147728 161.68 Z" stroke-miterlimit="10"/></g><g transform="translate(-102,-22) scale(1,1)"><path fill="none" stroke="#000000" d="M 182.22998046875 170.36 L 182.22998046875 187.64" stroke-miterlimit="10"/></g><g transform="translate(-102,-22) scale(1,1)"><path fill="none" stroke="#000000" d="M 173.04016228693183 176.84 L 191.41979865056817 176.84" stroke-miterlimit="10"/></g><g transform="translate(-102,-22) scale(1,1)"><path fill="none" stroke="#000000" d="M 182.22998046875 187.64 L 169.46634410511365 205" stroke-miterlimit="10"/></g><g transform="translate(-102,-22) scale(1,1)"><path fill="none" stroke="#000000" d="M 182.22998046875 187.64 L 194.99361683238635 205" stroke-miterlimit="10"/></g><g transform="translate(-102,-22) scale(1,1)"><g><path fill="none" stroke="none"/><text fill="#000000" stroke="none" font-family="Arial" font-size="13px" font-style="normal" font-weight="bold" text-decoration="none" x="122.609619140625" y="225.5">utilisateur authentifié</text></g></g><g transform="translate(-102,-22) scale(1,1)"><path fill="#C0C0C0" stroke="none" d="M 439 146.5 C 439 126.8938896 508.6197136 111 594.5 111 C 680.3802864 111 750 126.8938896 750 146.5 C 750 166.1061104 680.3802864 182 594.5 182 C 508.6197136 182 439 166.1061104 439 146.5 Z" opacity="0.2"/></g><g transform="translate(-102,-22) scale(1,1)"><path fill="#ffffff" stroke="none" d="M 432 139.5 C 432 119.8938896 501.6197136 104 587.5 104 C 673.3802864 104 743 119.8938896 743 139.5 C 743 159.1061104 673.3802864 175 587.5 175 C 501.6197136 175 432 159.1061104 432 139.5 Z"/></g><g transform="translate(-102,-22) scale(1,1)"><path fill="none" stroke="#000000" d="M 432 139.5 C 432 119.8938896 501.6197136 104 587.5 104 C 673.3802864 104 743 119.8938896 743 139.5 C 743 159.1061104 673.3802864 175 587.5 175 C 501.6197136 175 432 159.1061104 432 139.5 Z" stroke-miterlimit="10"/></g><g transform="translate(-102,-22) scale(1,1)"><g><path fill="none" stroke="none"/><text fill="#000000" stroke="none" font-family="Arial" font-size="13px" font-style="normal" font-weight="bold" text-decoration="none" x="489.222412109375" y="146.5">détecter les machines connectées</text></g></g><g transform="translate(-102,-22) scale(1,1)"><path fill="#C0C0C0" stroke="none" d="M 999 114.5 C 999 94.8938896 1038.8466528 79 1088 79 C 1137.1533472 79 1177 94.8938896 1177 114.5 C 1177 134.1061104 1137.1533472 150 1088 150 C 1038.8466528 150 999 134.1061104 999 114.5 Z" opacity="0.2"/></g><g transform="translate(-102,-22) scale(1,1)"><path fill="#ffffff" stroke="none" d="M 992 107.5 C 992 87.8938896 1031.8466528 72 1081 72 C 1130.1533472 72 1170 87.8938896 1170 107.5 C 1170 127.1061104 1130.1533472 143 1081 143 C 1031.8466528 143 992 127.1061104 992 107.5 Z"/></g><g transform="translate(-102,-22) scale(1,1)"><path fill="none" stroke="#000000" d="M 992 107.5 C 992 87.8938896 1031.8466528 72 1081 72 C 1130.1533472 72 1170 87.8938896 1170 107.5 C 1170 127.1061104 1130.1533472 143 1081 143 C 1031.8466528 143 992 127.1061104 992 107.5 Z" stroke-miterlimit="10"/></g><g transform="translate(-102,-22) scale(1,1)"><g><path fill="none" stroke="none"/><text fill="#000000" stroke="none" font-family="Arial" font-size="13px" font-style="normal" font-weight="bold" text-decoration="none" x="1027.16552734375" y="114.5">installer les agents</text></g></g><g transform="translate(-102,-22) scale(1,1)"><path fill="none" stroke="#000000" d="M 253 182 L 431 159" stroke-miterlimit="10"/></g><g transform="translate(-102,-22) scale(1,1)"><path fill="none" stroke="#000000" d="M 744 129 L 991 113" stroke-miterlimit="10"/></g><g transform="translate(-102,-22) scale(1,1)"><path fill="#ffffff" stroke="none" d="M 776 112 L 949 112 L 959 122 L 959 167 L 776 167 L 776 112"/></g><g transform="translate(-102,-22) scale(1,1)"><path fill="none" stroke="#000000" d="M 776 112 L 949 112 L 959 122 L 959 167 L 776 167 L 776 112 L 776 112" stroke-miterlimit="10"/></g><g transform="translate(-102,-22) scale(1,1)"><path fill="none" stroke="#000000" d="M 949 112 L 949 122 L 959 122 L 949 112" stroke-miterlimit="10"/></g><g transform="translate(-102,-22) scale(1,1)"><g><path fill="none" stroke="none"/><text fill="#000000" stroke="none" font-family="Arial" font-size="13px" font-style="normal" font-weight="normal" text-decoration="none" x="781" y="130">Condition : si agents</text><text fill="#000000" stroke="none" font-family="Arial" font-size="13px" font-style="normal" font-weight="normal" text-decoration="none" x="781" y="143">manquants sur certaines</text><text fill="#000000" stroke="none" font-family="Arial" font-size="13px" font-style="normal" font-weight="normal" text-decoration="none" x="781" y="156">machines</text></g></g><g transform="translate(-102,-22) scale(1,1)"><path fill="#C0C0C0" stroke="none" d="M 511 232 C 511 222.6111584 554.652232 215 608.5 215 C 662.347768 215 706 222.6111584 706 232 C 706 241.3888416 662.347768 249 608.5 249 C 554.652232 249 511 241.3888416 511 232 Z" opacity="0.2"/></g><g transform="translate(-102,-22) scale(1,1)"><path fill="#ffffff" stroke="none" d="M 504 225 C 504 215.6111584 547.652232 208 601.5 208 C 655.347768 208 699 215.6111584 699 225 C 699 234.3888416 655.347768 242 601.5 242 C 547.652232 242 504 234.3888416 504 225 Z"/></g><g transform="translate(-102,-22) scale(1,1)"><path fill="none" stroke="#000000" d="M 504 225 C 504 215.6111584 547.652232 208 601.5 208 C 655.347768 208 699 215.6111584 699 225 C 699 234.3888416 655.347768 242 601.5 242 C 547.652232 242 504 234.3888416 504 225 Z" stroke-miterlimit="10"/></g><g transform="translate(-102,-22) scale(1,1)"><g><path fill="none" stroke="none"/><text fill="#000000" stroke="none" font-family="Arial" font-size="13px" font-style="normal" font-weight="bold" text-decoration="none" x="542.24462890625" y="232">interroger les agents</text></g></g><g transform="translate(-102,-22) scale(1,1)"><path fill="#ffffff" stroke="none" d="M 1267.4833249289773 193.68 C 1267.4833249289773 188.886167936 1271.3691672539228 185 1276.16259765625 185 C 1280.9560280585772 185 1284.8418703835227 188.886167936 1284.8418703835227 193.68 C 1284.8418703835227 198.47383206400002 1280.9560280585772 202.36 1276.16259765625 202.36 C 1271.3691672539228 202.36 1267.4833249289773 198.47383206400002 1267.4833249289773 193.68 Z"/></g><g transform="translate(-102,-22) scale(1,1)"><path fill="none" stroke="#000000" d="M 1267.4833249289773 193.68 C 1267.4833249289773 188.886167936 1271.3691672539228 185 1276.16259765625 185 C 1280.9560280585772 185 1284.8418703835227 188.886167936 1284.8418703835227 193.68 C 1284.8418703835227 198.47383206400002 1280.9560280585772 202.36 1276.16259765625 202.36 C 1271.3691672539228 202.36 1267.4833249289773 198.47383206400002 1267.4833249289773 193.68 Z" stroke-miterlimit="10"/></g><g transform="translate(-102,-22) scale(1,1)"><path fill="none" stroke="#000000" d="M 1276.16259765625 202.36 L 1276.16259765625 219.64" stroke-miterlimit="10"/></g><g transform="translate(-102,-22) scale(1,1)"><path fill="none" stroke="#000000" d="M 1266.9727794744317 208.84 L 1285.3524158380683 208.84" stroke-miterlimit="10"/></g><g transform="translate(-102,-22) scale(1,1)"><path fill="none" stroke="#000000" d="M 1276.16259765625 219.64 L 1263.3989612926136 237" stroke-miterlimit="10"/></g><g transform="translate(-102,-22) scale(1,1)"><path fill="none" stroke="#000000" d="M 1276.16259765625 219.64 L 1288.9262340198864 237" stroke-miterlimit="10"/></g><g transform="translate(-102,-22) scale(1,1)"><g><path fill="none" stroke="none"/><text fill="#000000" stroke="none" font-family="Arial" font-size="13px" font-style="normal" font-weight="bold" text-decoration="none" x="1256.646728515625" y="257.5">agents</text></g></g><g transform="translate(-102,-22) scale(1,1)"><path fill="#ffffff" stroke="none" d="M 1320 160 L 1399.5380859375 160 L 1409.5380859375 170 L 1409.5380859375 287 L 1320 287 L 1320 160"/></g><g transform="translate(-102,-22) scale(1,1)"><path fill="none" stroke="#000000" d="M 1320 160 L 1399.5380859375 160 L 1409.5380859375 170 L 1409.5380859375 287 L 1320 287 L 1320 160 L 1320 160" stroke-miterlimit="10"/></g><g transform="translate(-102,-22) scale(1,1)"><path fill="none" stroke="#000000" d="M 1399.5380859375 160 L 1399.5380859375 170 L 1409.5380859375 170 L 1399.5380859375 160" stroke-miterlimit="10"/></g><g transform="translate(-102,-22) scale(1,1)"><g><path fill="none" stroke="none"/><text fill="#000000" stroke="none" font-family="Arial" font-size="13px" font-style="normal" font-weight="normal" text-decoration="none" x="1325" y="178">Les agents</text><text fill="#000000" stroke="none" font-family="Arial" font-size="13px" font-style="normal" font-weight="normal" text-decoration="none" x="1325" y="191">sont installés</text><text fill="#000000" stroke="none" font-family="Arial" font-size="13px" font-style="normal" font-weight="normal" text-decoration="none" x="1325" y="204">sur les</text><text fill="#000000" stroke="none" font-family="Arial" font-size="13px" font-style="normal" font-weight="normal" text-decoration="none" x="1325" y="217">machines</text><text fill="#000000" stroke="none" font-family="Arial" font-size="13px" font-style="normal" font-weight="normal" text-decoration="none" x="1325" y="230">connectées</text><text fill="#000000" stroke="none" font-family="Arial" font-size="13px" font-style="normal" font-weight="normal" text-decoration="none" x="1325" y="243">au parc</text><text fill="#000000" stroke="none" font-family="Arial" font-size="13px" font-style="normal" font-weight="normal" text-decoration="none" x="1325" y="256">informatique</text></g></g><g transform="translate(-102,-22) scale(1,1)"><path fill="none" stroke="#000000" d="M 700 225 L 1223 223" stroke-miterlimit="10" stroke-dasharray="3"/></g><g transform="translate(-102,-22) scale(1,1)"><path fill="none" stroke="#000000" d="M 1212.8534969139423 227.2483496942483 L 1223 223 L 1212.8213019848636 218.82937574017308" stroke-miterlimit="10"/></g><g transform="translate(-102,-22) scale(1,1)"><g><path fill="none" stroke="none"/><text fill="#000000" stroke="none" font-family="Arial" font-size="13px" font-style="normal" font-weight="normal" text-decoration="none" x="919.5" y="224.5">+depends</text></g></g><g transform="translate(-102,-22) scale(1,1)"><path fill="none" stroke="#000000" d="M 598 207 L 593 176" stroke-miterlimit="10" stroke-dasharray="3"/></g><g transform="translate(-102,-22) scale(1,1)"><path fill="none" stroke="#000000" d="M 598.7740365296702 185.36271873731314 L 593 176 L 590.4624184754522 186.70330229444508" stroke-miterlimit="10"/></g><g transform="translate(-102,-22) scale(1,1)"><g><path fill="none" stroke="none"/><text fill="#000000" stroke="none" font-family="Arial" font-size="13px" font-style="normal" font-weight="normal" text-decoration="none" x="526.5" y="196.5">«include»</text></g></g><g transform="translate(-102,-22) scale(1,1)"><path fill="none" stroke="#000000" d="M 253 197 L 503 217" stroke-miterlimit="10"/></g><g transform="translate(-102,-22) scale(1,1)"><path fill="#ffffff" stroke="none" d="M 1302.7902096946023 321.68 C 1302.7902096946023 316.886167936 1306.6760520195478 313 1311.469482421875 313 C 1316.2629128242022 313 1320.1487551491477 316.886167936 1320.1487551491477 321.68 C 1320.1487551491477 326.473832064 1316.2629128242022 330.36 1311.469482421875 330.36 C 1306.6760520195478 330.36 1302.7902096946023 326.473832064 1302.7902096946023 321.68 Z"/></g><g transform="translate(-102,-22) scale(1,1)"><path fill="none" stroke="#000000" d="M 1302.7902096946023 321.68 C 1302.7902096946023 316.886167936 1306.6760520195478 313 1311.469482421875 313 C 1316.2629128242022 313 1320.1487551491477 316.886167936 1320.1487551491477 321.68 C 1320.1487551491477 326.473832064 1316.2629128242022 330.36 1311.469482421875 330.36 C 1306.6760520195478 330.36 1302.7902096946023 326.473832064 1302.7902096946023 321.68 Z" stroke-miterlimit="10"/></g><g transform="translate(-102,-22) scale(1,1)"><path fill="none" stroke="#000000" d="M 1311.469482421875 330.36 L 1311.469482421875 347.64" stroke-miterlimit="10"/></g><g transform="translate(-102,-22) scale(1,1)"><path fill="none" stroke="#000000" d="M 1302.2796642400567 336.84 L 1320.6593006036933 336.84" stroke-miterlimit="10"/></g><g transform="translate(-102,-22) scale(1,1)"><path fill="none" stroke="#000000" d="M 1311.469482421875 347.64 L 1298.7058460582386 365" stroke-miterlimit="10"/></g><g transform="translate(-102,-22) scale(1,1)"><path fill="none" stroke="#000000" d="M 1311.469482421875 347.64 L 1324.2331187855114 365" stroke-miterlimit="10"/></g><g transform="translate(-102,-22) scale(1,1)"><g><path fill="none" stroke="none"/><text fill="#000000" stroke="none" font-family="Arial" font-size="13px" font-style="normal" font-weight="bold" text-decoration="none" x="1218.58740234375" y="385.5">gestionnaire de base de donnée</text></g></g><g transform="translate(-102,-22) scale(1,1)"><path fill="#C0C0C0" stroke="none" d="M 511 328 C 511 318.6111584 557.7862384 311 615.5 311 C 673.2137616 311 720 318.6111584 720 328 C 720 337.3888416 673.2137616 345 615.5 345 C 557.7862384 345 511 337.3888416 511 328 Z" opacity="0.2"/></g><g transform="translate(-102,-22) scale(1,1)"><path fill="#ffffff" stroke="none" d="M 504 321 C 504 311.6111584 550.7862384 304 608.5 304 C 666.2137616 304 713 311.6111584 713 321 C 713 330.3888416 666.2137616 338 608.5 338 C 550.7862384 338 504 330.3888416 504 321 Z"/></g><g transform="translate(-102,-22) scale(1,1)"><path fill="none" stroke="#000000" d="M 504 321 C 504 311.6111584 550.7862384 304 608.5 304 C 666.2137616 304 713 311.6111584 713 321 C 713 330.3888416 666.2137616 338 608.5 338 C 550.7862384 338 504 330.3888416 504 321 Z" stroke-miterlimit="10"/></g><g transform="translate(-102,-22) scale(1,1)"><g><path fill="none" stroke="none"/><text fill="#000000" stroke="none" font-family="Arial" font-size="13px" font-style="normal" font-weight="bold" text-decoration="none" x="543.46826171875" y="328">mettre à jour le réseau</text></g></g><g transform="translate(-102,-22) scale(1,1)"><path fill="none" stroke="#000000" d="M 253 213 L 549 303" stroke-miterlimit="10"/></g><g transform="translate(-102,-22) scale(1,1)"><path fill="#ffffff" stroke="none" d="M 336 240 L 453 240 L 463 250 L 463 302 L 336 302 L 336 240"/></g><g transform="translate(-102,-22) scale(1,1)"><path fill="none" stroke="#000000" d="M 336 240 L 453 240 L 463 250 L 463 302 L 336 302 L 336 240 L 336 240" stroke-miterlimit="10"/></g><g transform="translate(-102,-22) scale(1,1)"><path fill="none" stroke="#000000" d="M 453 240 L 453 250 L 463 250 L 453 240" stroke-miterlimit="10"/></g><g transform="translate(-102,-22) scale(1,1)"><g><path fill="none" stroke="none"/><text fill="#000000" stroke="none" font-family="Arial" font-size="13px" font-style="normal" font-weight="normal" text-decoration="none" x="341" y="258">Condition : si agents</text><text fill="#000000" stroke="none" font-family="Arial" font-size="13px" font-style="normal" font-weight="normal" text-decoration="none" x="341" y="271">présents</text></g></g><g transform="translate(-102,-22) scale(1,1)"><path fill="#C0C0C0" stroke="none" d="M 767 376 C 767 366.6111584 812.4430928 359 868.5 359 C 924.5569072 359 970 366.6111584 970 376 C 970 385.3888416 924.5569072 393 868.5 393 C 812.4430928 393 767 385.3888416 767 376 Z" opacity="0.2"/></g><g transform="translate(-102,-22) scale(1,1)"><path fill="#ffffff" stroke="none" d="M 760 369 C 760 359.6111584 805.4430928 352 861.5 352 C 917.5569072 352 963 359.6111584 963 369 C 963 378.3888416 917.5569072 386 861.5 386 C 805.4430928 386 760 378.3888416 760 369 Z"/></g><g transform="translate(-102,-22) scale(1,1)"><path fill="none" stroke="#000000" d="M 760 369 C 760 359.6111584 805.4430928 352 861.5 352 C 917.5569072 352 963 359.6111584 963 369 C 963 378.3888416 917.5569072 386 861.5 386 C 805.4430928 386 760 378.3888416 760 369 Z" stroke-miterlimit="10"/></g><g transform="translate(-102,-22) scale(1,1)"><g><path fill="none" stroke="none"/><text fill="#000000" stroke="none" font-family="Arial" font-size="13px" font-style="normal" font-weight="bold" text-decoration="none" x="799.365966796875" y="376">chercher mises à jour</text></g></g><g transform="translate(-102,-22) scale(1,1)"><path fill="none" stroke="#000000" d="M 703 339 L 766 351" stroke-miterlimit="10" stroke-dasharray="3"/></g><g transform="translate(-102,-22) scale(1,1)"><path fill="none" stroke="#000000" d="M 755.2291608088152 353.23361212336397 L 766 351 L 756.8044642898723 344.96326884781456" stroke-miterlimit="10"/></g><g transform="translate(-102,-22) scale(1,1)"><g><path fill="none" stroke="none"/><text fill="#000000" stroke="none" font-family="Arial" font-size="13px" font-style="normal" font-weight="normal" text-decoration="none" x="711.5" y="332.5">«include»</text></g></g><g transform="translate(-102,-22) scale(1,1)"><path fill="none" stroke="#000000" d="M 964 365 L 1207 355" stroke-miterlimit="10"/></g><g transform="translate(-102,-22) scale(1,1)"><g><path fill="none" stroke="none"/><text fill="#000000" stroke="none" font-family="Arial" font-size="13px" font-style="normal" font-weight="normal" text-decoration="none" x="1054.550048828125" y="351.5">+interroge</text></g></g><g transform="translate(-102,-22) scale(1,1)"><path fill="#C0C0C0" stroke="none" d="M 783 511 C 783 488.908608 862.9171632 471 961.5 471 C 1060.0828368 471 1140 488.908608 1140 511 C 1140 533.091392 1060.0828368 551 961.5 551 C 862.9171632 551 783 533.091392 783 511 Z" opacity="0.2"/></g><g transform="translate(-102,-22) scale(1,1)"><path fill="#ffffff" stroke="none" d="M 776 504 C 776 481.908608 855.9171632 464 954.5 464 C 1053.0828368 464 1133 481.908608 1133 504 C 1133 526.091392 1053.0828368 544 954.5 544 C 855.9171632 544 776 526.091392 776 504 Z"/></g><g transform="translate(-102,-22) scale(1,1)"><path fill="none" stroke="#000000" d="M 776 504 C 776 481.908608 855.9171632 464 954.5 464 C 1053.0828368 464 1133 481.908608 1133 504 C 1133 526.091392 1053.0828368 544 954.5 544 C 855.9171632 544 776 526.091392 776 504 Z" stroke-miterlimit="10"/></g><g transform="translate(-102,-22) scale(1,1)"><g><path fill="none" stroke="none"/><text fill="#000000" stroke="none" font-family="Arial" font-size="13px" font-style="normal" font-weight="bold" text-decoration="none" x="841.75927734375" y="511">sauvegarder la configuration du réseau</text></g></g><g transform="translate(-102,-22) scale(1,1)"><path fill="none" stroke="#000000" d="M 1069 144 L 967 463" stroke-miterlimit="10"/></g><g transform="translate(-102,-22) scale(1,1)"><path fill="none" stroke="#000000" d="M 1050 463 L 1215 392" stroke-miterlimit="10"/></g><g transform="translate(-102,-22) scale(1,1)"><g><path fill="none" stroke="none"/><text fill="#000000" stroke="none" font-family="Arial" font-size="13px" font-style="normal" font-weight="normal" text-decoration="none" x="1145.5" y="435.5">+enregistre</text></g></g><g transform="translate(-102,-22) scale(1,1)"><path fill="none" stroke="#000000" d="M 714 305 L 1223 231" stroke-miterlimit="10"/></g><g transform="translate(-102,-22) scale(1,1)"><g><path fill="none" stroke="none"/><text fill="#000000" stroke="none" font-family="Arial" font-size="13px" font-style="normal" font-weight="normal" text-decoration="none" x="935.5" y="283.5">+mise à jour</text></g></g><g transform="translate(-102,-22) scale(1,1)"><path fill="#ffffff" stroke="none" d="M 784 264 L 890.54443359375 264 L 900.54443359375 274 L 900.54443359375 313 L 784 313 L 784 264"/></g><g transform="translate(-102,-22) scale(1,1)"><path fill="none" stroke="#000000" d="M 784 264 L 890.54443359375 264 L 900.54443359375 274 L 900.54443359375 313 L 784 313 L 784 264 L 784 264" stroke-miterlimit="10"/></g><g transform="translate(-102,-22) scale(1,1)"><path fill="none" stroke="#000000" d="M 890.54443359375 264 L 890.54443359375 274 L 900.54443359375 274 L 890.54443359375 264" stroke-miterlimit="10"/></g><g transform="translate(-102,-22) scale(1,1)"><g><path fill="none" stroke="none"/><text fill="#000000" stroke="none" font-family="Arial" font-size="13px" font-style="normal" font-weight="normal" text-decoration="none" x="789" y="282">Condition : si mise</text><text fill="#000000" stroke="none" font-family="Arial" font-size="13px" font-style="normal" font-weight="normal" text-decoration="none" x="789" y="295">à jour disponible</text></g></g><g transform="translate(-102,-22) scale(1,1)"><path fill="none" stroke="#000000" d="M 642 339 L 876 463" stroke-miterlimit="10"/></g><g transform="translate(-102,-22) scale(1,1)"><path fill="#C0C0C0" stroke="none" d="M 383 487 C 383 469.3268864 453.2912864 455 540 455 C 626.7087136 455 697 469.3268864 697 487 C 697 504.6731136 626.7087136 519 540 519 C 453.2912864 519 383 504.6731136 383 487 Z" opacity="0.2"/></g><g transform="translate(-102,-22) scale(1,1)"><path fill="#ffffff" stroke="none" d="M 376 480 C 376 462.3268864 446.2912864 448 533 448 C 619.7087136 448 690 462.3268864 690 480 C 690 497.6731136 619.7087136 512 533 512 C 446.2912864 512 376 497.6731136 376 480 Z"/></g><g transform="translate(-102,-22) scale(1,1)"><path fill="none" stroke="#000000" d="M 376 480 C 376 462.3268864 446.2912864 448 533 448 C 619.7087136 448 690 462.3268864 690 480 C 690 497.6731136 619.7087136 512 533 512 C 446.2912864 512 376 497.6731136 376 480 Z" stroke-miterlimit="10"/></g><g transform="translate(-102,-22) scale(1,1)"><g><path fill="none" stroke="none"/><text fill="#000000" stroke="none" font-family="Arial" font-size="13px" font-style="normal" font-weight="bold" text-decoration="none" x="432.9228515625" y="487">créer ou recréer la carte du réseau</text></g></g><g transform="translate(-102,-22) scale(1,1)"><path fill="none" stroke="#000000" d="M 600 339 L 549 447" stroke-miterlimit="10"/></g><g transform="translate(-102,-22) scale(1,1)"><path fill="none" stroke="#000000" d="M 493 447 L 232 232" stroke-miterlimit="10"/></g><g transform="translate(-102,-22) scale(1,1)"><g><path fill="none" stroke="none"/><text fill="#000000" stroke="none" font-family="Arial" font-size="13px" font-style="normal" font-weight="normal" text-decoration="none" x="253.888671875" y="324.5">+afficher</text></g></g></g></svg>