<svg version="1.1" xmlns="http://www.w3.org/2000/svg" xmlns:xlink="http://www.w3.org/1999/xlink" width="475" height="427"><defs/><g><g transform="translate(-182,-94) scale(1,1)"><rect fill="#C0C0C0" stroke="none" x="215" y="111" width="89.91357421875" height="72" opacity="0.2"/></g><g transform="translate(-182,-94) scale(1,1)"><rect fill="#ffffff" stroke="none" x="208" y="104" width="89.91357421875" height="72"/></g><g transform="translate(-182,-94) scale(1,1)"><path fill="none" stroke="#000000" d="M 208 104 L 297.91357421875 104 L 297.91357421875 176 L 208 176 L 208 104 Z Z" stroke-miterlimit="10"/></g><g transform="translate(-182,-94) scale(1,1)"><rect fill="#ffffff" stroke="none" x="208" y="104" width="89.91357421875" height="72"/></g><g transform="translate(-182,-94) scale(1,1)"><path fill="none" stroke="#000000" d="M 208 104 L 297.91357421875 104 L 297.91357421875 176 L 208 176 L 208 104 Z Z" stroke-miterlimit="10"/></g><g transform="translate(-182,-94) scale(1,1)"><g><path fill="none" stroke="none"/><text fill="#000000" stroke="none" font-family="Arial" font-size="13px" font-style="normal" font-weight="bold" text-decoration="none" x="215.02001953125" y="123.5">SSLExecutor</text><path fill="none" stroke="#000000" d="M 293.41357421875 123.5 L 212.5 123.5" stroke-miterlimit="10"/></g></g><g transform="translate(-182,-94) scale(1,1)"><path fill="#C0C0C0" stroke="none" d="M 236.639501953125 279 L 264.07950195312503 279 L 275.839501953125 290.76 L 275.839501953125 328 L 236.639501953125 328" opacity="0.2"/></g><g transform="translate(-182,-94) scale(1,1)"><path fill="#ffffff" stroke="none" d="M 229.63950195312498 272 L 257.07950195312503 272 L 268.839501953125 283.76 L 268.839501953125 321 L 229.63950195312498 321"/></g><g transform="translate(-182,-94) scale(1,1)"><path fill="none" stroke="#000000" d="M 229.63950195312498 272 L 257.07950195312503 272 L 268.839501953125 283.76 L 268.839501953125 321 L 229.63950195312498 321 L 229.63950195312498 272" stroke-miterlimit="10"/></g><g transform="translate(-182,-94) scale(1,1)"><path fill="none" stroke="#000000" d="M 257.07950195312503 272 L 257.07950195312503 283.76 L 268.839501953125 283.76 L 257.07950195312503 272" stroke-miterlimit="10"/></g><g transform="translate(-182,-94) scale(1,1)"><g><path fill="none" stroke="none"/><text fill="#000000" stroke="none" font-family="Arial" font-size="13px" font-style="normal" font-weight="bold" text-decoration="none" x="207.694091796875" y="340.5">SSLCertificate</text><path fill="none" stroke="#000000" d="M 293.669921875 340.5 L 204.80908203125 340.5" stroke-miterlimit="10"/></g></g><g transform="translate(-182,-94) scale(1,1)"><path fill="none" stroke="#000000" d="M 250 271 L 251 177" stroke-miterlimit="10"/></g><g transform="translate(-182,-94) scale(1,1)"><rect fill="#C0C0C0" stroke="none" x="409" y="111" width="245" height="80" opacity="0.2"/></g><g transform="translate(-182,-94) scale(1,1)"><rect fill="#ffffff" stroke="none" x="402" y="104" width="245" height="80"/></g><g transform="translate(-182,-94) scale(1,1)"><path fill="none" stroke="#000000" d="M 402 104 L 647 104 L 647 184 L 402 184 L 402 104 Z Z" stroke-miterlimit="10"/></g><g transform="translate(-182,-94) scale(1,1)"><rect fill="#ffffff" stroke="none" x="392" y="111" width="20" height="10"/></g><g transform="translate(-182,-94) scale(1,1)"><path fill="none" stroke="#000000" d="M 392 111 L 412 111 L 412 121 L 392 121 L 392 111 Z Z" stroke-miterlimit="10"/></g><g transform="translate(-182,-94) scale(1,1)"><rect fill="#ffffff" stroke="none" x="392" y="131" width="20" height="10"/></g><g transform="translate(-182,-94) scale(1,1)"><path fill="none" stroke="#000000" d="M 392 131 L 412 131 L 412 141 L 392 141 L 392 131 Z Z" stroke-miterlimit="10"/></g><g transform="translate(-182,-94) scale(1,1)"><g><path fill="none" stroke="none"/><text fill="#000000" stroke="none" font-family="Arial" font-size="13px" font-style="normal" font-weight="bold" text-decoration="none" x="512.8818359375" y="123.5">Client</text><path fill="none" stroke="#000000" d="M 547.555908203125 123.5 L 511.444091796875 123.5" stroke-miterlimit="10"/></g></g><g transform="translate(-182,-94) scale(1,1)"><path fill="none" stroke="#000000" d="M 299 141 L 391 142" stroke-miterlimit="10"/></g><g transform="translate(-182,-94) scale(1,1)"><rect fill="#C0C0C0" stroke="none" x="409" y="423" width="245" height="95" opacity="0.2"/></g><g transform="translate(-182,-94) scale(1,1)"><rect fill="#ffffff" stroke="none" x="402" y="416" width="245" height="95"/></g><g transform="translate(-182,-94) scale(1,1)"><path fill="none" stroke="#000000" d="M 402 416 L 647 416 L 647 511 L 402 511 L 402 416 Z Z" stroke-miterlimit="10"/></g><g transform="translate(-182,-94) scale(1,1)"><rect fill="#ffffff" stroke="none" x="392" y="423" width="20" height="10"/></g><g transform="translate(-182,-94) scale(1,1)"><path fill="none" stroke="#000000" d="M 392 423 L 412 423 L 412 433 L 392 433 L 392 423 Z Z" stroke-miterlimit="10"/></g><g transform="translate(-182,-94) scale(1,1)"><rect fill="#ffffff" stroke="none" x="392" y="443" width="20" height="10"/></g><g transform="translate(-182,-94) scale(1,1)"><path fill="none" stroke="#000000" d="M 392 443 L 412 443 L 412 453 L 392 453 L 392 443 Z Z" stroke-miterlimit="10"/></g><g transform="translate(-182,-94) scale(1,1)"><g><path fill="none" stroke="none"/><text fill="#000000" stroke="none" font-family="Arial" font-size="13px" font-style="normal" font-weight="bold" text-decoration="none" x="512.513671875" y="435.5">Agent</text><path fill="none" stroke="#000000" d="M 547.91455078125 435.5 L 511.08544921875 435.5" stroke-miterlimit="10"/></g></g><g transform="translate(-182,-94) scale(1,1)"><path fill="none" stroke="#000000" d="M 519 185 L 519 415" stroke-miterlimit="10"/></g><g transform="translate(-182,-94) scale(1,1)"><path fill="none" stroke="#000000" d="M 514.790482243984 404.83732514237585 L 519 415 L 523.209517756016 404.83732514237585" stroke-miterlimit="10"/></g><g transform="translate(-182,-94) scale(1,1)"><g><path fill="none" stroke="none"/><text fill="#000000" stroke="none" font-family="Arial" font-size="13px" font-style="normal" font-weight="normal" text-decoration="none" x="483.5" y="305.5">+send certificates</text></g></g></g></svg>