<svg version="1.1" xmlns="http://www.w3.org/2000/svg" xmlns:xlink="http://www.w3.org/1999/xlink" width="748" height="614"><defs/><g><g transform="translate(10,2) scale(1,1)"><path fill="none" stroke="#000000" d="M 0 8 L 728 8 L 728 602 L 0 602 L 0 8" stroke-miterlimit="10"/></g><g transform="translate(10,2) scale(1,1)"><path fill="#ffffff" stroke="none" d="M 0 8 L 0 30 L 221.232421875 30 L 232.232421875 19 L 232.232421875 8 L 0 8"/></g><g transform="translate(10,2) scale(1,1)"><path fill="none" stroke="#000000" d="M 0 8 L 0 30 L 221.232421875 30 L 232.232421875 19 L 232.232421875 8 L 0 8 L 0 8" stroke-miterlimit="10"/></g><g transform="translate(10,2) scale(1,1)"><g><path fill="none" stroke="none"/><text fill="#000000" stroke="none" font-family="Arial" font-size="13px" font-style="normal" font-weight="normal" text-decoration="none" x="70.97900390625" y="25.5">SSL Handshake Protocol</text></g></g><g transform="translate(10,2) scale(1,1)"><g><path fill="none" stroke="none"/><text fill="#000000" stroke="none" font-family="Arial" font-size="13px" font-style="normal" font-weight="bold" text-decoration="none" x="5" y="25.5">interaction</text></g></g><g transform="translate(10,2) scale(1,1)"><rect fill="#C0C0C0" stroke="none" x="223" y="47" width="172.86083984375" height="39" opacity="0.2"/></g><g transform="translate(10,2) scale(1,1)"><rect fill="#ffffff" stroke="none" x="216" y="40" width="172.86083984375" height="39"/></g><g transform="translate(10,2) scale(1,1)"><path fill="none" stroke="#000000" d="M 216 40 L 388.86083984375 40 L 388.86083984375 79 L 216 79 L 216 40 Z Z" stroke-miterlimit="10"/></g><g transform="translate(10,2) scale(1,1)"><g><path fill="none" stroke="none"/><text fill="#000000" stroke="none" font-family="Arial" font-size="13px" font-style="normal" font-weight="bold" text-decoration="none" x="230.524169921875" y="59.5">SSL Handshake protocol</text></g></g><g transform="translate(10,2) scale(1,1)"><path fill="none" stroke="#000000" d="M 303.5 80 L 303.5 600" stroke-miterlimit="10" stroke-dasharray="3"/></g><g transform="translate(10,2) scale(1,1)"><rect fill="#C0C0C0" stroke="none" x="55" y="47" width="71.736328125" height="39" opacity="0.2"/></g><g transform="translate(10,2) scale(1,1)"><rect fill="#ffffff" stroke="none" x="48" y="40" width="71.736328125" height="39"/></g><g transform="translate(10,2) scale(1,1)"><path fill="none" stroke="#000000" d="M 48 40 L 119.736328125 40 L 119.736328125 79 L 48 79 L 48 40 Z Z" stroke-miterlimit="10"/></g><g transform="translate(10,2) scale(1,1)"><g><path fill="none" stroke="none"/><text fill="#000000" stroke="none" font-family="Arial" font-size="13px" font-style="normal" font-weight="bold" text-decoration="none" x="67.25" y="59.5">Client</text></g></g><g transform="translate(10,2) scale(1,1)"><path fill="none" stroke="#000000" d="M 84.5 80 L 84.5 600" stroke-miterlimit="10" stroke-dasharray="3"/></g><g transform="translate(10,2) scale(1,1)"><rect fill="#C0C0C0" stroke="none" x="503" y="47" width="79" height="39" opacity="0.2"/></g><g transform="translate(10,2) scale(1,1)"><rect fill="#ffffff" stroke="none" x="496" y="40" width="79" height="39"/></g><g transform="translate(10,2) scale(1,1)"><path fill="none" stroke="#000000" d="M 496 40 L 575 40 L 575 79 L 496 79 L 496 40 Z Z" stroke-miterlimit="10"/></g><g transform="translate(10,2) scale(1,1)"><g><path fill="none" stroke="none"/><text fill="#000000" stroke="none" font-family="Arial" font-size="13px" font-style="normal" font-weight="bold" text-decoration="none" x="516.35546875" y="59.5">Server</text></g></g><g transform="translate(10,2) scale(1,1)"><path fill="none" stroke="#000000" d="M 536.5 80 L 536.5 600" stroke-miterlimit="10" stroke-dasharray="3"/></g><g transform="translate(10,2) scale(1,1)"><g><path fill="none" stroke="none"/><text fill="#000000" stroke="none" font-family="Arial" font-size="13px" font-style="normal" font-weight="normal" text-decoration="none" x="159.582275390625" y="110.5">1 : sendHello</text></g></g><g transform="translate(10,2) scale(1,1)"><path fill="none" stroke="#000000" d="M 84 115 L 529 115" stroke-miterlimit="10"/></g><g transform="translate(10,2) scale(1,1)"><path fill="#000000" stroke="none" d="M 518.8373251423759 119.20951775601598 L 529 115 L 518.8373251423758 110.79048224398402"/></g><g transform="translate(10,2) scale(1,1)"><path fill="none" stroke="#000000" d="M 518.8373251423759 119.20951775601598 L 529 115 L 518.8373251423758 110.79048224398402 L 518.8373251423759 119.20951775601598" stroke-miterlimit="10"/></g><g transform="translate(10,2) scale(1,1)"><g><path fill="none" stroke="none"/><text fill="#000000" stroke="none" font-family="Arial" font-size="13px" font-style="normal" font-weight="normal" text-decoration="none" x="159.582275390625" y="110.5">1 : sendHello</text></g></g><g transform="translate(10,2) scale(1,1)"><rect fill="#ffffff" stroke="none" x="529" y="115" width="13" height="28"/></g><g transform="translate(10,2) scale(1,1)"><path fill="none" stroke="#000000" d="M 529 115 L 542 115 L 542 143 L 529 143 L 529 115 Z Z" stroke-miterlimit="10"/></g><g transform="translate(10,2) scale(1,1)"><path fill="none" stroke="#000000" d="M 536 145 L 90 145" stroke-miterlimit="10"/></g><g transform="translate(10,2) scale(1,1)"><path fill="#000000" stroke="none" d="M 100.16267485762415 140.790482243984 L 90 145 L 100.16267485762415 149.209517756016"/></g><g transform="translate(10,2) scale(1,1)"><path fill="none" stroke="#000000" d="M 100.16267485762415 140.790482243984 L 90 145 L 100.16267485762415 149.209517756016 L 100.16267485762415 140.790482243984" stroke-miterlimit="10"/></g><g transform="translate(10,2) scale(1,1)"><g><path fill="none" stroke="none"/><text fill="#000000" stroke="none" font-family="Arial" font-size="13px" font-style="normal" font-weight="normal" text-decoration="none" x="383.582275390625" y="160.5">2 : sendHello</text></g></g><g transform="translate(10,2) scale(1,1)"><rect fill="#ffffff" stroke="none" x="77" y="145" width="13" height="55"/></g><g transform="translate(10,2) scale(1,1)"><path fill="none" stroke="#000000" d="M 77 145 L 90 145 L 90 200 L 77 200 L 77 145 Z Z" stroke-miterlimit="10"/></g><g transform="translate(10,2) scale(1,1)"><path fill="none" stroke="#000000" d="M 90 192 L 529 192" stroke-miterlimit="10"/></g><g transform="translate(10,2) scale(1,1)"><path fill="#000000" stroke="none" d="M 518.8373251423759 196.209517756016 L 529 192 L 518.8373251423758 187.790482243984"/></g><g transform="translate(10,2) scale(1,1)"><path fill="none" stroke="#000000" d="M 518.8373251423759 196.209517756016 L 529 192 L 518.8373251423758 187.790482243984 L 518.8373251423759 196.209517756016" stroke-miterlimit="10"/></g><g transform="translate(10,2) scale(1,1)"><g><path fill="none" stroke="none"/><text fill="#000000" stroke="none" font-family="Arial" font-size="13px" font-style="normal" font-weight="normal" text-decoration="none" x="135.5" y="187.5">3 : requestCertificate</text></g></g><g transform="translate(10,2) scale(1,1)"><rect fill="#ffffff" stroke="none" x="529" y="192" width="13" height="32"/></g><g transform="translate(10,2) scale(1,1)"><path fill="none" stroke="#000000" d="M 529 192 L 542 192 L 542 224 L 529 224 L 529 192 Z Z" stroke-miterlimit="10"/></g><g transform="translate(10,2) scale(1,1)"><path fill="none" stroke="#000000" d="M 529 223 L 90 223" stroke-miterlimit="10"/></g><g transform="translate(10,2) scale(1,1)"><path fill="#000000" stroke="none" d="M 100.16267485762415 218.790482243984 L 90 223 L 100.16267485762415 227.209517756016"/></g><g transform="translate(10,2) scale(1,1)"><path fill="none" stroke="#000000" d="M 100.16267485762415 218.790482243984 L 90 223 L 100.16267485762415 227.209517756016 L 100.16267485762415 218.790482243984" stroke-miterlimit="10"/></g><g transform="translate(10,2) scale(1,1)"><g><path fill="none" stroke="none"/><text fill="#000000" stroke="none" font-family="Arial" font-size="13px" font-style="normal" font-weight="normal" text-decoration="none" x="366.5" y="243.5">4 : sendCertificate</text></g></g><g transform="translate(10,2) scale(1,1)"><rect fill="#ffffff" stroke="none" x="77" y="223" width="13" height="33"/></g><g transform="translate(10,2) scale(1,1)"><path fill="none" stroke="#000000" d="M 77 223 L 90 223 L 90 256 L 77 256 L 77 223 Z Z" stroke-miterlimit="10"/></g><g transform="translate(10,2) scale(1,1)"><path fill="none" stroke="#000000" d="M 90 248 L 120 248 L 120 268 L 90 268" stroke-miterlimit="10"/></g><g transform="translate(10,2) scale(1,1)"><path fill="#000000" stroke="none" d="M 100.16267485762415 263.790482243984 L 90 268 L 100.16267485762415 272.209517756016"/></g><g transform="translate(10,2) scale(1,1)"><path fill="none" stroke="#000000" d="M 100.16267485762415 263.790482243984 L 90 268 L 100.16267485762415 272.209517756016 L 100.16267485762415 263.790482243984" stroke-miterlimit="10"/></g><g transform="translate(10,2) scale(1,1)"><g><path fill="none" stroke="none"/><text fill="#000000" stroke="none" font-family="Arial" font-size="13px" font-style="normal" font-weight="normal" text-decoration="none" x="127.17822265625" y="263.5">5 : verifyCertificate</text></g></g><g transform="translate(10,2) scale(1,1)"><rect fill="#ffffff" stroke="none" x="77" y="268" width="13" height="28"/></g><g transform="translate(10,2) scale(1,1)"><path fill="none" stroke="#000000" d="M 77 268 L 90 268 L 90 296 L 77 296 L 77 268 Z Z" stroke-miterlimit="10"/></g><g transform="translate(10,2) scale(1,1)"><path fill="none" stroke="#000000" d="M 84 304 L 529 304" stroke-miterlimit="10"/></g><g transform="translate(10,2) scale(1,1)"><path fill="#000000" stroke="none" d="M 518.8373251423759 308.209517756016 L 529 304 L 518.8373251423758 299.790482243984"/></g><g transform="translate(10,2) scale(1,1)"><path fill="none" stroke="#000000" d="M 518.8373251423759 308.209517756016 L 529 304 L 518.8373251423758 299.790482243984 L 518.8373251423759 308.209517756016" stroke-miterlimit="10"/></g><g transform="translate(10,2) scale(1,1)"><g><path fill="none" stroke="none"/><text fill="#000000" stroke="none" font-family="Arial" font-size="13px" font-style="normal" font-weight="normal" text-decoration="none" x="126.5" y="324.5">6 : sendCertificate</text></g></g><g transform="translate(10,2) scale(1,1)"><rect fill="#ffffff" stroke="none" x="529" y="304" width="13" height="28"/></g><g transform="translate(10,2) scale(1,1)"><path fill="none" stroke="#000000" d="M 529 304 L 542 304 L 542 332 L 529 332 L 529 304 Z Z" stroke-miterlimit="10"/></g><g transform="translate(10,2) scale(1,1)"><path fill="none" stroke="#000000" d="M 542 320 L 572 320 L 572 340 L 542 340" stroke-miterlimit="10"/></g><g transform="translate(10,2) scale(1,1)"><path fill="#000000" stroke="none" d="M 552.1626748576241 335.790482243984 L 542 340 L 552.1626748576241 344.209517756016"/></g><g transform="translate(10,2) scale(1,1)"><path fill="none" stroke="#000000" d="M 552.1626748576241 335.790482243984 L 542 340 L 552.1626748576241 344.209517756016 L 552.1626748576241 335.790482243984" stroke-miterlimit="10"/></g><g transform="translate(10,2) scale(1,1)"><g><path fill="none" stroke="none"/><text fill="#000000" stroke="none" font-family="Arial" font-size="13px" font-style="normal" font-weight="normal" text-decoration="none" x="574.17822265625" y="340.5">7 : verifyCertificate</text></g></g><g transform="translate(10,2) scale(1,1)"><rect fill="#ffffff" stroke="none" x="529" y="340" width="13" height="28"/></g><g transform="translate(10,2) scale(1,1)"><path fill="none" stroke="#000000" d="M 529 340 L 542 340 L 542 368 L 529 368 L 529 340 Z Z" stroke-miterlimit="10"/></g><g transform="translate(10,2) scale(1,1)"><path fill="none" stroke="#000000" d="M 84 381 L 529 381" stroke-miterlimit="10"/></g><g transform="translate(10,2) scale(1,1)"><path fill="#000000" stroke="none" d="M 518.8373251423759 385.209517756016 L 529 381 L 518.8373251423758 376.790482243984"/></g><g transform="translate(10,2) scale(1,1)"><path fill="none" stroke="#000000" d="M 518.8373251423759 385.209517756016 L 529 381 L 518.8373251423758 376.790482243984 L 518.8373251423759 385.209517756016" stroke-miterlimit="10"/></g><g transform="translate(10,2) scale(1,1)"><g><path fill="none" stroke="none"/><text fill="#000000" stroke="none" font-family="Arial" font-size="13px" font-style="normal" font-weight="normal" text-decoration="none" x="124.5" y="371.5">8 : sendSecret</text></g></g><g transform="translate(10,2) scale(1,1)"><rect fill="#ffffff" stroke="none" x="529" y="381" width="13" height="28"/></g><g transform="translate(10,2) scale(1,1)"><path fill="none" stroke="#000000" d="M 529 381 L 542 381 L 542 409 L 529 409 L 529 381 Z Z" stroke-miterlimit="10"/></g><g transform="translate(10,2) scale(1,1)"><path fill="none" stroke="#000000" d="M 542 392 L 572 392 L 572 412 L 542 412" stroke-miterlimit="10"/></g><g transform="translate(10,2) scale(1,1)"><path fill="#000000" stroke="none" d="M 552.1626748576241 407.790482243984 L 542 412 L 552.1626748576241 416.209517756016"/></g><g transform="translate(10,2) scale(1,1)"><path fill="none" stroke="#000000" d="M 552.1626748576241 407.790482243984 L 542 412 L 552.1626748576241 416.209517756016 L 552.1626748576241 407.790482243984" stroke-miterlimit="10"/></g><g transform="translate(10,2) scale(1,1)"><g><path fill="none" stroke="none"/><text fill="#000000" stroke="none" font-family="Arial" font-size="13px" font-style="normal" font-weight="normal" text-decoration="none" x="577.114990234375" y="407.5">9 : handshakeCompleted</text></g></g><g transform="translate(10,2) scale(1,1)"><rect fill="#ffffff" stroke="none" x="529" y="412" width="13" height="28"/></g><g transform="translate(10,2) scale(1,1)"><path fill="none" stroke="#000000" d="M 529 412 L 542 412 L 542 440 L 529 440 L 529 412 Z Z" stroke-miterlimit="10"/></g><g transform="translate(10,2) scale(1,1)"><path fill="none" stroke="#000000" d="M 84 408 L 114 408 L 114 428 L 90 428" stroke-miterlimit="10"/></g><g transform="translate(10,2) scale(1,1)"><path fill="#000000" stroke="none" d="M 100.16267485762415 423.790482243984 L 90 428 L 100.16267485762415 432.209517756016"/></g><g transform="translate(10,2) scale(1,1)"><path fill="none" stroke="#000000" d="M 100.16267485762415 423.790482243984 L 90 428 L 100.16267485762415 432.209517756016 L 100.16267485762415 423.790482243984" stroke-miterlimit="10"/></g><g transform="translate(10,2) scale(1,1)"><g><path fill="none" stroke="none"/><text fill="#000000" stroke="none" font-family="Arial" font-size="13px" font-style="normal" font-weight="normal" text-decoration="none" x="123.5" y="423.5">10 : handshakeCompleted</text></g></g><g transform="translate(10,2) scale(1,1)"><rect fill="#ffffff" stroke="none" x="77" y="428" width="13" height="28"/></g><g transform="translate(10,2) scale(1,1)"><path fill="none" stroke="#000000" d="M 77 428 L 90 428 L 90 456 L 77 456 L 77 428 Z Z" stroke-miterlimit="10"/></g></g></svg>