<svg version="1.1" xmlns="http://www.w3.org/2000/svg" xmlns:xlink="http://www.w3.org/1999/xlink" width="981.30712890625" height="1028"><defs/><g><g transform="translate(-190,-94) scale(1,1)"><rect fill="#C0C0C0" stroke="none" x="215" y="439" width="248" height="176" opacity="0.2"/></g><g transform="translate(-190,-94) scale(1,1)"><rect fill="#ffffff" stroke="none" x="208" y="432" width="248" height="176"/></g><g transform="translate(-190,-94) scale(1,1)"><path fill="none" stroke="#000000" d="M 208 432 L 456 432 L 456 608 L 208 608 L 208 432 Z Z" stroke-miterlimit="10"/></g><g transform="translate(-190,-94) scale(1,1)"><path fill="none" stroke="#000000" d="M 208 457 L 456 457" stroke-miterlimit="10"/></g><g transform="translate(-190,-94) scale(1,1)"><path fill="none" stroke="#000000" d="M 208 467 L 456 467" stroke-miterlimit="10"/></g><g transform="translate(-190,-94) scale(1,1)"><g><path fill="none" stroke="none"/><text fill="#000000" stroke="none" font-family="Arial" font-size="13px" font-style="normal" font-weight="bold" text-decoration="none" x="315.3818359375" y="451.5">Client</text></g></g><g transform="translate(-190,-94) scale(1,1)"><g><path fill="none" stroke="none"/><text fill="#000000" stroke="none" font-family="Arial" font-size="13px" font-style="normal" font-weight="normal" text-decoration="none" x="213" y="484.5">+authenticate(LoginRequest)</text></g></g><g transform="translate(-190,-94) scale(1,1)"><rect fill="#C0C0C0" stroke="none" x="631" y="455" width="312" height="152" opacity="0.2"/></g><g transform="translate(-190,-94) scale(1,1)"><rect fill="#ffffff" stroke="none" x="624" y="448" width="312" height="152"/></g><g transform="translate(-190,-94) scale(1,1)"><path fill="none" stroke="#000000" d="M 624 448 L 936 448 L 936 600 L 624 600 L 624 448 Z Z" stroke-miterlimit="10"/></g><g transform="translate(-190,-94) scale(1,1)"><path fill="none" stroke="#000000" d="M 624 473 L 936 473" stroke-miterlimit="10"/></g><g transform="translate(-190,-94) scale(1,1)"><path fill="none" stroke="#000000" d="M 624 483 L 936 483" stroke-miterlimit="10"/></g><g transform="translate(-190,-94) scale(1,1)"><g><path fill="none" stroke="none"/><text fill="#000000" stroke="none" font-family="Arial" font-size="13px" font-style="normal" font-weight="bold" text-decoration="none" x="756.161376953125" y="467.5">Network</text></g></g><g transform="translate(-190,-94) scale(1,1)"><g><path fill="none" stroke="none"/><text fill="#000000" stroke="none" font-family="Arial" font-size="13px" font-style="normal" font-weight="normal" text-decoration="none" x="629" y="500.5">+connect()</text></g></g><g transform="translate(-190,-94) scale(1,1)"><g><path fill="none" stroke="none"/><text fill="#000000" stroke="none" font-family="Arial" font-size="13px" font-style="normal" font-weight="normal" text-decoration="none" x="629" y="515.5">+read()</text></g></g><g transform="translate(-190,-94) scale(1,1)"><g><path fill="none" stroke="none"/><text fill="#000000" stroke="none" font-family="Arial" font-size="13px" font-style="normal" font-weight="normal" text-decoration="none" x="629" y="530.5">+write()</text></g></g><g transform="translate(-190,-94) scale(1,1)"><path fill="none" stroke="#000000" d="M 623 523 L 457 521" stroke-miterlimit="10"/></g><g transform="translate(-190,-94) scale(1,1)"><path fill="#000000" stroke="none" d="M 467.212650737095 516.9132207152682 L 457 521 L 467.11122393553626 525.331645244643 L 478.9984034253762 521.265041005125"/></g><g transform="translate(-190,-94) scale(1,1)"><path fill="none" stroke="#000000" d="M 467.212650737095 516.9132207152682 L 457 521 L 467.11122393553626 525.331645244643 L 478.9984034253762 521.265041005125 L 467.212650737095 516.9132207152682" stroke-miterlimit="10"/></g><g transform="translate(-190,-94) scale(1,1)"><g><path fill="none" stroke="none"/><text fill="#000000" stroke="none" font-family="Arial" font-size="13px" font-style="normal" font-weight="normal" text-decoration="none" x="502.5" y="542.5">+composites</text></g></g><g transform="translate(-190,-94) scale(1,1)"><g><path fill="none" stroke="none"/><text fill="#000000" stroke="none" font-family="Arial" font-size="13px" font-style="normal" font-weight="normal" text-decoration="none" x="589.658203125" y="516.5">0..1</text></g></g><g transform="translate(-190,-94) scale(1,1)"><g><path fill="none" stroke="none"/><text fill="#000000" stroke="none" font-family="Arial" font-size="13px" font-style="normal" font-weight="normal" text-decoration="none" x="473.885009765625" y="514.5">1</text></g></g><g transform="translate(-190,-94) scale(1,1)"><rect fill="#C0C0C0" stroke="none" x="215" y="711" width="224" height="152" opacity="0.2"/></g><g transform="translate(-190,-94) scale(1,1)"><rect fill="#ffffff" stroke="none" x="208" y="704" width="224" height="152"/></g><g transform="translate(-190,-94) scale(1,1)"><path fill="none" stroke="#000000" d="M 208 704 L 432 704 L 432 856 L 208 856 L 208 704 Z Z" stroke-miterlimit="10"/></g><g transform="translate(-190,-94) scale(1,1)"><path fill="none" stroke="#000000" d="M 208 729 L 432 729" stroke-miterlimit="10"/></g><g transform="translate(-190,-94) scale(1,1)"><path fill="none" stroke="#000000" d="M 208 739 L 432 739" stroke-miterlimit="10"/></g><g transform="translate(-190,-94) scale(1,1)"><g><path fill="none" stroke="none"/><text fill="#000000" stroke="none" font-family="Arial" font-size="13px" font-style="normal" font-weight="bold" text-decoration="none" x="280.984130859375" y="723.5">UserInterface</text></g></g><g transform="translate(-190,-94) scale(1,1)"><path fill="none" stroke="#000000" d="M 324 703 L 328 609" stroke-miterlimit="10"/></g><g transform="translate(-190,-94) scale(1,1)"><path fill="#000000" stroke="none" d="M 331.7736484395953 619.3324526349913 L 328 609 L 323.36222507696067 618.9745197259431 L 327.0646762342541 630.9801084950286"/></g><g transform="translate(-190,-94) scale(1,1)"><path fill="none" stroke="#000000" d="M 331.7736484395953 619.3324526349913 L 328 609 L 323.36222507696067 618.9745197259431 L 327.0646762342541 630.9801084950286 L 331.7736484395953 619.3324526349913" stroke-miterlimit="10"/></g><g transform="translate(-190,-94) scale(1,1)"><g><path fill="none" stroke="none"/><text fill="#000000" stroke="none" font-family="Arial" font-size="13px" font-style="normal" font-weight="normal" text-decoration="none" x="274.5" y="661.5">+composites</text></g></g><g transform="translate(-190,-94) scale(1,1)"><g><path fill="none" stroke="none"/><text fill="#000000" stroke="none" font-family="Arial" font-size="13px" font-style="normal" font-weight="normal" text-decoration="none" x="332.885009765625" y="687.5">1</text></g></g><g transform="translate(-190,-94) scale(1,1)"><g><path fill="none" stroke="none"/><text fill="#000000" stroke="none" font-family="Arial" font-size="13px" font-style="normal" font-weight="normal" text-decoration="none" x="334.885009765625" y="637.5">1</text></g></g><g transform="translate(-190,-94) scale(1,1)"><rect fill="#C0C0C0" stroke="none" x="207" y="959" width="239" height="159" opacity="0.2"/></g><g transform="translate(-190,-94) scale(1,1)"><rect fill="#ffffff" stroke="none" x="200" y="952" width="239" height="159"/></g><g transform="translate(-190,-94) scale(1,1)"><path fill="none" stroke="#000000" d="M 200 952 L 439 952 L 439 1111 L 200 1111 L 200 952 Z Z" stroke-miterlimit="10"/></g><g transform="translate(-190,-94) scale(1,1)"><path fill="none" stroke="#000000" d="M 200 977 L 439 977" stroke-miterlimit="10"/></g><g transform="translate(-190,-94) scale(1,1)"><path fill="none" stroke="#000000" d="M 200 987 L 439 987" stroke-miterlimit="10"/></g><g transform="translate(-190,-94) scale(1,1)"><g><path fill="none" stroke="none"/><text fill="#000000" stroke="none" font-family="Arial" font-size="13px" font-style="normal" font-weight="bold" text-decoration="none" x="273.619140625" y="971.5">RequestFactory</text></g></g><g transform="translate(-190,-94) scale(1,1)"><g><path fill="none" stroke="none"/><text fill="#000000" stroke="none" font-family="Arial" font-size="13px" font-style="normal" font-weight="normal" text-decoration="none" x="205" y="1004.5">+createRequest(): IRequest</text></g></g><g transform="translate(-190,-94) scale(1,1)"><path fill="#C0C0C0" stroke="none" d="M 678.7099609375 770.5 C 678.7099609375 764.1487248 683.8586857375 759 690.2099609375 759 C 696.5612361375 759 701.7099609375 764.1487248 701.7099609375 770.5 C 701.7099609375 776.8512752 696.5612361375 782 690.2099609375 782 C 683.8586857375 782 678.7099609375 776.8512752 678.7099609375 770.5 Z" opacity="0.2"/></g><g transform="translate(-190,-94) scale(1,1)"><path fill="#ffffff" stroke="none" d="M 671.7099609375 763.5 C 671.7099609375 757.1487248 676.8586857375 752 683.2099609375 752 C 689.5612361375 752 694.7099609375 757.1487248 694.7099609375 763.5 C 694.7099609375 769.8512752 689.5612361375 775 683.2099609375 775 C 676.8586857375 775 671.7099609375 769.8512752 671.7099609375 763.5 Z"/></g><g transform="translate(-190,-94) scale(1,1)"><path fill="none" stroke="#000000" d="M 671.7099609375 763.5 C 671.7099609375 757.1487248 676.8586857375 752 683.2099609375 752 C 689.5612361375 752 694.7099609375 757.1487248 694.7099609375 763.5 C 694.7099609375 769.8512752 689.5612361375 775 683.2099609375 775 C 676.8586857375 775 671.7099609375 769.8512752 671.7099609375 763.5 Z" stroke-miterlimit="10"/></g><g transform="translate(-190,-94) scale(1,1)"><g><path fill="none" stroke="none"/><text fill="#000000" stroke="none" font-family="Arial" font-size="13px" font-style="normal" font-weight="bold" text-decoration="none" x="657.194091796875" y="794.5">IRequest</text></g></g><g transform="translate(-190,-94) scale(1,1)"><rect fill="#C0C0C0" stroke="none" x="639" y="903" width="96" height="57" opacity="0.2"/></g><g transform="translate(-190,-94) scale(1,1)"><rect fill="#ffffff" stroke="none" x="632" y="896" width="96" height="57"/></g><g transform="translate(-190,-94) scale(1,1)"><path fill="none" stroke="#000000" d="M 632 896 L 728 896 L 728 953 L 632 953 L 632 896 Z Z" stroke-miterlimit="10"/></g><g transform="translate(-190,-94) scale(1,1)"><path fill="none" stroke="#000000" d="M 632 921 L 728 921" stroke-miterlimit="10"/></g><g transform="translate(-190,-94) scale(1,1)"><path fill="none" stroke="#000000" d="M 632 944 L 728 944" stroke-miterlimit="10"/></g><g transform="translate(-190,-94) scale(1,1)"><g><path fill="none" stroke="none"/><text fill="#000000" stroke="none" font-family="Arial" font-size="13px" font-style="normal" font-weight="bold" text-decoration="none" x="651.45458984375" y="915.5">ARequest</text></g></g><g transform="translate(-190,-94) scale(1,1)"><g><path fill="none" stroke="none"/><text fill="#000000" stroke="none" font-family="Arial" font-size="13px" font-style="normal" font-weight="normal" text-decoration="none" x="637" y="938.5">-userId: uint32</text></g></g><g transform="translate(-190,-94) scale(1,1)"><path fill="none" stroke="#000000" d="M 681 895 L 682 801" stroke-miterlimit="10"/></g><g transform="translate(-190,-94) scale(1,1)"><path fill="#FFFFFF" stroke="none" d="M 690.2023442570147 821.4137588084462 L 682 801 L 673.3652259628027 821.2346405287207"/></g><g transform="translate(-190,-94) scale(1,1)"><path fill="none" stroke="#000000" d="M 690.2023442570147 821.4137588084462 L 682 801 L 673.3652259628027 821.2346405287207 L 690.2023442570147 821.4137588084462" stroke-miterlimit="10"/></g><g transform="translate(-190,-94) scale(1,1)"><g><path fill="none" stroke="none"/><text fill="#000000" stroke="none" font-family="Arial" font-size="13px" font-style="normal" font-weight="normal" text-decoration="none" x="641.25048828125" y="853.5">+inherits</text></g></g><g transform="translate(-190,-94) scale(1,1)"><rect fill="#C0C0C0" stroke="none" x="503" y="1039" width="116.30078125" height="80" opacity="0.2"/></g><g transform="translate(-190,-94) scale(1,1)"><rect fill="#ffffff" stroke="none" x="496" y="1032" width="116.30078125" height="80"/></g><g transform="translate(-190,-94) scale(1,1)"><path fill="none" stroke="#000000" d="M 496 1032 L 612.30078125 1032 L 612.30078125 1112 L 496 1112 L 496 1032 Z Z" stroke-miterlimit="10"/></g><g transform="translate(-190,-94) scale(1,1)"><path fill="none" stroke="#000000" d="M 496 1057 L 612.30078125 1057" stroke-miterlimit="10"/></g><g transform="translate(-190,-94) scale(1,1)"><path fill="none" stroke="#000000" d="M 496 1080 L 612.30078125 1080" stroke-miterlimit="10"/></g><g transform="translate(-190,-94) scale(1,1)"><g><path fill="none" stroke="none"/><text fill="#000000" stroke="none" font-family="Arial" font-size="13px" font-style="normal" font-weight="bold" text-decoration="none" x="514.036376953125" y="1051.5">LoginRequest</text></g></g><g transform="translate(-190,-94) scale(1,1)"><g><path fill="none" stroke="none"/><text fill="#000000" stroke="none" font-family="Arial" font-size="13px" font-style="normal" font-weight="normal" text-decoration="none" x="501" y="1074.5">+psswd: password</text></g></g><g transform="translate(-190,-94) scale(1,1)"><path fill="none" stroke="#000000" d="M 589 1031 L 654 954" stroke-miterlimit="10"/></g><g transform="translate(-190,-94) scale(1,1)"><path fill="#FFFFFF" stroke="none" d="M 647.3224010932728 974.9621008689701 L 654 954 L 634.4557808586442 964.1006682033744"/></g><g transform="translate(-190,-94) scale(1,1)"><path fill="none" stroke="#000000" d="M 647.3224010932728 974.9621008689701 L 654 954 L 634.4557808586442 964.1006682033744 L 647.3224010932728 974.9621008689701" stroke-miterlimit="10"/></g><g transform="translate(-190,-94) scale(1,1)"><g><path fill="none" stroke="none"/><text fill="#000000" stroke="none" font-family="Arial" font-size="13px" font-style="normal" font-weight="normal" text-decoration="none" x="564.25048828125" y="999.5">+inherits</text></g></g><g transform="translate(-190,-94) scale(1,1)"><path fill="none" stroke="#000000" d="M 320 857 L 319 951" stroke-miterlimit="10"/></g><g transform="translate(-190,-94) scale(1,1)"><path fill="none" stroke="#000000" d="M 314.89882787149264 940.7931205957768 L 319 951 L 323.31738701859865 940.8826797356397" stroke-miterlimit="10"/></g><g transform="translate(-190,-94) scale(1,1)"><g><path fill="none" stroke="none"/><text fill="#000000" stroke="none" font-family="Arial" font-size="13px" font-style="normal" font-weight="normal" text-decoration="none" x="334.5" y="916.5">+uses</text></g></g><g transform="translate(-190,-94) scale(1,1)"><path fill="none" stroke="#000000" d="M 647 776 L 433 779" stroke-miterlimit="10"/></g><g transform="translate(-190,-94) scale(1,1)"><path fill="#FFFFFF" stroke="none" d="M 443.10267026809237 774.6484424105612 L 433 779 L 443.2206825348758 783.0666507744439 L 454.9978385577233 778.6916190856394"/></g><g transform="translate(-190,-94) scale(1,1)"><path fill="none" stroke="#000000" d="M 443.10267026809237 774.6484424105612 L 433 779 L 443.2206825348758 783.0666507744439 L 454.9978385577233 778.6916190856394 L 443.10267026809237 774.6484424105612" stroke-miterlimit="10"/></g><g transform="translate(-190,-94) scale(1,1)"><g><path fill="none" stroke="none"/><text fill="#000000" stroke="none" font-family="Arial" font-size="13px" font-style="normal" font-weight="normal" text-decoration="none" x="503.5" y="797.5">+aggregates</text></g></g><g transform="translate(-190,-94) scale(1,1)"><rect fill="#C0C0C0" stroke="none" x="631" y="1039" width="112.30810546875" height="79" opacity="0.2"/></g><g transform="translate(-190,-94) scale(1,1)"><rect fill="#ffffff" stroke="none" x="624" y="1032" width="112.30810546875" height="79"/></g><g transform="translate(-190,-94) scale(1,1)"><path fill="none" stroke="#000000" d="M 624 1032 L 736.30810546875 1032 L 736.30810546875 1111 L 624 1111 L 624 1032 Z Z" stroke-miterlimit="10"/></g><g transform="translate(-190,-94) scale(1,1)"><path fill="none" stroke="#000000" d="M 624 1057 L 736.30810546875 1057" stroke-miterlimit="10"/></g><g transform="translate(-190,-94) scale(1,1)"><path fill="none" stroke="#000000" d="M 624 1067 L 736.30810546875 1067" stroke-miterlimit="10"/></g><g transform="translate(-190,-94) scale(1,1)"><g><path fill="none" stroke="none"/><text fill="#000000" stroke="none" font-family="Arial" font-size="13px" font-style="normal" font-weight="bold" text-decoration="none" x="631.740478515625" y="1051.5">RegisterRequest</text></g></g><g transform="translate(-190,-94) scale(1,1)"><path fill="none" stroke="#000000" d="M 680 1031 L 680 954" stroke-miterlimit="10"/></g><g transform="translate(-190,-94) scale(1,1)"><path fill="#FFFFFF" stroke="none" d="M 688.419035512032 974.3253497152483 L 680 954 L 671.580964487968 974.3253497152483"/></g><g transform="translate(-190,-94) scale(1,1)"><path fill="none" stroke="#000000" d="M 688.419035512032 974.3253497152483 L 680 954 L 671.580964487968 974.3253497152483 L 688.419035512032 974.3253497152483" stroke-miterlimit="10"/></g><g transform="translate(-190,-94) scale(1,1)"><g><path fill="none" stroke="none"/><text fill="#000000" stroke="none" font-family="Arial" font-size="13px" font-style="normal" font-weight="normal" text-decoration="none" x="640.25048828125" y="997.5">+inherits</text></g></g><g transform="translate(-190,-94) scale(1,1)"><rect fill="#C0C0C0" stroke="none" x="759" y="1039" width="115.18994140625" height="79" opacity="0.2"/></g><g transform="translate(-190,-94) scale(1,1)"><rect fill="#ffffff" stroke="none" x="752" y="1032" width="115.18994140625" height="79"/></g><g transform="translate(-190,-94) scale(1,1)"><path fill="none" stroke="#000000" d="M 752 1032 L 867.18994140625 1032 L 867.18994140625 1111 L 752 1111 L 752 1032 Z Z" stroke-miterlimit="10"/></g><g transform="translate(-190,-94) scale(1,1)"><path fill="none" stroke="#000000" d="M 752 1057 L 867.18994140625 1057" stroke-miterlimit="10"/></g><g transform="translate(-190,-94) scale(1,1)"><path fill="none" stroke="#000000" d="M 752 1067 L 867.18994140625 1067" stroke-miterlimit="10"/></g><g transform="translate(-190,-94) scale(1,1)"><g><path fill="none" stroke="none"/><text fill="#000000" stroke="none" font-family="Arial" font-size="13px" font-style="normal" font-weight="bold" text-decoration="none" x="759.734130859375" y="1051.5">SoftwareRequest</text></g></g><g transform="translate(-190,-94) scale(1,1)"><path fill="none" stroke="#000000" d="M 774 1031 L 706 954" stroke-miterlimit="10"/></g><g transform="translate(-190,-94) scale(1,1)"><path fill="#FFFFFF" stroke="none" d="M 725.7647530751581 963.6620151044193 L 706 954 L 713.1437145276602 974.8078673281838"/></g><g transform="translate(-190,-94) scale(1,1)"><path fill="none" stroke="#000000" d="M 725.7647530751581 963.6620151044193 L 706 954 L 713.1437145276602 974.8078673281838 L 725.7647530751581 963.6620151044193" stroke-miterlimit="10"/></g><g transform="translate(-190,-94) scale(1,1)"><g><path fill="none" stroke="none"/><text fill="#000000" stroke="none" font-family="Arial" font-size="13px" font-style="normal" font-weight="normal" text-decoration="none" x="703.25048828125" y="1008.5">+inherits</text></g></g><g transform="translate(-190,-94) scale(1,1)"><rect fill="#C0C0C0" stroke="none" x="1039" y="503" width="129.30712890625" height="57" opacity="0.2"/></g><g transform="translate(-190,-94) scale(1,1)"><rect fill="#ffffff" stroke="none" x="1032" y="496" width="129.30712890625" height="57"/></g><g transform="translate(-190,-94) scale(1,1)"><path fill="none" stroke="#000000" d="M 1032 496 L 1161.30712890625 496 L 1161.30712890625 553 L 1032 553 L 1032 496 Z Z" stroke-miterlimit="10"/></g><g transform="translate(-190,-94) scale(1,1)"><path fill="none" stroke="#000000" d="M 1032 521 L 1161.30712890625 521" stroke-miterlimit="10"/></g><g transform="translate(-190,-94) scale(1,1)"><path fill="none" stroke="#000000" d="M 1032 531 L 1161.30712890625 531" stroke-miterlimit="10"/></g><g transform="translate(-190,-94) scale(1,1)"><g><path fill="none" stroke="none"/><text fill="#000000" stroke="none" font-family="Arial" font-size="13px" font-style="normal" font-weight="bold" text-decoration="none" x="1058.716796875" y="515.5">SSLExecutor</text></g></g><g transform="translate(-190,-94) scale(1,1)"><g><path fill="none" stroke="none"/><text fill="#000000" stroke="none" font-family="Arial" font-size="13px" font-style="normal" font-weight="normal" text-decoration="none" x="1037" y="548.5">+handleCertificates()</text></g></g><g transform="translate(-190,-94) scale(1,1)"><path fill="#C0C0C0" stroke="none" d="M 1089.785400390625 665 C 1089.785400390625 655.0588736 1097.844273990625 647 1107.785400390625 647 C 1117.726526790625 647 1125.785400390625 655.0588736 1125.785400390625 665 C 1125.785400390625 674.9411264 1117.726526790625 683 1107.785400390625 683 C 1097.844273990625 683 1089.785400390625 674.9411264 1089.785400390625 665 Z" opacity="0.2"/></g><g transform="translate(-190,-94) scale(1,1)"><path fill="#ffffff" stroke="none" d="M 1082.785400390625 658 C 1082.785400390625 648.0588736 1090.844273990625 640 1100.785400390625 640 C 1110.726526790625 640 1118.785400390625 648.0588736 1118.785400390625 658 C 1118.785400390625 667.9411264 1110.726526790625 676 1100.785400390625 676 C 1090.844273990625 676 1082.785400390625 667.9411264 1082.785400390625 658 Z"/></g><g transform="translate(-190,-94) scale(1,1)"><path fill="none" stroke="#000000" d="M 1082.785400390625 658 C 1082.785400390625 648.0588736 1090.844273990625 640 1100.785400390625 640 C 1110.726526790625 640 1118.785400390625 648.0588736 1118.785400390625 658 C 1118.785400390625 667.9411264 1110.726526790625 676 1100.785400390625 676 C 1090.844273990625 676 1082.785400390625 667.9411264 1082.785400390625 658 Z" stroke-miterlimit="10"/></g><g transform="translate(-190,-94) scale(1,1)"><path fill="none" stroke="#000000" d="M 1056 701 L 1145.57080078125 701" stroke-miterlimit="10"/></g><g transform="translate(-190,-94) scale(1,1)"><g><path fill="none" stroke="none"/><text fill="#000000" stroke="none" font-family="Arial" font-size="13px" font-style="normal" font-weight="bold" text-decoration="none" x="1069.719970703125" y="695.5">ICertificate</text></g></g><g transform="translate(-190,-94) scale(1,1)"><path fill="none" stroke="#000000" d="M 1099 639 L 1097 554" stroke-miterlimit="10"/></g><g transform="translate(-190,-94) scale(1,1)"><path fill="#000000" stroke="none" d="M 1101.447408571162 564.0608427579978 L 1097 554 L 1093.030702620744 564.2588828980075 L 1097.5175038249915 575.9939125621413"/></g><g transform="translate(-190,-94) scale(1,1)"><path fill="none" stroke="#000000" d="M 1101.447408571162 564.0608427579978 L 1097 554 L 1093.030702620744 564.2588828980075 L 1097.5175038249915 575.9939125621413 L 1101.447408571162 564.0608427579978" stroke-miterlimit="10"/></g><g transform="translate(-190,-94) scale(1,1)"><g><path fill="none" stroke="none"/><text fill="#000000" stroke="none" font-family="Arial" font-size="13px" font-style="normal" font-weight="normal" text-decoration="none" x="1046.5" y="602.5">+composites</text></g></g><g transform="translate(-190,-94) scale(1,1)"><path fill="none" stroke="#000000" d="M 1031 524 L 937 524" stroke-miterlimit="10"/></g><g transform="translate(-190,-94) scale(1,1)"><path fill="#000000" stroke="none" d="M 947.1626748576241 519.790482243984 L 937 524 L 947.1626748576241 528.209517756016 L 959 524"/></g><g transform="translate(-190,-94) scale(1,1)"><path fill="none" stroke="#000000" d="M 947.1626748576241 519.790482243984 L 937 524 L 947.1626748576241 528.209517756016 L 959 524 L 947.1626748576241 519.790482243984" stroke-miterlimit="10"/></g><g transform="translate(-190,-94) scale(1,1)"><g><path fill="none" stroke="none"/><text fill="#000000" stroke="none" font-family="Arial" font-size="13px" font-style="normal" font-weight="normal" text-decoration="none" x="946.5" y="545.5">+composites</text></g></g><g transform="translate(-190,-94) scale(1,1)"><rect fill="#C0C0C0" stroke="none" x="743" y="207" width="89.57080078125" height="87" opacity="0.2"/></g><g transform="translate(-190,-94) scale(1,1)"><rect fill="#ffffff" stroke="none" x="736" y="200" width="89.57080078125" height="87"/></g><g transform="translate(-190,-94) scale(1,1)"><path fill="none" stroke="#000000" d="M 736 200 L 825.57080078125 200 L 825.57080078125 287 L 736 287 L 736 200 Z Z" stroke-miterlimit="10"/></g><g transform="translate(-190,-94) scale(1,1)"><path fill="none" stroke="#000000" d="M 736 225 L 825.57080078125 225" stroke-miterlimit="10"/></g><g transform="translate(-190,-94) scale(1,1)"><path fill="none" stroke="#000000" d="M 736 235 L 825.57080078125 235" stroke-miterlimit="10"/></g><g transform="translate(-190,-94) scale(1,1)"><g><path fill="none" stroke="none"/><text fill="#000000" stroke="none" font-family="Arial" font-size="13px" font-style="normal" font-weight="bold" text-decoration="none" x="756.94677734375" y="219.5">Network</text></g></g><g transform="translate(-190,-94) scale(1,1)"><g><path fill="none" stroke="none"/><text fill="#000000" stroke="none" font-family="Arial" font-size="13px" font-style="normal" font-weight="normal" text-decoration="none" x="741" y="252.5">+connect()</text></g></g><g transform="translate(-190,-94) scale(1,1)"><g><path fill="none" stroke="none"/><text fill="#000000" stroke="none" font-family="Arial" font-size="13px" font-style="normal" font-weight="normal" text-decoration="none" x="741" y="267.5">+read()</text></g></g><g transform="translate(-190,-94) scale(1,1)"><g><path fill="none" stroke="none"/><text fill="#000000" stroke="none" font-family="Arial" font-size="13px" font-style="normal" font-weight="normal" text-decoration="none" x="741" y="282.5">+write()</text></g></g><g transform="translate(-190,-94) scale(1,1)"><path fill="none" stroke="#000000" d="M 780 447 L 780 288" stroke-miterlimit="10"/></g><g transform="translate(-190,-94) scale(1,1)"><g><path fill="none" stroke="none"/><text fill="#000000" stroke="none" font-family="Arial" font-size="13px" font-style="normal" font-weight="normal" text-decoration="none" x="694.5" y="356.5">+SSLProtocol</text></g></g><g transform="translate(-190,-94) scale(1,1)"><rect fill="#C0C0C0" stroke="none" x="239" y="159" width="200" height="176" opacity="0.2"/></g><g transform="translate(-190,-94) scale(1,1)"><rect fill="#ffffff" stroke="none" x="232" y="152" width="200" height="176"/></g><g transform="translate(-190,-94) scale(1,1)"><path fill="none" stroke="#000000" d="M 232 152 L 432 152 L 432 328 L 232 328 L 232 152 Z Z" stroke-miterlimit="10"/></g><g transform="translate(-190,-94) scale(1,1)"><path fill="none" stroke="#000000" d="M 232 177 L 432 177" stroke-miterlimit="10"/></g><g transform="translate(-190,-94) scale(1,1)"><path fill="none" stroke="#000000" d="M 232 187 L 432 187" stroke-miterlimit="10"/></g><g transform="translate(-190,-94) scale(1,1)"><g><path fill="none" stroke="none"/><text fill="#000000" stroke="none" font-family="Arial" font-size="13px" font-style="normal" font-weight="bold" text-decoration="none" x="312.85546875" y="171.5">Server</text></g></g><g transform="translate(-190,-94) scale(1,1)"><rect fill="#C0C0C0" stroke="none" x="551" y="111" width="122.08984375" height="57" opacity="0.2"/></g><g transform="translate(-190,-94) scale(1,1)"><rect fill="#ffffff" stroke="none" x="544" y="104" width="122.08984375" height="57"/></g><g transform="translate(-190,-94) scale(1,1)"><path fill="none" stroke="#000000" d="M 544 104 L 666.08984375 104 L 666.08984375 161 L 544 161 L 544 104 Z Z" stroke-miterlimit="10"/></g><g transform="translate(-190,-94) scale(1,1)"><path fill="none" stroke="#000000" d="M 544 129 L 666.08984375 129" stroke-miterlimit="10"/></g><g transform="translate(-190,-94) scale(1,1)"><path fill="none" stroke="#000000" d="M 544 139 L 666.08984375 139" stroke-miterlimit="10"/></g><g transform="translate(-190,-94) scale(1,1)"><g><path fill="none" stroke="none"/><text fill="#000000" stroke="none" font-family="Arial" font-size="13px" font-style="normal" font-weight="bold" text-decoration="none" x="555.18408203125" y="123.5">RequestExecutor</text></g></g><g transform="translate(-190,-94) scale(1,1)"><g><path fill="none" stroke="none"/><text fill="#000000" stroke="none" font-family="Arial" font-size="13px" font-style="normal" font-weight="normal" text-decoration="none" x="549" y="156.5">+analyze(IRequest)</text></g></g><g transform="translate(-190,-94) scale(1,1)"><rect fill="#C0C0C0" stroke="none" x="879" y="111" width="115.208984375" height="57" opacity="0.2"/></g><g transform="translate(-190,-94) scale(1,1)"><rect fill="#ffffff" stroke="none" x="872" y="104" width="115.208984375" height="57"/></g><g transform="translate(-190,-94) scale(1,1)"><path fill="none" stroke="#000000" d="M 872 104 L 987.208984375 104 L 987.208984375 161 L 872 161 L 872 104 Z Z" stroke-miterlimit="10"/></g><g transform="translate(-190,-94) scale(1,1)"><path fill="none" stroke="#000000" d="M 872 129 L 987.208984375 129" stroke-miterlimit="10"/></g><g transform="translate(-190,-94) scale(1,1)"><path fill="none" stroke="#000000" d="M 872 139 L 987.208984375 139" stroke-miterlimit="10"/></g><g transform="translate(-190,-94) scale(1,1)"><g><path fill="none" stroke="none"/><text fill="#000000" stroke="none" font-family="Arial" font-size="13px" font-style="normal" font-weight="bold" text-decoration="none" x="879.016845703125" y="123.5">DatabaseHandler</text></g></g><g transform="translate(-190,-94) scale(1,1)"><g><path fill="none" stroke="none"/><text fill="#000000" stroke="none" font-family="Arial" font-size="13px" font-style="normal" font-weight="normal" text-decoration="none" x="877" y="156.5">+request()</text></g></g><g transform="translate(-190,-94) scale(1,1)"><path fill="none" stroke="#000000" d="M 871 132 L 667 132" stroke-miterlimit="10"/></g><g transform="translate(-190,-94) scale(1,1)"><path fill="#000000" stroke="none" d="M 677.1626748576241 127.79048224398402 L 667 132 L 677.1626748576241 136.209517756016 L 689 132"/></g><g transform="translate(-190,-94) scale(1,1)"><path fill="none" stroke="#000000" d="M 677.1626748576241 127.79048224398402 L 667 132 L 677.1626748576241 136.209517756016 L 689 132 L 677.1626748576241 127.79048224398402" stroke-miterlimit="10"/></g><g transform="translate(-190,-94) scale(1,1)"><g><path fill="none" stroke="none"/><text fill="#000000" stroke="none" font-family="Arial" font-size="13px" font-style="normal" font-weight="normal" text-decoration="none" x="731.5" y="153.5">+composites</text></g></g><g transform="translate(-190,-94) scale(1,1)"><path fill="none" stroke="#000000" d="M 543 157 L 433 200" stroke-miterlimit="10"/></g><g transform="translate(-190,-94) scale(1,1)"><path fill="#000000" stroke="none" d="M 440.9325850124707 192.3793638703895 L 433 200 L 443.9977881388596 200.22058117045407 L 453.4900882476245 191.99023823047406"/></g><g transform="translate(-190,-94) scale(1,1)"><path fill="none" stroke="#000000" d="M 440.9325850124707 192.3793638703895 L 433 200 L 443.9977881388596 200.22058117045407 L 453.4900882476245 191.99023823047406 L 440.9325850124707 192.3793638703895" stroke-miterlimit="10"/></g><g transform="translate(-190,-94) scale(1,1)"><g><path fill="none" stroke="none"/><text fill="#000000" stroke="none" font-family="Arial" font-size="13px" font-style="normal" font-weight="normal" text-decoration="none" x="484.5" y="197.5">+composites</text></g></g><g transform="translate(-190,-94) scale(1,1)"><path fill="none" stroke="#000000" d="M 735 243 L 433 241" stroke-miterlimit="10"/></g><g transform="translate(-190,-94) scale(1,1)"><path fill="#000000" stroke="none" d="M 443.1903289987813 236.8578755575674 L 433 241 L 443.13457501932277 245.27672645579753 L 454.99951758088736 241.14569216940984"/></g><g transform="translate(-190,-94) scale(1,1)"><path fill="none" stroke="#000000" d="M 443.1903289987813 236.8578755575674 L 433 241 L 443.13457501932277 245.27672645579753 L 454.99951758088736 241.14569216940984 L 443.1903289987813 236.8578755575674" stroke-miterlimit="10"/></g><g transform="translate(-190,-94) scale(1,1)"><g><path fill="none" stroke="none"/><text fill="#000000" stroke="none" font-family="Arial" font-size="13px" font-style="normal" font-weight="normal" text-decoration="none" x="546.5" y="262.5">+composites</text></g></g></g></svg>