<svg version="1.1" xmlns="http://www.w3.org/2000/svg" xmlns:xlink="http://www.w3.org/1999/xlink" width="1852" height="828"><defs/><g><g transform="translate(-46,-62) scale(1,1)"><rect fill="#C0C0C0" stroke="none" x="263" y="87" width="671" height="583" opacity="0.2"/></g><g transform="translate(-46,-62) scale(1,1)"><rect fill="#ffffff" stroke="none" x="256" y="80" width="671" height="583"/></g><g transform="translate(-46,-62) scale(1,1)"><path fill="none" stroke="#000000" d="M 256 80 L 927 80 L 927 663 L 256 663 L 256 80 Z Z" stroke-miterlimit="10"/></g><g transform="translate(-46,-62) scale(1,1)"><g><path fill="none" stroke="none"/><text fill="#000000" stroke="none" font-family="Arial" font-size="13px" font-style="normal" font-weight="bold" text-decoration="none" x="542.00732421875" y="99.5">Client Warecloud</text></g></g><g transform="translate(-46,-62) scale(1,1)"><rect fill="#C0C0C0" stroke="none" x="1015" y="79" width="416" height="584" opacity="0.2"/></g><g transform="translate(-46,-62) scale(1,1)"><rect fill="#ffffff" stroke="none" x="1008" y="72" width="416" height="584"/></g><g transform="translate(-46,-62) scale(1,1)"><path fill="none" stroke="#000000" d="M 1008 72 L 1424 72 L 1424 656 L 1008 656 L 1008 72 Z Z" stroke-miterlimit="10"/></g><g transform="translate(-46,-62) scale(1,1)"><g><path fill="none" stroke="none"/><text fill="#000000" stroke="none" font-family="Arial" font-size="13px" font-style="normal" font-weight="bold" text-decoration="none" x="1160.365966796875" y="91.5">Serveur Warecloud</text></g></g><g transform="translate(-46,-62) scale(1,1)"><rect fill="#C0C0C0" stroke="none" x="1511" y="87" width="384" height="584" opacity="0.2"/></g><g transform="translate(-46,-62) scale(1,1)"><rect fill="#ffffff" stroke="none" x="1504" y="80" width="384" height="584"/></g><g transform="translate(-46,-62) scale(1,1)"><path fill="none" stroke="#000000" d="M 1504 80 L 1888 80 L 1888 664 L 1504 664 L 1504 80 Z Z" stroke-miterlimit="10"/></g><g transform="translate(-46,-62) scale(1,1)"><g><path fill="none" stroke="none"/><text fill="#000000" stroke="none" font-family="Arial" font-size="13px" font-style="normal" font-weight="bold" text-decoration="none" x="1642.530517578125" y="99.5">Serveur MongoDB</text></g></g><g transform="translate(-46,-62) scale(1,1)"><rect fill="#C0C0C0" stroke="none" x="583" y="687" width="672" height="200" opacity="0.2"/></g><g transform="translate(-46,-62) scale(1,1)"><rect fill="#ffffff" stroke="none" x="576" y="680" width="672" height="200"/></g><g transform="translate(-46,-62) scale(1,1)"><path fill="none" stroke="#000000" d="M 576 680 L 1248 680 L 1248 880 L 576 880 L 576 680 Z Z" stroke-miterlimit="10"/></g><g transform="translate(-46,-62) scale(1,1)"><g><path fill="none" stroke="none"/><text fill="#000000" stroke="none" font-family="Arial" font-size="13px" font-style="normal" font-weight="bold" text-decoration="none" x="862.13916015625" y="699.5">Agent Warecloud</text></g></g><g transform="translate(-46,-62) scale(1,1)"><path fill="#ffffff" stroke="none" d="M 82.88298313210227 225.68 C 82.88298313210227 220.886167936 86.76882545704773 217 91.562255859375 217 C 96.35568626170227 217 100.24152858664773 220.886167936 100.24152858664773 225.68 C 100.24152858664773 230.47383206400002 96.35568626170227 234.36 91.562255859375 234.36 C 86.76882545704773 234.36 82.88298313210227 230.47383206400002 82.88298313210227 225.68 Z"/></g><g transform="translate(-46,-62) scale(1,1)"><path fill="none" stroke="#000000" d="M 82.88298313210227 225.68 C 82.88298313210227 220.886167936 86.76882545704773 217 91.562255859375 217 C 96.35568626170227 217 100.24152858664773 220.886167936 100.24152858664773 225.68 C 100.24152858664773 230.47383206400002 96.35568626170227 234.36 91.562255859375 234.36 C 86.76882545704773 234.36 82.88298313210227 230.47383206400002 82.88298313210227 225.68 Z" stroke-miterlimit="10"/></g><g transform="translate(-46,-62) scale(1,1)"><path fill="none" stroke="#000000" d="M 91.562255859375 234.36 L 91.562255859375 251.64" stroke-miterlimit="10"/></g><g transform="translate(-46,-62) scale(1,1)"><path fill="none" stroke="#000000" d="M 82.37243767755682 240.84 L 100.75207404119318 240.84" stroke-miterlimit="10"/></g><g transform="translate(-46,-62) scale(1,1)"><path fill="none" stroke="#000000" d="M 91.562255859375 251.64 L 78.79861949573863 269" stroke-miterlimit="10"/></g><g transform="translate(-46,-62) scale(1,1)"><path fill="none" stroke="#000000" d="M 91.562255859375 251.64 L 104.32589222301137 269" stroke-miterlimit="10"/></g><g transform="translate(-46,-62) scale(1,1)"><g><path fill="none" stroke="none"/><text fill="#000000" stroke="none" font-family="Arial" font-size="13px" font-style="normal" font-weight="bold" text-decoration="none" x="63.74365234375" y="289.5">utilisateur</text></g></g><g transform="translate(-46,-62) scale(1,1)"><path fill="#C0C0C0" stroke="none" d="M 303 370.5 C 303 355.312168 342.17508 343 390.5 343 C 438.82492 343 478 355.312168 478 370.5 C 478 385.687832 438.82492 398 390.5 398 C 342.17508 398 303 385.687832 303 370.5 Z" opacity="0.2"/></g><g transform="translate(-46,-62) scale(1,1)"><path fill="#ffffff" stroke="none" d="M 296 363.5 C 296 348.312168 335.17508 336 383.5 336 C 431.82492 336 471 348.312168 471 363.5 C 471 378.687832 431.82492 391 383.5 391 C 335.17508 391 296 378.687832 296 363.5 Z"/></g><g transform="translate(-46,-62) scale(1,1)"><path fill="none" stroke="#000000" d="M 296 363.5 C 296 348.312168 335.17508 336 383.5 336 C 431.82492 336 471 348.312168 471 363.5 C 471 378.687832 431.82492 391 383.5 391 C 335.17508 391 296 378.687832 296 363.5 Z" stroke-miterlimit="10"/></g><g transform="translate(-46,-62) scale(1,1)"><g><path fill="none" stroke="none"/><text fill="#000000" stroke="none" font-family="Arial" font-size="13px" font-style="normal" font-weight="bold" text-decoration="none" x="346.8486328125" y="370.5">s'authentifier</text></g></g><g transform="translate(-46,-62) scale(1,1)"><path fill="none" stroke="#000000" d="M 128 269 L 307 335" stroke-miterlimit="10"/></g><g transform="translate(-46,-62) scale(1,1)"><path fill="#C0C0C0" stroke="none" d="M 359 504 C 359 494.6111584 409.8156752 487 472.5 487 C 535.1843248 487 586 494.6111584 586 504 C 586 513.3888416 535.1843248 521 472.5 521 C 409.8156752 521 359 513.3888416 359 504 Z" opacity="0.2"/></g><g transform="translate(-46,-62) scale(1,1)"><path fill="#ffffff" stroke="none" d="M 352 497 C 352 487.6111584 402.8156752 480 465.5 480 C 528.1843248 480 579 487.6111584 579 497 C 579 506.3888416 528.1843248 514 465.5 514 C 402.8156752 514 352 506.3888416 352 497 Z"/></g><g transform="translate(-46,-62) scale(1,1)"><path fill="none" stroke="#000000" d="M 352 497 C 352 487.6111584 402.8156752 480 465.5 480 C 528.1843248 480 579 487.6111584 579 497 C 579 506.3888416 528.1843248 514 465.5 514 C 402.8156752 514 352 506.3888416 352 497 Z" stroke-miterlimit="10"/></g><g transform="translate(-46,-62) scale(1,1)"><g><path fill="none" stroke="none"/><text fill="#000000" stroke="none" font-family="Arial" font-size="13px" font-style="normal" font-weight="bold" text-decoration="none" x="396.12646484375" y="504">identifier environnement</text></g></g><g transform="translate(-46,-62) scale(1,1)"><path fill="none" stroke="#000000" d="M 454 479 L 401 392" stroke-miterlimit="10" stroke-dasharray="3"/></g><g transform="translate(-46,-62) scale(1,1)"><path fill="none" stroke="#000000" d="M 409.8821819918647 398.48897858398334 L 401 392 L 402.69225035847165 402.8690518778895" stroke-miterlimit="10"/></g><g transform="translate(-46,-62) scale(1,1)"><g><path fill="none" stroke="none"/><text fill="#000000" stroke="none" font-family="Arial" font-size="13px" font-style="normal" font-weight="normal" text-decoration="none" x="373.5" y="456.5">«include»</text></g></g><g transform="translate(-46,-62) scale(1,1)"><path fill="none" stroke="#000000" d="M 449 515 L 396 575" stroke-miterlimit="10"/></g><g transform="translate(-46,-62) scale(1,1)"><path fill="#C0C0C0" stroke="none" d="M 591 784 C 591 774.6111584 613.6096176 767 641.5 767 C 669.3903824 767 692 774.6111584 692 784 C 692 793.3888416 669.3903824 801 641.5 801 C 613.6096176 801 591 793.3888416 591 784 Z" opacity="0.2"/></g><g transform="translate(-46,-62) scale(1,1)"><path fill="#ffffff" stroke="none" d="M 584 777 C 584 767.6111584 606.6096176 760 634.5 760 C 662.3903824 760 685 767.6111584 685 777 C 685 786.3888416 662.3903824 794 634.5 794 C 606.6096176 794 584 786.3888416 584 777 Z"/></g><g transform="translate(-46,-62) scale(1,1)"><path fill="none" stroke="#000000" d="M 584 777 C 584 767.6111584 606.6096176 760 634.5 760 C 662.3903824 760 685 767.6111584 685 777 C 685 786.3888416 662.3903824 794 634.5 794 C 606.6096176 794 584 786.3888416 584 777 Z" stroke-miterlimit="10"/></g><g transform="translate(-46,-62) scale(1,1)"><g><path fill="none" stroke="none"/><text fill="#000000" stroke="none" font-family="Arial" font-size="13px" font-style="normal" font-weight="bold" text-decoration="none" x="612.102294921875" y="784">installer</text></g></g><g transform="translate(-46,-62) scale(1,1)"><path fill="none" stroke="#000000" d="M 411 624 L 608 759" stroke-miterlimit="10"/></g><g transform="translate(-46,-62) scale(1,1)"><path fill="#C0C0C0" stroke="none" d="M 719 816 C 719 806.6111584 763.0999472 799 817.5 799 C 871.9000528 799 916 806.6111584 916 816 C 916 825.3888416 871.9000528 833 817.5 833 C 763.0999472 833 719 825.3888416 719 816 Z" opacity="0.2"/></g><g transform="translate(-46,-62) scale(1,1)"><path fill="#ffffff" stroke="none" d="M 712 809 C 712 799.6111584 756.0999472 792 810.5 792 C 864.9000528 792 909 799.6111584 909 809 C 909 818.3888416 864.9000528 826 810.5 826 C 756.0999472 826 712 818.3888416 712 809 Z"/></g><g transform="translate(-46,-62) scale(1,1)"><path fill="none" stroke="#000000" d="M 712 809 C 712 799.6111584 756.0999472 792 810.5 792 C 864.9000528 792 909 799.6111584 909 809 C 909 818.3888416 864.9000528 826 810.5 826 C 756.0999472 826 712 818.3888416 712 809 Z" stroke-miterlimit="10"/></g><g transform="translate(-46,-62) scale(1,1)"><g><path fill="none" stroke="none"/><text fill="#000000" stroke="none" font-family="Arial" font-size="13px" font-style="normal" font-weight="bold" text-decoration="none" x="751.615966796875" y="816">récolter informations</text></g></g><g transform="translate(-46,-62) scale(1,1)"><path fill="none" stroke="#000000" d="M 790 791 L 485 515" stroke-miterlimit="10"/></g><g transform="translate(-46,-62) scale(1,1)"><path fill="#C0C0C0" stroke="none" d="M 847 752 C 847 742.6111584 874.7583424 735 909 735 C 943.2416576 735 971 742.6111584 971 752 C 971 761.3888416 943.2416576 769 909 769 C 874.7583424 769 847 761.3888416 847 752 Z" opacity="0.2"/></g><g transform="translate(-46,-62) scale(1,1)"><path fill="#ffffff" stroke="none" d="M 840 745 C 840 735.6111584 867.7583424 728 902 728 C 936.2416576 728 964 735.6111584 964 745 C 964 754.3888416 936.2416576 762 902 762 C 867.7583424 762 840 754.3888416 840 745 Z"/></g><g transform="translate(-46,-62) scale(1,1)"><path fill="none" stroke="#000000" d="M 840 745 C 840 735.6111584 867.7583424 728 902 728 C 936.2416576 728 964 735.6111584 964 745 C 964 754.3888416 936.2416576 762 902 762 C 867.7583424 762 840 754.3888416 840 745 Z" stroke-miterlimit="10"/></g><g transform="translate(-46,-62) scale(1,1)"><g><path fill="none" stroke="none"/><text fill="#000000" stroke="none" font-family="Arial" font-size="13px" font-style="normal" font-weight="bold" text-decoration="none" x="865.513671875" y="752">mettre à jour</text></g></g><g transform="translate(-46,-62) scale(1,1)"><path fill="none" stroke="#000000" d="M 876 763 L 836 791" stroke-miterlimit="10" stroke-dasharray="3"/></g><g transform="translate(-46,-62) scale(1,1)"><path fill="none" stroke="#000000" d="M 841.911587720218 781.7235173354246 L 836 791 L 846.739587562226 788.6206599668645" stroke-miterlimit="10"/></g><g transform="translate(-46,-62) scale(1,1)"><g><path fill="none" stroke="none"/><text fill="#000000" stroke="none" font-family="Arial" font-size="13px" font-style="normal" font-weight="normal" text-decoration="none" x="845.5" y="807.5">«include»</text></g></g><g transform="translate(-46,-62) scale(1,1)"><path fill="#C0C0C0" stroke="none" d="M 599 592 C 599 582.6111584 648.0248144 575 708.5 575 C 768.9751856 575 818 582.6111584 818 592 C 818 601.3888416 768.9751856 609 708.5 609 C 648.0248144 609 599 601.3888416 599 592 Z" opacity="0.2"/></g><g transform="translate(-46,-62) scale(1,1)"><path fill="#ffffff" stroke="none" d="M 592 585 C 592 575.6111584 641.0248144 568 701.5 568 C 761.9751856 568 811 575.6111584 811 585 C 811 594.3888416 761.9751856 602 701.5 602 C 641.0248144 602 592 594.3888416 592 585 Z"/></g><g transform="translate(-46,-62) scale(1,1)"><path fill="none" stroke="#000000" d="M 592 585 C 592 575.6111584 641.0248144 568 701.5 568 C 761.9751856 568 811 575.6111584 811 585 C 811 594.3888416 761.9751856 602 701.5 602 C 641.0248144 602 592 594.3888416 592 585 Z" stroke-miterlimit="10"/></g><g transform="translate(-46,-62) scale(1,1)"><g><path fill="none" stroke="none"/><text fill="#000000" stroke="none" font-family="Arial" font-size="13px" font-style="normal" font-weight="bold" text-decoration="none" x="633.576904296875" y="592">mettre à jour les agents</text></g></g><g transform="translate(-46,-62) scale(1,1)"><path fill="none" stroke="#000000" d="M 513 515 L 653 567" stroke-miterlimit="10"/></g><g transform="translate(-46,-62) scale(1,1)"><path fill="none" stroke="#000000" d="M 879 727 L 724 603" stroke-miterlimit="10" stroke-dasharray="3"/></g><g transform="translate(-46,-62) scale(1,1)"><path fill="none" stroke="#000000" d="M 734.5653807116051 606.0614915349942 L 724 603 L 729.3060509220539 612.6356537719332" stroke-miterlimit="10"/></g><g transform="translate(-46,-62) scale(1,1)"><g><path fill="none" stroke="none"/><text fill="#000000" stroke="none" font-family="Arial" font-size="13px" font-style="normal" font-weight="normal" text-decoration="none" x="754.5" y="694.5">«include»</text></g></g><g transform="translate(-46,-62) scale(1,1)"><path fill="#C0C0C0" stroke="none" d="M 287 606.5 C 287 593.5213072 329.7568016 583 382.5 583 C 435.2431984 583 478 593.5213072 478 606.5 C 478 619.4786928 435.2431984 630 382.5 630 C 329.7568016 630 287 619.4786928 287 606.5 Z" opacity="0.2"/></g><g transform="translate(-46,-62) scale(1,1)"><path fill="#ffffff" stroke="none" d="M 280 599.5 C 280 586.5213072 322.7568016 576 375.5 576 C 428.2431984 576 471 586.5213072 471 599.5 C 471 612.4786928 428.2431984 623 375.5 623 C 322.7568016 623 280 612.4786928 280 599.5 Z"/></g><g transform="translate(-46,-62) scale(1,1)"><path fill="none" stroke="#000000" d="M 280 599.5 C 280 586.5213072 322.7568016 576 375.5 576 C 428.2431984 576 471 586.5213072 471 599.5 C 471 612.4786928 428.2431984 623 375.5 623 C 322.7568016 623 280 612.4786928 280 599.5 Z" stroke-miterlimit="10"/></g><g transform="translate(-46,-62) scale(1,1)"><g><path fill="none" stroke="none"/><text fill="#000000" stroke="none" font-family="Arial" font-size="13px" font-style="normal" font-weight="bold" text-decoration="none" x="321.66552734375" y="606.5">installer les agents</text></g></g><g transform="translate(-46,-62) scale(1,1)"><path fill="#C0C0C0" stroke="none" d="M 1079 592 C 1079 582.6111584 1124.6669504 575 1181 575 C 1237.3330496 575 1283 582.6111584 1283 592 C 1283 601.3888416 1237.3330496 609 1181 609 C 1124.6669504 609 1079 601.3888416 1079 592 Z" opacity="0.2"/></g><g transform="translate(-46,-62) scale(1,1)"><path fill="#ffffff" stroke="none" d="M 1072 585 C 1072 575.6111584 1117.6669504 568 1174 568 C 1230.3330496 568 1276 575.6111584 1276 585 C 1276 594.3888416 1230.3330496 602 1174 602 C 1117.6669504 602 1072 594.3888416 1072 585 Z"/></g><g transform="translate(-46,-62) scale(1,1)"><path fill="none" stroke="#000000" d="M 1072 585 C 1072 575.6111584 1117.6669504 568 1174 568 C 1230.3330496 568 1276 575.6111584 1276 585 C 1276 594.3888416 1230.3330496 602 1174 602 C 1117.6669504 602 1072 594.3888416 1072 585 Z" stroke-miterlimit="10"/></g><g transform="translate(-46,-62) scale(1,1)"><g><path fill="none" stroke="none"/><text fill="#000000" stroke="none" font-family="Arial" font-size="13px" font-style="normal" font-weight="bold" text-decoration="none" x="1111.497802734375" y="592">demander permission</text></g></g><g transform="translate(-46,-62) scale(1,1)"><path fill="none" stroke="#000000" d="M 472 388 L 1110 567" stroke-miterlimit="10"/></g><g transform="translate(-46,-62) scale(1,1)"><path fill="#C0C0C0" stroke="none" d="M 1599 592 C 1599 582.6111584 1646.2339536 575 1704.5 575 C 1762.7660464 575 1810 582.6111584 1810 592 C 1810 601.3888416 1762.7660464 609 1704.5 609 C 1646.2339536 609 1599 601.3888416 1599 592 Z" opacity="0.2"/></g><g transform="translate(-46,-62) scale(1,1)"><path fill="#ffffff" stroke="none" d="M 1592 585 C 1592 575.6111584 1639.2339536 568 1697.5 568 C 1755.7660464 568 1803 575.6111584 1803 585 C 1803 594.3888416 1755.7660464 602 1697.5 602 C 1639.2339536 602 1592 594.3888416 1592 585 Z"/></g><g transform="translate(-46,-62) scale(1,1)"><path fill="none" stroke="#000000" d="M 1592 585 C 1592 575.6111584 1639.2339536 568 1697.5 568 C 1755.7660464 568 1803 575.6111584 1803 585 C 1803 594.3888416 1755.7660464 602 1697.5 602 C 1639.2339536 602 1592 594.3888416 1592 585 Z" stroke-miterlimit="10"/></g><g transform="translate(-46,-62) scale(1,1)"><g><path fill="none" stroke="none"/><text fill="#000000" stroke="none" font-family="Arial" font-size="13px" font-style="normal" font-weight="bold" text-decoration="none" x="1633.550537109375" y="592">chercher un utilisateur</text></g></g><g transform="translate(-46,-62) scale(1,1)"><path fill="none" stroke="#000000" d="M 1277 585 L 1591 585" stroke-miterlimit="10"/></g><g transform="translate(-46,-62) scale(1,1)"><path fill="#C0C0C0" stroke="none" d="M 335 168 C 335 158.6111584 369.9217856 151 413 151 C 456.0782144 151 491 158.6111584 491 168 C 491 177.3888416 456.0782144 185 413 185 C 369.9217856 185 335 177.3888416 335 168 Z" opacity="0.2"/></g><g transform="translate(-46,-62) scale(1,1)"><path fill="#ffffff" stroke="none" d="M 328 161 C 328 151.6111584 362.9217856 144 406 144 C 449.0782144 144 484 151.6111584 484 161 C 484 170.3888416 449.0782144 178 406 178 C 362.9217856 178 328 170.3888416 328 161 Z"/></g><g transform="translate(-46,-62) scale(1,1)"><path fill="none" stroke="#000000" d="M 328 161 C 328 151.6111584 362.9217856 144 406 144 C 449.0782144 144 484 151.6111584 484 161 C 484 170.3888416 449.0782144 178 406 178 C 362.9217856 178 328 170.3888416 328 161 Z" stroke-miterlimit="10"/></g><g transform="translate(-46,-62) scale(1,1)"><g><path fill="none" stroke="none"/><text fill="#000000" stroke="none" font-family="Arial" font-size="13px" font-style="normal" font-weight="bold" text-decoration="none" x="359.03369140625" y="168">créer un compte</text></g></g><g transform="translate(-46,-62) scale(1,1)"><path fill="none" stroke="#000000" d="M 128 244 L 346 179" stroke-miterlimit="10"/></g><g transform="translate(-46,-62) scale(1,1)"><path fill="none" stroke="#000000" d="M 404 179 L 386 335" stroke-miterlimit="10"/></g><g transform="translate(-46,-62) scale(1,1)"><path fill="none" stroke="#000000" d="M 447 179 L 1134 479" stroke-miterlimit="10"/></g><g transform="translate(-46,-62) scale(1,1)"><path fill="#C0C0C0" stroke="none" d="M 1095 504 C 1095 494.6111584 1133.9512224 487 1182 487 C 1230.0487776 487 1269 494.6111584 1269 504 C 1269 513.3888416 1230.0487776 521 1182 521 C 1133.9512224 521 1095 513.3888416 1095 504 Z" opacity="0.2"/></g><g transform="translate(-46,-62) scale(1,1)"><path fill="#ffffff" stroke="none" d="M 1088 497 C 1088 487.6111584 1126.9512224 480 1175 480 C 1223.0487776 480 1262 487.6111584 1262 497 C 1262 506.3888416 1223.0487776 514 1175 514 C 1126.9512224 514 1088 506.3888416 1088 497 Z"/></g><g transform="translate(-46,-62) scale(1,1)"><path fill="none" stroke="#000000" d="M 1088 497 C 1088 487.6111584 1126.9512224 480 1175 480 C 1223.0487776 480 1262 487.6111584 1262 497 C 1262 506.3888416 1223.0487776 514 1175 514 C 1126.9512224 514 1088 506.3888416 1088 497 Z" stroke-miterlimit="10"/></g><g transform="translate(-46,-62) scale(1,1)"><g><path fill="none" stroke="none"/><text fill="#000000" stroke="none" font-family="Arial" font-size="13px" font-style="normal" font-weight="bold" text-decoration="none" x="1123.345947265625" y="504">vérifier conformité</text></g></g><g transform="translate(-46,-62) scale(1,1)"><path fill="#C0C0C0" stroke="none" d="M 1551 496 C 1551 486.6111584 1608.9791184 479 1680.5 479 C 1752.0208816 479 1810 486.6111584 1810 496 C 1810 505.3888416 1752.0208816 513 1680.5 513 C 1608.9791184 513 1551 505.3888416 1551 496 Z" opacity="0.2"/></g><g transform="translate(-46,-62) scale(1,1)"><path fill="#ffffff" stroke="none" d="M 1544 489 C 1544 479.6111584 1601.9791184 472 1673.5 472 C 1745.0208816 472 1803 479.6111584 1803 489 C 1803 498.3888416 1745.0208816 506 1673.5 506 C 1601.9791184 506 1544 498.3888416 1544 489 Z"/></g><g transform="translate(-46,-62) scale(1,1)"><path fill="none" stroke="#000000" d="M 1544 489 C 1544 479.6111584 1601.9791184 472 1673.5 472 C 1745.0208816 472 1803 479.6111584 1803 489 C 1803 498.3888416 1745.0208816 506 1673.5 506 C 1601.9791184 506 1544 498.3888416 1544 489 Z" stroke-miterlimit="10"/></g><g transform="translate(-46,-62) scale(1,1)"><g><path fill="none" stroke="none"/><text fill="#000000" stroke="none" font-family="Arial" font-size="13px" font-style="normal" font-weight="bold" text-decoration="none" x="1594.011474609375" y="496">enregister nouvel utilisateur</text></g></g><g transform="translate(-46,-62) scale(1,1)"><path fill="none" stroke="#000000" d="M 1543 491 L 1263 496" stroke-miterlimit="10"/></g><g transform="translate(-46,-62) scale(1,1)"><path fill="#C0C0C0" stroke="none" d="M 607 184 C 607 174.6111584 645.7273648 167 693.5 167 C 741.2726352 167 780 174.6111584 780 184 C 780 193.3888416 741.2726352 201 693.5 201 C 645.7273648 201 607 193.3888416 607 184 Z" opacity="0.2"/></g><g transform="translate(-46,-62) scale(1,1)"><path fill="#ffffff" stroke="none" d="M 600 177 C 600 167.6111584 638.7273648 160 686.5 160 C 734.2726352 160 773 167.6111584 773 177 C 773 186.3888416 734.2726352 194 686.5 194 C 638.7273648 194 600 186.3888416 600 177 Z"/></g><g transform="translate(-46,-62) scale(1,1)"><path fill="none" stroke="#000000" d="M 600 177 C 600 167.6111584 638.7273648 160 686.5 160 C 734.2726352 160 773 167.6111584 773 177 C 773 186.3888416 734.2726352 194 686.5 194 C 638.7273648 194 600 186.3888416 600 177 Z" stroke-miterlimit="10"/></g><g transform="translate(-46,-62) scale(1,1)"><g><path fill="none" stroke="none"/><text fill="#000000" stroke="none" font-family="Arial" font-size="13px" font-style="normal" font-weight="bold" text-decoration="none" x="632.6591796875" y="184">accéder au réseau</text></g></g><g transform="translate(-46,-62) scale(1,1)"><path fill="#C0C0C0" stroke="none" d="M 711 248 C 711 238.6111584 755.3238048 231 810 231 C 864.6761952 231 909 238.6111584 909 248 C 909 257.3888416 864.6761952 265 810 265 C 755.3238048 265 711 257.3888416 711 248 Z" opacity="0.2"/></g><g transform="translate(-46,-62) scale(1,1)"><path fill="#ffffff" stroke="none" d="M 704 241 C 704 231.6111584 748.3238048 224 803 224 C 857.6761952 224 902 231.6111584 902 241 C 902 250.3888416 857.6761952 258 803 258 C 748.3238048 258 704 250.3888416 704 241 Z"/></g><g transform="translate(-46,-62) scale(1,1)"><path fill="none" stroke="#000000" d="M 704 241 C 704 231.6111584 748.3238048 224 803 224 C 857.6761952 224 902 231.6111584 902 241 C 902 250.3888416 857.6761952 258 803 258 C 748.3238048 258 704 250.3888416 704 241 Z" stroke-miterlimit="10"/></g><g transform="translate(-46,-62) scale(1,1)"><g><path fill="none" stroke="none"/><text fill="#000000" stroke="none" font-family="Arial" font-size="13px" font-style="normal" font-weight="bold" text-decoration="none" x="742.662353515625" y="248">accéder aux logiciels</text></g></g><g transform="translate(-46,-62) scale(1,1)"><path fill="none" stroke="#000000" d="M 741 259 L 472 337" stroke-miterlimit="10" stroke-dasharray="3"/></g><g transform="translate(-46,-62) scale(1,1)"><path fill="none" stroke="#000000" d="M 480.58831113781673 330.1267975586301 L 472 337 L 482.93294109925074 338.2127649897295" stroke-miterlimit="10"/></g><g transform="translate(-46,-62) scale(1,1)"><g><path fill="none" stroke="none"/><text fill="#000000" stroke="none" font-family="Arial" font-size="13px" font-style="normal" font-weight="normal" text-decoration="none" x="586.5" y="332.5">«include»</text></g></g><g transform="translate(-46,-62) scale(1,1)"><path fill="none" stroke="#000000" d="M 657 195 L 429 335" stroke-miterlimit="10" stroke-dasharray="3"/></g><g transform="translate(-46,-62) scale(1,1)"><path fill="none" stroke="#000000" d="M 435.4576540601107 326.09501802135816 L 429 335 L 439.8630241199028 333.2694778330195" stroke-miterlimit="10"/></g><g transform="translate(-46,-62) scale(1,1)"><g><path fill="none" stroke="none"/><text fill="#000000" stroke="none" font-family="Arial" font-size="13px" font-style="normal" font-weight="normal" text-decoration="none" x="530.5" y="296.5">«include»</text></g></g><g transform="translate(-46,-62) scale(1,1)"><path fill="#C0C0C0" stroke="none" d="M 1063 200 C 1063 190.6111584 1109.7862384 183 1167.5 183 C 1225.2137616 183 1272 190.6111584 1272 200 C 1272 209.3888416 1225.2137616 217 1167.5 217 C 1109.7862384 217 1063 209.3888416 1063 200 Z" opacity="0.2"/></g><g transform="translate(-46,-62) scale(1,1)"><path fill="#ffffff" stroke="none" d="M 1056 193 C 1056 183.6111584 1102.7862384 176 1160.5 176 C 1218.2137616 176 1265 183.6111584 1265 193 C 1265 202.3888416 1218.2137616 210 1160.5 210 C 1102.7862384 210 1056 202.3888416 1056 193 Z"/></g><g transform="translate(-46,-62) scale(1,1)"><path fill="none" stroke="#000000" d="M 1056 193 C 1056 183.6111584 1102.7862384 176 1160.5 176 C 1218.2137616 176 1265 183.6111584 1265 193 C 1265 202.3888416 1218.2137616 210 1160.5 210 C 1102.7862384 210 1056 202.3888416 1056 193 Z" stroke-miterlimit="10"/></g><g transform="translate(-46,-62) scale(1,1)"><g><path fill="none" stroke="none"/><text fill="#000000" stroke="none" font-family="Arial" font-size="13px" font-style="normal" font-weight="bold" text-decoration="none" x="1098.34375" y="200">fabriquer une requête</text></g></g><g transform="translate(-46,-62) scale(1,1)"><path fill="none" stroke="#000000" d="M 903 228 L 1055 207" stroke-miterlimit="10"/></g><g transform="translate(-46,-62) scale(1,1)"><path fill="#C0C0C0" stroke="none" d="M 1559 168 C 1559 158.6111584 1623.0232736 151 1702 151 C 1780.9767264 151 1845 158.6111584 1845 168 C 1845 177.3888416 1780.9767264 185 1702 185 C 1623.0232736 185 1559 177.3888416 1559 168 Z" opacity="0.2"/></g><g transform="translate(-46,-62) scale(1,1)"><path fill="#ffffff" stroke="none" d="M 1552 161 C 1552 151.6111584 1616.0232736 144 1695 144 C 1773.9767264 144 1838 151.6111584 1838 161 C 1838 170.3888416 1773.9767264 178 1695 178 C 1616.0232736 178 1552 170.3888416 1552 161 Z"/></g><g transform="translate(-46,-62) scale(1,1)"><path fill="none" stroke="#000000" d="M 1552 161 C 1552 151.6111584 1616.0232736 144 1695 144 C 1773.9767264 144 1838 151.6111584 1838 161 C 1838 170.3888416 1773.9767264 178 1695 178 C 1616.0232736 178 1552 170.3888416 1552 161 Z" stroke-miterlimit="10"/></g><g transform="translate(-46,-62) scale(1,1)"><g><path fill="none" stroke="none"/><text fill="#000000" stroke="none" font-family="Arial" font-size="13px" font-style="normal" font-weight="bold" text-decoration="none" x="1606.4755859375" y="168">demander logiciels disponibles</text></g></g><g transform="translate(-46,-62) scale(1,1)"><path fill="none" stroke="#000000" d="M 1266 187 L 1551 170" stroke-miterlimit="10"/></g><g transform="translate(-46,-62) scale(1,1)"><path fill="#C0C0C0" stroke="none" d="M 1103 296 C 1103 286.6111584 1140.1603616 279 1186 279 C 1231.8396384 279 1269 286.6111584 1269 296 C 1269 305.3888416 1231.8396384 313 1186 313 C 1140.1603616 313 1103 305.3888416 1103 296 Z" opacity="0.2"/></g><g transform="translate(-46,-62) scale(1,1)"><path fill="#ffffff" stroke="none" d="M 1096 289 C 1096 279.6111584 1133.1603616 272 1179 272 C 1224.8396384 272 1262 279.6111584 1262 289 C 1262 298.3888416 1224.8396384 306 1179 306 C 1133.1603616 306 1096 298.3888416 1096 289 Z"/></g><g transform="translate(-46,-62) scale(1,1)"><path fill="none" stroke="#000000" d="M 1096 289 C 1096 279.6111584 1133.1603616 272 1179 272 C 1224.8396384 272 1262 279.6111584 1262 289 C 1262 298.3888416 1224.8396384 306 1179 306 C 1133.1603616 306 1096 298.3888416 1096 289 Z" stroke-miterlimit="10"/></g><g transform="translate(-46,-62) scale(1,1)"><g><path fill="none" stroke="none"/><text fill="#000000" stroke="none" font-family="Arial" font-size="13px" font-style="normal" font-weight="bold" text-decoration="none" x="1130.234130859375" y="296">lister les logiciels</text></g></g><g transform="translate(-46,-62) scale(1,1)"><path fill="none" stroke="#000000" d="M 1252 271 L 1622 179" stroke-miterlimit="10" stroke-dasharray="3"/></g><g transform="translate(-46,-62) scale(1,1)"><path fill="none" stroke="#000000" d="M 1613.1533907787398 185.5373928508476 L 1622 179 L 1611.1218678130247 177.36713744525423" stroke-miterlimit="10"/></g><g transform="translate(-46,-62) scale(1,1)"><g><path fill="none" stroke="none"/><text fill="#000000" stroke="none" font-family="Arial" font-size="13px" font-style="normal" font-weight="normal" text-decoration="none" x="1401.5" y="201.5">«include»</text></g></g><g transform="translate(-46,-62) scale(1,1)"><path fill="#C0C0C0" stroke="none" d="M 751 320 C 751 310.6111584 786.3695008 303 830 303 C 873.6304992 303 909 310.6111584 909 320 C 909 329.3888416 873.6304992 337 830 337 C 786.3695008 337 751 329.3888416 751 320 Z" opacity="0.2"/></g><g transform="translate(-46,-62) scale(1,1)"><path fill="#ffffff" stroke="none" d="M 744 313 C 744 303.6111584 779.3695008 296 823 296 C 866.6304992 296 902 303.6111584 902 313 C 902 322.3888416 866.6304992 330 823 330 C 779.3695008 330 744 322.3888416 744 313 Z"/></g><g transform="translate(-46,-62) scale(1,1)"><path fill="none" stroke="#000000" d="M 744 313 C 744 303.6111584 779.3695008 296 823 296 C 866.6304992 296 902 303.6111584 902 313 C 902 322.3888416 866.6304992 330 823 330 C 779.3695008 330 744 322.3888416 744 313 Z" stroke-miterlimit="10"/></g><g transform="translate(-46,-62) scale(1,1)"><g><path fill="none" stroke="none"/><text fill="#000000" stroke="none" font-family="Arial" font-size="13px" font-style="normal" font-weight="bold" text-decoration="none" x="776.763671875" y="320">trier les logiciels</text></g></g><g transform="translate(-46,-62) scale(1,1)"><path fill="none" stroke="#000000" d="M 903 308 L 1095 295" stroke-miterlimit="10" stroke-dasharray="3"/></g><g transform="translate(-46,-62) scale(1,1)"><path fill="none" stroke="#000000" d="M 1085.1449086735447 299.8864276263161 L 1095 295 L 1084.5761719835052 291.4866242041961" stroke-miterlimit="10"/></g><g transform="translate(-46,-62) scale(1,1)"><g><path fill="none" stroke="none"/><text fill="#000000" stroke="none" font-family="Arial" font-size="13px" font-style="normal" font-weight="normal" text-decoration="none" x="969.5" y="277.5">«include»</text></g></g><g transform="translate(-46,-62) scale(1,1)"><path fill="none" stroke="#000000" d="M 818 295 L 808 259" stroke-miterlimit="10"/></g><g transform="translate(-46,-62) scale(1,1)"><path fill="#C0C0C0" stroke="none" d="M 1055 784 C 1055 774.6111584 1095.0705104 767 1144.5 767 C 1193.9294896 767 1234 774.6111584 1234 784 C 1234 793.3888416 1193.9294896 801 1144.5 801 C 1095.0705104 801 1055 793.3888416 1055 784 Z" opacity="0.2"/></g><g transform="translate(-46,-62) scale(1,1)"><path fill="#ffffff" stroke="none" d="M 1048 777 C 1048 767.6111584 1088.0705104 760 1137.5 760 C 1186.9294896 760 1227 767.6111584 1227 777 C 1227 786.3888416 1186.9294896 794 1137.5 794 C 1088.0705104 794 1048 786.3888416 1048 777 Z"/></g><g transform="translate(-46,-62) scale(1,1)"><path fill="none" stroke="#000000" d="M 1048 777 C 1048 767.6111584 1088.0705104 760 1137.5 760 C 1186.9294896 760 1227 767.6111584 1227 777 C 1227 786.3888416 1186.9294896 794 1137.5 794 C 1088.0705104 794 1048 786.3888416 1048 777 Z" stroke-miterlimit="10"/></g><g transform="translate(-46,-62) scale(1,1)"><g><path fill="none" stroke="none"/><text fill="#000000" stroke="none" font-family="Arial" font-size="13px" font-style="normal" font-weight="bold" text-decoration="none" x="1084.38916015625" y="784">installer un logiciel</text></g></g><g transform="translate(-46,-62) scale(1,1)"><path fill="#C0C0C0" stroke="none" d="M 1039 720 C 1039 710.6111584 1086.2339536 703 1144.5 703 C 1202.7660464 703 1250 710.6111584 1250 720 C 1250 729.3888416 1202.7660464 737 1144.5 737 C 1086.2339536 737 1039 729.3888416 1039 720 Z" opacity="0.2"/></g><g transform="translate(-46,-62) scale(1,1)"><path fill="#ffffff" stroke="none" d="M 1032 713 C 1032 703.6111584 1079.2339536 696 1137.5 696 C 1195.7660464 696 1243 703.6111584 1243 713 C 1243 722.3888416 1195.7660464 730 1137.5 730 C 1079.2339536 730 1032 722.3888416 1032 713 Z"/></g><g transform="translate(-46,-62) scale(1,1)"><path fill="none" stroke="#000000" d="M 1032 713 C 1032 703.6111584 1079.2339536 696 1137.5 696 C 1195.7660464 696 1243 703.6111584 1243 713 C 1243 722.3888416 1195.7660464 730 1137.5 730 C 1079.2339536 730 1032 722.3888416 1032 713 Z" stroke-miterlimit="10"/></g><g transform="translate(-46,-62) scale(1,1)"><g><path fill="none" stroke="none"/><text fill="#000000" stroke="none" font-family="Arial" font-size="13px" font-style="normal" font-weight="bold" text-decoration="none" x="1073.9091796875" y="720">désinstaller un logiciel</text></g></g><g transform="translate(-46,-62) scale(1,1)"><path fill="#C0C0C0" stroke="none" d="M 535 400 C 535 390.6111584 592.3075456 383 663 383 C 733.6924544 383 791 390.6111584 791 400 C 791 409.3888416 733.6924544 417 663 417 C 592.3075456 417 535 409.3888416 535 400 Z" opacity="0.2"/></g><g transform="translate(-46,-62) scale(1,1)"><path fill="#ffffff" stroke="none" d="M 528 393 C 528 383.6111584 585.3075456 376 656 376 C 726.6924544 376 784 383.6111584 784 393 C 784 402.3888416 726.6924544 410 656 410 C 585.3075456 410 528 402.3888416 528 393 Z"/></g><g transform="translate(-46,-62) scale(1,1)"><path fill="none" stroke="#000000" d="M 528 393 C 528 383.6111584 585.3075456 376 656 376 C 726.6924544 376 784 383.6111584 784 393 C 784 402.3888416 726.6924544 410 656 410 C 585.3075456 410 528 402.3888416 528 393 Z" stroke-miterlimit="10"/></g><g transform="translate(-46,-62) scale(1,1)"><g><path fill="none" stroke="none"/><text fill="#000000" stroke="none" font-family="Arial" font-size="13px" font-style="normal" font-weight="bold" text-decoration="none" x="576.517822265625" y="400">gérer logiciels sur le réseau</text></g></g><g transform="translate(-46,-62) scale(1,1)"><path fill="none" stroke="#000000" d="M 673 375 L 786 259" stroke-miterlimit="10" stroke-dasharray="3"/></g><g transform="translate(-46,-62) scale(1,1)"><path fill="none" stroke="#000000" d="M 781.9239674747508 269.21694469267163 L 786 259 L 775.8933388858634 263.3422806362554" stroke-miterlimit="10"/></g><g transform="translate(-46,-62) scale(1,1)"><g><path fill="none" stroke="none"/><text fill="#000000" stroke="none" font-family="Arial" font-size="13px" font-style="normal" font-weight="normal" text-decoration="none" x="679.5" y="301.5">«include»</text></g></g><g transform="translate(-46,-62) scale(1,1)"><path fill="none" stroke="#000000" d="M 659 375 L 684 195" stroke-miterlimit="10" stroke-dasharray="3"/></g><g transform="translate(-46,-62) scale(1,1)"><path fill="none" stroke="#000000" d="M 686.7714321831808 205.64514742284152 L 684 195 L 678.4324425609041 204.48695441974755" stroke-miterlimit="10"/></g><g transform="translate(-46,-62) scale(1,1)"><g><path fill="none" stroke="none"/><text fill="#000000" stroke="none" font-family="Arial" font-size="13px" font-style="normal" font-weight="normal" text-decoration="none" x="615.5" y="254.5">«include»</text></g></g><g transform="translate(-46,-62) scale(1,1)"><path fill="none" stroke="#000000" d="M 677 411 L 1056 744 L 1093 759" stroke-miterlimit="10"/></g><g transform="translate(-46,-62) scale(1,1)"><path fill="none" stroke="#000000" d="M 1093 759 L 1056 744 L 1090 731" stroke-miterlimit="10"/></g><g transform="translate(-46,-62) scale(1,1)"><path fill="#C0C0C0" stroke="none" d="M 1071 400 C 1071 390.6111584 1133.0085552 383 1209.5 383 C 1285.9914448 383 1348 390.6111584 1348 400 C 1348 409.3888416 1285.9914448 417 1209.5 417 C 1133.0085552 417 1071 409.3888416 1071 400 Z" opacity="0.2"/></g><g transform="translate(-46,-62) scale(1,1)"><path fill="#ffffff" stroke="none" d="M 1064 393 C 1064 383.6111584 1126.0085552 376 1202.5 376 C 1278.9914448 376 1341 383.6111584 1341 393 C 1341 402.3888416 1278.9914448 410 1202.5 410 C 1126.0085552 410 1064 402.3888416 1064 393 Z"/></g><g transform="translate(-46,-62) scale(1,1)"><path fill="none" stroke="#000000" d="M 1064 393 C 1064 383.6111584 1126.0085552 376 1202.5 376 C 1278.9914448 376 1341 383.6111584 1341 393 C 1341 402.3888416 1278.9914448 410 1202.5 410 C 1126.0085552 410 1064 402.3888416 1064 393 Z" stroke-miterlimit="10"/></g><g transform="translate(-46,-62) scale(1,1)"><g><path fill="none" stroke="none"/><text fill="#000000" stroke="none" font-family="Arial" font-size="13px" font-style="normal" font-weight="bold" text-decoration="none" x="1116.346435546875" y="400">avoir l'état du réseau du client</text></g></g><g transform="translate(-46,-62) scale(1,1)"><path fill="none" stroke="#000000" d="M 748 567 L 1155 411" stroke-miterlimit="10"/></g><g transform="translate(-46,-62) scale(1,1)"><path fill="#C0C0C0" stroke="none" d="M 1551 368 C 1551 358.6111584 1621.515144 351 1708.5 351 C 1795.484856 351 1866 358.6111584 1866 368 C 1866 377.3888416 1795.484856 385 1708.5 385 C 1621.515144 385 1551 377.3888416 1551 368 Z" opacity="0.2"/></g><g transform="translate(-46,-62) scale(1,1)"><path fill="#ffffff" stroke="none" d="M 1544 361 C 1544 351.6111584 1614.515144 344 1701.5 344 C 1788.484856 344 1859 351.6111584 1859 361 C 1859 370.3888416 1788.484856 378 1701.5 378 C 1614.515144 378 1544 370.3888416 1544 361 Z"/></g><g transform="translate(-46,-62) scale(1,1)"><path fill="none" stroke="#000000" d="M 1544 361 C 1544 351.6111584 1614.515144 344 1701.5 344 C 1788.484856 344 1859 351.6111584 1859 361 C 1859 370.3888416 1788.484856 378 1701.5 378 C 1614.515144 378 1544 370.3888416 1544 361 Z" stroke-miterlimit="10"/></g><g transform="translate(-46,-62) scale(1,1)"><g><path fill="none" stroke="none"/><text fill="#000000" stroke="none" font-family="Arial" font-size="13px" font-style="normal" font-weight="bold" text-decoration="none" x="1602.705078125" y="368">enregister le réseau de l'utilisateur</text></g></g><g transform="translate(-46,-62) scale(1,1)"><path fill="none" stroke="#000000" d="M 1543 371 L 1342 384" stroke-miterlimit="10" stroke-dasharray="3"/></g><g transform="translate(-46,-62) scale(1,1)"><path fill="none" stroke="#000000" d="M 1351.869796034967 379.1433420721502 L 1342 384 L 1352.4131754599393 387.5448239505673" stroke-miterlimit="10"/></g><g transform="translate(-46,-62) scale(1,1)"><g><path fill="none" stroke="none"/><text fill="#000000" stroke="none" font-family="Arial" font-size="13px" font-style="normal" font-weight="normal" text-decoration="none" x="1416.5" y="412.5">«include»</text></g></g><g transform="translate(-46,-62) scale(1,1)"><path fill="#C0C0C0" stroke="none" d="M 1575 248 C 1575 238.6111584 1634.0984064 231 1707 231 C 1779.9015936 231 1839 238.6111584 1839 248 C 1839 257.3888416 1779.9015936 265 1707 265 C 1634.0984064 265 1575 257.3888416 1575 248 Z" opacity="0.2"/></g><g transform="translate(-46,-62) scale(1,1)"><path fill="#ffffff" stroke="none" d="M 1568 241 C 1568 231.6111584 1627.0984064 224 1700 224 C 1772.9015936 224 1832 231.6111584 1832 241 C 1832 250.3888416 1772.9015936 258 1700 258 C 1627.0984064 258 1568 250.3888416 1568 241 Z"/></g><g transform="translate(-46,-62) scale(1,1)"><path fill="none" stroke="#000000" d="M 1568 241 C 1568 231.6111584 1627.0984064 224 1700 224 C 1772.9015936 224 1832 231.6111584 1832 241 C 1832 250.3888416 1772.9015936 258 1700 258 C 1627.0984064 258 1568 250.3888416 1568 241 Z" stroke-miterlimit="10"/></g><g transform="translate(-46,-62) scale(1,1)"><g><path fill="none" stroke="none"/><text fill="#000000" stroke="none" font-family="Arial" font-size="13px" font-style="normal" font-weight="bold" text-decoration="none" x="1618.340576171875" y="248">demander les configurations</text></g></g><g transform="translate(-46,-62) scale(1,1)"><path fill="none" stroke="#000000" d="M 1263 281 L 1567 253" stroke-miterlimit="10" stroke-dasharray="3"/></g><g transform="translate(-46,-62) scale(1,1)"><path fill="none" stroke="#000000" d="M 1557.2662442599483 258.12386564939123 L 1567 253 L 1556.4940751632225 249.74031545636933" stroke-miterlimit="10"/></g><g transform="translate(-46,-62) scale(1,1)"><g><path fill="none" stroke="none"/><text fill="#000000" stroke="none" font-family="Arial" font-size="13px" font-style="normal" font-weight="normal" text-decoration="none" x="1384.5" y="243.5">«include»</text></g></g><g transform="translate(-46,-62) scale(1,1)"><path fill="#C0C0C0" stroke="none" d="M 911 848 C 911 838.6111584 968.9791184000001 831 1040.5 831 C 1112.0208816 831 1170 838.6111584 1170 848 C 1170 857.3888416 1112.0208816 865 1040.5 865 C 968.9791184000001 865 911 857.3888416 911 848 Z" opacity="0.2"/></g><g transform="translate(-46,-62) scale(1,1)"><path fill="#ffffff" stroke="none" d="M 904 841 C 904 831.6111584 961.9791184000001 824 1033.5 824 C 1105.0208816 824 1163 831.6111584 1163 841 C 1163 850.3888416 1105.0208816 858 1033.5 858 C 961.9791184000001 858 904 850.3888416 904 841 Z"/></g><g transform="translate(-46,-62) scale(1,1)"><path fill="none" stroke="#000000" d="M 904 841 C 904 831.6111584 961.9791184000001 824 1033.5 824 C 1105.0208816 824 1163 831.6111584 1163 841 C 1163 850.3888416 1105.0208816 858 1033.5 858 C 961.9791184000001 858 904 850.3888416 904 841 Z" stroke-miterlimit="10"/></g><g transform="translate(-46,-62) scale(1,1)"><g><path fill="none" stroke="none"/><text fill="#000000" stroke="none" font-family="Arial" font-size="13px" font-style="normal" font-weight="bold" text-decoration="none" x="954.366943359375" y="848">appliquer les configurations</text></g></g><g transform="translate(-46,-62) scale(1,1)"><path fill="none" stroke="#000000" d="M 677 411 L 1056 744 L 1037 823" stroke-miterlimit="10"/></g></g></svg>