<svg version="1.1" xmlns="http://www.w3.org/2000/svg" xmlns:xlink="http://www.w3.org/1999/xlink" width="908.8271484375" height="1037"><defs/><g><g transform="translate(-30,-6) scale(1,1)"><path fill="#C0C0C0" stroke="none" d="M 207 32.5 C 207 27.2532944 211.2532944 23 216.5 23 C 221.7467056 23 226 27.2532944 226 32.5 C 226 37.7467056 221.7467056 42 216.5 42 C 211.2532944 42 207 37.7467056 207 32.5 Z" opacity="0.2"/></g><g transform="translate(-30,-6) scale(1,1)"><path fill="#000000" stroke="none" d="M 200 25.5 C 200 20.2532944 204.2532944 16 209.5 16 C 214.7467056 16 219 20.2532944 219 25.5 C 219 30.7467056 214.7467056 35 209.5 35 C 204.2532944 35 200 30.7467056 200 25.5 Z"/></g><g transform="translate(-30,-6) scale(1,1)"><path fill="#C0C0C0" stroke="none" d="M 153 167 L 286.4853515625 167 Q 296.4853515625 167 296.4853515625 177 L 296.4853515625 197 Q 296.4853515625 207 286.4853515625 207 L 153 207 Q 143 207 143 197 L 143 177 Q 143 167 153 167 Z" opacity="0.2"/></g><g transform="translate(-30,-6) scale(1,1)"><path fill="#ffffff" stroke="none" d="M 146 160 L 279.4853515625 160 Q 289.4853515625 160 289.4853515625 170 L 289.4853515625 190 Q 289.4853515625 200 279.4853515625 200 L 146 200 Q 136 200 136 190 L 136 170 Q 136 160 146 160 Z"/></g><g transform="translate(-30,-6) scale(1,1)"><path fill="none" stroke="#000000" d="M 146 160 L 279.4853515625 160 Q 289.4853515625 160 289.4853515625 170 L 289.4853515625 190 Q 289.4853515625 200 279.4853515625 200 L 146 200 Q 136 200 136 190 L 136 170 Q 136 160 146 160 Z" stroke-miterlimit="10"/></g><g transform="translate(-30,-6) scale(1,1)"><g><path fill="none" stroke="none"/><text fill="#000000" stroke="none" font-family="Arial" font-size="13px" font-style="normal" font-weight="bold" text-decoration="none" x="146.6318359375" y="179.5">entrer ses informations</text></g></g><g transform="translate(-30,-6) scale(1,1)"><path fill="none" stroke="#000000" d="M 209 36 L 211 95" stroke-miterlimit="10"/></g><g transform="translate(-30,-6) scale(1,1)"><path fill="none" stroke="#000000" d="M 206.44859903663905 84.98577265732813 L 211 95 L 214.8628015772555 84.70054545256147" stroke-miterlimit="10"/></g><g transform="translate(-30,-6) scale(1,1)"><path fill="#C0C0C0" stroke="none" d="M 207 280.5 L 218.5 271 L 229 280.5 L 218.5 289 L 207 280.5" opacity="0.2"/></g><g transform="translate(-30,-6) scale(1,1)"><path fill="#ffffff" stroke="none" d="M 200 273 L 211 264 L 222 273 L 211 282 L 200 273"/></g><g transform="translate(-30,-6) scale(1,1)"><path fill="none" stroke="#000000" d="M 200 273 L 211 264 L 222 273 L 211 282 L 200 273 L 200 273" stroke-miterlimit="10"/></g><g transform="translate(-30,-6) scale(1,1)"><path fill="none" stroke="#000000" d="M 212 201 L 211 263" stroke-miterlimit="10"/></g><g transform="translate(-30,-6) scale(1,1)"><path fill="none" stroke="#000000" d="M 206.95492247510097 252.7707601544613 L 211 263 L 215.37286311288264 252.90653339055456" stroke-miterlimit="10"/></g><g transform="translate(-30,-6) scale(1,1)"><path fill="#C0C0C0" stroke="none" d="M 207 112.5 L 218.5 103 L 229 112.5 L 218.5 121 L 207 112.5" opacity="0.2"/></g><g transform="translate(-30,-6) scale(1,1)"><path fill="#ffffff" stroke="none" d="M 200 105 L 211 96 L 222 105 L 211 114 L 200 105"/></g><g transform="translate(-30,-6) scale(1,1)"><path fill="none" stroke="#000000" d="M 200 105 L 211 96 L 222 105 L 211 114 L 200 105 L 200 105" stroke-miterlimit="10"/></g><g transform="translate(-30,-6) scale(1,1)"><path fill="none" stroke="#000000" d="M 211 115 L 212 159" stroke-miterlimit="10"/></g><g transform="translate(-30,-6) scale(1,1)"><path fill="none" stroke="#000000" d="M 207.56065873692773 148.9355949430687 L 212 159 L 215.97752075324465 148.74430262451605" stroke-miterlimit="10"/></g><g transform="translate(-30,-6) scale(1,1)"><g><path fill="none" stroke="none"/><text fill="#000000" stroke="none" font-family="Arial" font-size="13px" font-style="normal" font-weight="normal" text-decoration="none" x="110.5" y="136.5">compte existant</text></g></g><g transform="translate(-30,-6) scale(1,1)"><path fill="#C0C0C0" stroke="none" d="M 369 87 L 459.1435546875 87 Q 469.1435546875 87 469.1435546875 97 L 469.1435546875 117 Q 469.1435546875 127 459.1435546875 127 L 369 127 Q 359 127 359 117 L 359 97 Q 359 87 369 87 Z" opacity="0.2"/></g><g transform="translate(-30,-6) scale(1,1)"><path fill="#ffffff" stroke="none" d="M 362 80 L 452.1435546875 80 Q 462.1435546875 80 462.1435546875 90 L 462.1435546875 110 Q 462.1435546875 120 452.1435546875 120 L 362 120 Q 352 120 352 110 L 352 90 Q 352 80 362 80 Z"/></g><g transform="translate(-30,-6) scale(1,1)"><path fill="none" stroke="#000000" d="M 362 80 L 452.1435546875 80 Q 462.1435546875 80 462.1435546875 90 L 462.1435546875 110 Q 462.1435546875 120 452.1435546875 120 L 362 120 Q 352 120 352 110 L 352 90 Q 352 80 362 80 Z" stroke-miterlimit="10"/></g><g transform="translate(-30,-6) scale(1,1)"><g><path fill="none" stroke="none"/><text fill="#000000" stroke="none" font-family="Arial" font-size="13px" font-style="normal" font-weight="bold" text-decoration="none" x="360.10546875" y="99.5">créer un compte</text></g></g><g transform="translate(-30,-6) scale(1,1)"><path fill="none" stroke="#000000" d="M 223 105 L 351 101" stroke-miterlimit="10"/></g><g transform="translate(-30,-6) scale(1,1)"><path fill="none" stroke="#000000" d="M 340.9737669991969 105.52489246431415 L 351 101 L 340.7108005097193 97.10996480103222" stroke-miterlimit="10"/></g><g transform="translate(-30,-6) scale(1,1)"><g><path fill="none" stroke="none"/><text fill="#000000" stroke="none" font-family="Arial" font-size="13px" font-style="normal" font-weight="normal" text-decoration="none" x="243.5" y="94.5">pas de compte</text></g></g><g transform="translate(-30,-6) scale(1,1)"><path fill="none" stroke="#000000" d="M 407 79 L 408 24 L 220 25" stroke-miterlimit="10"/></g><g transform="translate(-30,-6) scale(1,1)"><path fill="none" stroke="#000000" d="M 230.1401403574983 20.736485776940093 L 220 25 L 230.18492182778138 29.15540219015948" stroke-miterlimit="10"/></g><g transform="translate(-30,-6) scale(1,1)"><path fill="none" stroke="#000000" d="M 223 273 L 352 272 L 352 184 L 290 182" stroke-miterlimit="10"/></g><g transform="translate(-30,-6) scale(1,1)"><path fill="none" stroke="#000000" d="M 300.29311172831143 178.12032849992457 L 290 182 L 300.0216711290793 186.53498707612027" stroke-miterlimit="10"/></g><g transform="translate(-30,-6) scale(1,1)"><g><path fill="none" stroke="none"/><text fill="#000000" stroke="none" font-family="Arial" font-size="13px" font-style="normal" font-weight="normal" text-decoration="none" x="358.5" y="219.5">informations invalides</text></g></g><g transform="translate(-30,-6) scale(1,1)"><path fill="#C0C0C0" stroke="none" d="M 121 343 L 310.154296875 343 Q 320.154296875 343 320.154296875 353 L 320.154296875 373 Q 320.154296875 383 310.154296875 383 L 121 383 Q 111 383 111 373 L 111 353 Q 111 343 121 343 Z" opacity="0.2"/></g><g transform="translate(-30,-6) scale(1,1)"><path fill="#ffffff" stroke="none" d="M 114 336 L 303.154296875 336 Q 313.154296875 336 313.154296875 346 L 313.154296875 366 Q 313.154296875 376 303.154296875 376 L 114 376 Q 104 376 104 366 L 104 346 Q 104 336 114 336 Z"/></g><g transform="translate(-30,-6) scale(1,1)"><path fill="none" stroke="#000000" d="M 114 336 L 303.154296875 336 Q 313.154296875 336 313.154296875 346 L 313.154296875 366 Q 313.154296875 376 303.154296875 376 L 114 376 Q 104 376 104 366 L 104 346 Q 104 336 114 336 Z" stroke-miterlimit="10"/></g><g transform="translate(-30,-6) scale(1,1)"><g><path fill="none" stroke="none"/><text fill="#000000" stroke="none" font-family="Arial" font-size="13px" font-style="normal" font-weight="bold" text-decoration="none" x="114.62548828125" y="355.5">accéder à son espace personnel</text></g></g><g transform="translate(-30,-6) scale(1,1)"><path fill="none" stroke="#000000" d="M 211 283 L 209 335" stroke-miterlimit="10"/></g><g transform="translate(-30,-6) scale(1,1)"><path fill="none" stroke="#000000" d="M 205.18417566617 324.68304867447023 L 209 335 L 213.59699098118583 325.00661849427854" stroke-miterlimit="10"/></g><g transform="translate(-30,-6) scale(1,1)"><g><path fill="none" stroke="none"/><text fill="#000000" stroke="none" font-family="Arial" font-size="13px" font-style="normal" font-weight="normal" text-decoration="none" x="86.5" y="314.5">informations valides</text></g></g><g transform="translate(-30,-6) scale(1,1)"><path fill="#C0C0C0" stroke="none" d="M 146 431 L 276 431 Q 279 431 279 434 L 279 433 Q 279 436 276 436 L 146 436 Q 143 436 143 433 L 143 434 Q 143 431 146 431 Z" opacity="0.2"/></g><g transform="translate(-30,-6) scale(1,1)"><path fill="#000000" stroke="none" d="M 139 424 L 269 424 Q 272 424 272 427 L 272 427 Q 272 430 269 430 L 139 430 Q 136 430 136 427 L 136 427 Q 136 424 139 424 Z"/></g><g transform="translate(-30,-6) scale(1,1)"><path fill="#C0C0C0" stroke="none" d="M 81 479 L 225.314453125 479 Q 235.314453125 479 235.314453125 489 L 235.314453125 516 Q 235.314453125 526 225.314453125 526 L 81 526 Q 71 526 71 516 L 71 489 Q 71 479 81 479 Z" opacity="0.2"/></g><g transform="translate(-30,-6) scale(1,1)"><path fill="#ffffff" stroke="none" d="M 74 472 L 218.314453125 472 Q 228.314453125 472 228.314453125 482 L 228.314453125 509 Q 228.314453125 519 218.314453125 519 L 74 519 Q 64 519 64 509 L 64 482 Q 64 472 74 472 Z"/></g><g transform="translate(-30,-6) scale(1,1)"><path fill="none" stroke="#000000" d="M 74 472 L 218.314453125 472 Q 228.314453125 472 228.314453125 482 L 228.314453125 509 Q 228.314453125 519 218.314453125 519 L 74 519 Q 64 519 64 509 L 64 482 Q 64 472 74 472 Z" stroke-miterlimit="10"/></g><g transform="translate(-30,-6) scale(1,1)"><g><path fill="none" stroke="none"/><text fill="#000000" stroke="none" font-family="Arial" font-size="13px" font-style="normal" font-weight="bold" text-decoration="none" x="76.06640625" y="491.5">utiliser la gestion logiciel</text></g></g><g transform="translate(-30,-6) scale(1,1)"><path fill="#C0C0C0" stroke="none" d="M 305 479 L 446.4453125 479 Q 456.4453125 479 456.4453125 489 L 456.4453125 516 Q 456.4453125 526 446.4453125 526 L 305 526 Q 295 526 295 516 L 295 489 Q 295 479 305 479 Z" opacity="0.2"/></g><g transform="translate(-30,-6) scale(1,1)"><path fill="#ffffff" stroke="none" d="M 298 472 L 439.4453125 472 Q 449.4453125 472 449.4453125 482 L 449.4453125 509 Q 449.4453125 519 439.4453125 519 L 298 519 Q 288 519 288 509 L 288 482 Q 288 472 298 472 Z"/></g><g transform="translate(-30,-6) scale(1,1)"><path fill="none" stroke="#000000" d="M 298 472 L 439.4453125 472 Q 449.4453125 472 449.4453125 482 L 449.4453125 509 Q 449.4453125 519 439.4453125 519 L 298 519 Q 288 519 288 509 L 288 482 Q 288 472 298 472 Z" stroke-miterlimit="10"/></g><g transform="translate(-30,-6) scale(1,1)"><g><path fill="none" stroke="none"/><text fill="#000000" stroke="none" font-family="Arial" font-size="13px" font-style="normal" font-weight="bold" text-decoration="none" x="298.628662109375" y="491.5">utiliser la gestion réseau</text></g></g><g transform="translate(-30,-6) scale(1,1)"><path fill="none" stroke="#000000" d="M 207 377 L 204 423" stroke-miterlimit="10"/></g><g transform="translate(-30,-6) scale(1,1)"><path fill="none" stroke="#000000" d="M 200.46078408841973 412.58491715197533 L 204 423 L 208.8619721372962 413.1328207203803" stroke-miterlimit="10"/></g><g transform="translate(-30,-6) scale(1,1)"><path fill="none" stroke="#000000" d="M 203 430 L 200 449 L 144 448 L 145 471" stroke-miterlimit="10"/></g><g transform="translate(-30,-6) scale(1,1)"><path fill="none" stroke="#000000" d="M 140.35301697510945 461.02976686499363 L 145 471 L 148.76410625081493 460.6640673312673" stroke-miterlimit="10"/></g><g transform="translate(-30,-6) scale(1,1)"><path fill="none" stroke="#000000" d="M 205 430 L 208 448 L 368 448 L 368 471" stroke-miterlimit="10"/></g><g transform="translate(-30,-6) scale(1,1)"><path fill="none" stroke="#000000" d="M 363.790482243984 460.83732514237585 L 368 471 L 372.209517756016 460.83732514237585" stroke-miterlimit="10"/></g><g transform="translate(-30,-6) scale(1,1)"><path fill="#C0C0C0" stroke="none" d="M 599 504.5 L 610.5 495 L 621 504.5 L 610.5 513 L 599 504.5" opacity="0.2"/></g><g transform="translate(-30,-6) scale(1,1)"><path fill="#ffffff" stroke="none" d="M 592 497 L 603 488 L 614 497 L 603 506 L 592 497"/></g><g transform="translate(-30,-6) scale(1,1)"><path fill="none" stroke="#000000" d="M 592 497 L 603 488 L 614 497 L 603 506 L 592 497 L 592 497" stroke-miterlimit="10"/></g><g transform="translate(-30,-6) scale(1,1)"><path fill="none" stroke="#000000" d="M 450 496 L 591 497" stroke-miterlimit="10"/></g><g transform="translate(-30,-6) scale(1,1)"><path fill="none" stroke="#000000" d="M 580.8077267353013 501.13733799655165 L 591 497 L 580.8674347054028 492.71851421224767" stroke-miterlimit="10"/></g><g transform="translate(-30,-6) scale(1,1)"><path fill="#C0C0C0" stroke="none" d="M 529 415 L 692.8779296875 415 Q 702.8779296875 415 702.8779296875 425 L 702.8779296875 445 Q 702.8779296875 455 692.8779296875 455 L 529 455 Q 519 455 519 445 L 519 425 Q 519 415 529 415 Z" opacity="0.2"/></g><g transform="translate(-30,-6) scale(1,1)"><path fill="#ffffff" stroke="none" d="M 522 408 L 685.8779296875 408 Q 695.8779296875 408 695.8779296875 418 L 695.8779296875 438 Q 695.8779296875 448 685.8779296875 448 L 522 448 Q 512 448 512 438 L 512 418 Q 512 408 522 408 Z"/></g><g transform="translate(-30,-6) scale(1,1)"><path fill="none" stroke="#000000" d="M 522 408 L 685.8779296875 408 Q 695.8779296875 408 695.8779296875 418 L 695.8779296875 438 Q 695.8779296875 448 685.8779296875 448 L 522 448 Q 512 448 512 438 L 512 418 Q 512 408 522 408 Z" stroke-miterlimit="10"/></g><g transform="translate(-30,-6) scale(1,1)"><g><path fill="none" stroke="none"/><text fill="#000000" stroke="none" font-family="Arial" font-size="13px" font-style="normal" font-weight="bold" text-decoration="none" x="522.28271484375" y="427.5">activer la découverte réseau</text></g></g><g transform="translate(-30,-6) scale(1,1)"><path fill="none" stroke="#000000" d="M 603 487 L 603 449" stroke-miterlimit="10"/></g><g transform="translate(-30,-6) scale(1,1)"><path fill="none" stroke="#000000" d="M 607.209517756016 459.16267485762415 L 603 449 L 598.790482243984 459.16267485762415" stroke-miterlimit="10"/></g><g transform="translate(-30,-6) scale(1,1)"><g><path fill="none" stroke="none"/><text fill="#000000" stroke="none" font-family="Arial" font-size="13px" font-style="normal" font-weight="normal" text-decoration="none" x="615.5" y="475.5">réseau non découvert</text></g></g><g transform="translate(-30,-6) scale(1,1)"><path fill="none" stroke="#000000" d="M 529 449 L 450 471" stroke-miterlimit="10"/></g><g transform="translate(-30,-6) scale(1,1)"><path fill="none" stroke="#000000" d="M 458.66084286665637 464.2184219506749 L 450 471 L 460.91944054762746 472.32884089598025" stroke-miterlimit="10"/></g><g transform="translate(-30,-6) scale(1,1)"><path fill="#C0C0C0" stroke="none" d="M 545 607 L 674.1689453125 607 Q 684.1689453125 607 684.1689453125 617 L 684.1689453125 637 Q 684.1689453125 647 674.1689453125 647 L 545 647 Q 535 647 535 637 L 535 617 Q 535 607 545 607 Z" opacity="0.2"/></g><g transform="translate(-30,-6) scale(1,1)"><path fill="#ffffff" stroke="none" d="M 538 600 L 667.1689453125 600 Q 677.1689453125 600 677.1689453125 610 L 677.1689453125 630 Q 677.1689453125 640 667.1689453125 640 L 538 640 Q 528 640 528 630 L 528 610 Q 528 600 538 600 Z"/></g><g transform="translate(-30,-6) scale(1,1)"><path fill="none" stroke="#000000" d="M 538 600 L 667.1689453125 600 Q 677.1689453125 600 677.1689453125 610 L 677.1689453125 630 Q 677.1689453125 640 667.1689453125 640 L 538 640 Q 528 640 528 630 L 528 610 Q 528 600 538 600 Z" stroke-miterlimit="10"/></g><g transform="translate(-30,-6) scale(1,1)"><g><path fill="none" stroke="none"/><text fill="#000000" stroke="none" font-family="Arial" font-size="13px" font-style="normal" font-weight="bold" text-decoration="none" x="537.911376953125" y="619.5">séléctionner machines</text></g></g><g transform="translate(-30,-6) scale(1,1)"><path fill="none" stroke="#000000" d="M 603 507 L 602 599" stroke-miterlimit="10"/></g><g transform="translate(-30,-6) scale(1,1)"><path fill="none" stroke="#000000" d="M 597.9011882260562 588.7921725111668 L 602 599 L 606.3197264383736 588.8836783613007" stroke-miterlimit="10"/></g><g transform="translate(-30,-6) scale(1,1)"><g><path fill="none" stroke="none"/><text fill="#000000" stroke="none" font-family="Arial" font-size="13px" font-style="normal" font-weight="normal" text-decoration="none" x="614.5" y="552.5">réseau découvert</text></g></g><g transform="translate(-30,-6) scale(1,1)"><path fill="#C0C0C0" stroke="none" d="M 81 599 L 228.22802734375 599 Q 238.22802734375 599 238.22802734375 609 L 238.22802734375 636 Q 238.22802734375 646 228.22802734375 646 L 81 646 Q 71 646 71 636 L 71 609 Q 71 599 81 599 Z" opacity="0.2"/></g><g transform="translate(-30,-6) scale(1,1)"><path fill="#ffffff" stroke="none" d="M 74 592 L 221.22802734375 592 Q 231.22802734375 592 231.22802734375 602 L 231.22802734375 629 Q 231.22802734375 639 221.22802734375 639 L 74 639 Q 64 639 64 629 L 64 602 Q 64 592 74 592 Z"/></g><g transform="translate(-30,-6) scale(1,1)"><path fill="none" stroke="#000000" d="M 74 592 L 221.22802734375 592 Q 231.22802734375 592 231.22802734375 602 L 231.22802734375 629 Q 231.22802734375 639 221.22802734375 639 L 74 639 Q 64 639 64 629 L 64 602 Q 64 592 74 592 Z" stroke-miterlimit="10"/></g><g transform="translate(-30,-6) scale(1,1)"><g><path fill="none" stroke="none"/><text fill="#000000" stroke="none" font-family="Arial" font-size="13px" font-style="normal" font-weight="bold" text-decoration="none" x="75.352294921875" y="611.5">séléctionner des logiciels</text></g></g><g transform="translate(-30,-6) scale(1,1)"><path fill="none" stroke="#000000" d="M 146 520 L 147 591" stroke-miterlimit="10"/></g><g transform="translate(-30,-6) scale(1,1)"><path fill="none" stroke="#000000" d="M 142.64777763941728 580.8976160969777 L 147 591 L 151.06597821957712 580.7790498916233" stroke-miterlimit="10"/></g><g transform="translate(-30,-6) scale(1,1)"><path fill="#C0C0C0" stroke="none" d="M 201 823 L 321.498046875 823 Q 331.498046875 823 331.498046875 833 L 331.498046875 853 Q 331.498046875 863 321.498046875 863 L 201 863 Q 191 863 191 853 L 191 833 Q 191 823 201 823 Z" opacity="0.2"/></g><g transform="translate(-30,-6) scale(1,1)"><path fill="#ffffff" stroke="none" d="M 194 816 L 314.498046875 816 Q 324.498046875 816 324.498046875 826 L 324.498046875 846 Q 324.498046875 856 314.498046875 856 L 194 856 Q 184 856 184 846 L 184 826 Q 184 816 194 816 Z"/></g><g transform="translate(-30,-6) scale(1,1)"><path fill="none" stroke="#000000" d="M 194 816 L 314.498046875 816 Q 324.498046875 816 324.498046875 826 L 324.498046875 846 Q 324.498046875 856 314.498046875 856 L 194 856 Q 184 856 184 846 L 184 826 Q 184 816 194 816 Z" stroke-miterlimit="10"/></g><g transform="translate(-30,-6) scale(1,1)"><g><path fill="none" stroke="none"/><text fill="#000000" stroke="none" font-family="Arial" font-size="13px" font-style="normal" font-weight="bold" text-decoration="none" x="194.63818359375" y="835.5">installer des logiciels</text></g></g><g transform="translate(-30,-6) scale(1,1)"><path fill="#C0C0C0" stroke="none" d="M 393 823 L 535.89892578125 823 Q 545.89892578125 823 545.89892578125 833 L 545.89892578125 853 Q 545.89892578125 863 535.89892578125 863 L 393 863 Q 383 863 383 853 L 383 833 Q 383 823 393 823 Z" opacity="0.2"/></g><g transform="translate(-30,-6) scale(1,1)"><path fill="#ffffff" stroke="none" d="M 386 816 L 528.89892578125 816 Q 538.89892578125 816 538.89892578125 826 L 538.89892578125 846 Q 538.89892578125 856 528.89892578125 856 L 386 856 Q 376 856 376 846 L 376 826 Q 376 816 386 816 Z"/></g><g transform="translate(-30,-6) scale(1,1)"><path fill="none" stroke="#000000" d="M 386 816 L 528.89892578125 816 Q 538.89892578125 816 538.89892578125 826 L 538.89892578125 846 Q 538.89892578125 856 528.89892578125 856 L 386 856 Q 376 856 376 846 L 376 826 Q 376 816 386 816 Z" stroke-miterlimit="10"/></g><g transform="translate(-30,-6) scale(1,1)"><g><path fill="none" stroke="none"/><text fill="#000000" stroke="none" font-family="Arial" font-size="13px" font-style="normal" font-weight="bold" text-decoration="none" x="387.358642578125" y="835.5">désinstaller des logiciels</text></g></g><g transform="translate(-30,-6) scale(1,1)"><path fill="#C0C0C0" stroke="none" d="M 769 687 L 836.74267578125 687 Q 846.74267578125 687 846.74267578125 697 L 846.74267578125 717 Q 846.74267578125 727 836.74267578125 727 L 769 727 Q 759 727 759 717 L 759 697 Q 759 687 769 687 Z" opacity="0.2"/></g><g transform="translate(-30,-6) scale(1,1)"><path fill="#ffffff" stroke="none" d="M 762 680 L 829.74267578125 680 Q 839.74267578125 680 839.74267578125 690 L 839.74267578125 710 Q 839.74267578125 720 829.74267578125 720 L 762 720 Q 752 720 752 710 L 752 690 Q 752 680 762 680 Z"/></g><g transform="translate(-30,-6) scale(1,1)"><path fill="none" stroke="#000000" d="M 762 680 L 829.74267578125 680 Q 839.74267578125 680 839.74267578125 690 L 839.74267578125 710 Q 839.74267578125 720 829.74267578125 720 L 762 720 Q 752 720 752 710 L 752 690 Q 752 680 762 680 Z" stroke-miterlimit="10"/></g><g transform="translate(-30,-6) scale(1,1)"><g><path fill="none" stroke="none"/><text fill="#000000" stroke="none" font-family="Arial" font-size="13px" font-style="normal" font-weight="bold" text-decoration="none" x="759.385009765625" y="699.5">mettre à jour</text></g></g><g transform="translate(-30,-6) scale(1,1)"><path fill="#C0C0C0" stroke="none" d="M 791 624.5 L 802.5 615 L 813 624.5 L 802.5 633 L 791 624.5" opacity="0.2"/></g><g transform="translate(-30,-6) scale(1,1)"><path fill="#ffffff" stroke="none" d="M 784 617 L 795 608 L 806 617 L 795 626 L 784 617"/></g><g transform="translate(-30,-6) scale(1,1)"><path fill="none" stroke="#000000" d="M 784 617 L 795 608 L 806 617 L 795 626 L 784 617 L 784 617" stroke-miterlimit="10"/></g><g transform="translate(-30,-6) scale(1,1)"><path fill="none" stroke="#000000" d="M 678 619 L 783 617" stroke-miterlimit="10"/></g><g transform="translate(-30,-6) scale(1,1)"><path fill="none" stroke="#000000" d="M 772.9193349591999 621.4022939855477 L 783 617 L 772.7590014608226 612.9847853207376" stroke-miterlimit="10"/></g><g transform="translate(-30,-6) scale(1,1)"><path fill="none" stroke="#000000" d="M 795 627 L 795 679" stroke-miterlimit="10"/></g><g transform="translate(-30,-6) scale(1,1)"><path fill="none" stroke="#000000" d="M 790.790482243984 668.8373251423759 L 795 679 L 799.209517756016 668.8373251423759" stroke-miterlimit="10"/></g><g transform="translate(-30,-6) scale(1,1)"><g><path fill="none" stroke="none"/><text fill="#000000" stroke="none" font-family="Arial" font-size="13px" font-style="normal" font-weight="normal" text-decoration="none" x="806.5" y="658.5">mises à jour requises</text></g></g><g transform="translate(-30,-6) scale(1,1)"><path fill="none" stroke="#000000" d="M 795 607 L 792 512 L 615 498" stroke-miterlimit="10"/></g><g transform="translate(-30,-6) scale(1,1)"><path fill="none" stroke="#000000" d="M 625.4629530130728 494.60491321963195 L 615 498 L 624.7991139118951 502.997736141665" stroke-miterlimit="10"/></g><g transform="translate(-30,-6) scale(1,1)"><path fill="#C0C0C0" stroke="none" d="M 351 752.5 L 362.5 743 L 373 752.5 L 362.5 761 L 351 752.5" opacity="0.2"/></g><g transform="translate(-30,-6) scale(1,1)"><path fill="#ffffff" stroke="none" d="M 344 745 L 355 736 L 366 745 L 355 754 L 344 745"/></g><g transform="translate(-30,-6) scale(1,1)"><path fill="none" stroke="#000000" d="M 344 745 L 355 736 L 366 745 L 355 754 L 344 745 L 344 745" stroke-miterlimit="10"/></g><g transform="translate(-30,-6) scale(1,1)"><path fill="#C0C0C0" stroke="none" d="M 274 711 L 451 711 Q 454 711 454 714 L 454 713 Q 454 716 451 716 L 274 716 Q 271 716 271 713 L 271 714 Q 271 711 274 711 Z" opacity="0.2"/></g><g transform="translate(-30,-6) scale(1,1)"><path fill="#000000" stroke="none" d="M 267 704 L 444 704 Q 447 704 447 707 L 447 707 Q 447 710 444 710 L 267 710 Q 264 710 264 707 L 264 707 Q 264 704 267 704 Z"/></g><g transform="translate(-30,-6) scale(1,1)"><path fill="none" stroke="#000000" d="M 149 640 L 152 672 L 304 672 L 351 703" stroke-miterlimit="10"/></g><g transform="translate(-30,-6) scale(1,1)"><path fill="none" stroke="#000000" d="M 340.1987383227676 700.9184750349921 L 351 703 L 344.8342150406248 693.8904942046923" stroke-miterlimit="10"/></g><g transform="translate(-30,-6) scale(1,1)"><path fill="none" stroke="#000000" d="M 601 641 L 600 672 L 416 672 L 360 703" stroke-miterlimit="10"/></g><g transform="translate(-30,-6) scale(1,1)"><path fill="none" stroke="#000000" d="M 366.85251889927645 694.3951766586955 L 360 703 L 370.92999151743606 701.7609336463387" stroke-miterlimit="10"/></g><g transform="translate(-30,-6) scale(1,1)"><path fill="none" stroke="#000000" d="M 355 710 L 355 735" stroke-miterlimit="10"/></g><g transform="translate(-30,-6) scale(1,1)"><path fill="none" stroke="#000000" d="M 350.790482243984 724.8373251423759 L 355 735 L 359.209517756016 724.8373251423759" stroke-miterlimit="10"/></g><g transform="translate(-30,-6) scale(1,1)"><path fill="none" stroke="#000000" d="M 367 743 L 472 728 L 472 544 L 421 520" stroke-miterlimit="10"/></g><g transform="translate(-30,-6) scale(1,1)"><path fill="none" stroke="#000000" d="M 431.9877784604558 520.5183864426701 L 421 520 L 428.4029780906765 528.136087228451" stroke-miterlimit="10"/></g><g transform="translate(-30,-6) scale(1,1)"><g><path fill="none" stroke="none"/><text fill="#000000" stroke="none" font-family="Arial" font-size="13px" font-style="normal" font-weight="normal" text-decoration="none" x="291.5" y="556.5">aucune machine sélectionnée</text></g></g><g transform="translate(-30,-6) scale(1,1)"><path fill="none" stroke="#000000" d="M 343 745 L 248 744 L 248 560 L 185 520" stroke-miterlimit="10"/></g><g transform="translate(-30,-6) scale(1,1)"><path fill="none" stroke="#000000" d="M 195.83579612066447 521.8935475783283 L 185 520 L 191.32312458334147 529.001005249612" stroke-miterlimit="10"/></g><g transform="translate(-30,-6) scale(1,1)"><g><path fill="none" stroke="none"/><text fill="#000000" stroke="none" font-family="Arial" font-size="13px" font-style="normal" font-weight="normal" text-decoration="none" x="252.5" y="602.5">aucun logiciel sélectionné</text></g></g><g transform="translate(-30,-6) scale(1,1)"><path fill="none" stroke="#000000" d="M 344 755 L 277 815" stroke-miterlimit="10"/></g><g transform="translate(-30,-6) scale(1,1)"><path fill="none" stroke="#000000" d="M 281.7624365195938 805.0843962162237 L 277 815 L 287.37894183304246 811.356160482908" stroke-miterlimit="10"/></g><g transform="translate(-30,-6) scale(1,1)"><path fill="none" stroke="#000000" d="M 366 755 L 433 815" stroke-miterlimit="10"/></g><g transform="translate(-30,-6) scale(1,1)"><path fill="none" stroke="#000000" d="M 422.62105816695754 811.356160482908 L 433 815 L 428.2375634804062 805.0843962162237" stroke-miterlimit="10"/></g><g transform="translate(-30,-6) scale(1,1)"><path fill="none" stroke="#000000" d="M 794 721 L 792 744 L 367 745" stroke-miterlimit="10"/></g><g transform="translate(-30,-6) scale(1,1)"><path fill="none" stroke="#000000" d="M 377.1527420055257 740.766581786637 L 367 745 L 377.1725514460124 749.185593993477" stroke-miterlimit="10"/></g><g transform="translate(-30,-6) scale(1,1)"><path fill="#C0C0C0" stroke="none" d="M 305 951 L 436 951 Q 446 951 446 961 L 446 981 Q 446 991 436 991 L 305 991 Q 295 991 295 981 L 295 961 Q 295 951 305 951 Z" opacity="0.2"/></g><g transform="translate(-30,-6) scale(1,1)"><path fill="#ffffff" stroke="none" d="M 298 944 L 429 944 Q 439 944 439 954 L 439 974 Q 439 984 429 984 L 298 984 Q 288 984 288 974 L 288 954 Q 288 944 298 944 Z"/></g><g transform="translate(-30,-6) scale(1,1)"><path fill="none" stroke="#000000" d="M 298 944 L 429 944 Q 439 944 439 954 L 439 974 Q 439 984 429 984 L 298 984 Q 288 984 288 974 L 288 954 Q 288 944 298 944 Z" stroke-miterlimit="10"/></g><g transform="translate(-30,-6) scale(1,1)"><g><path fill="none" stroke="none"/><text fill="#000000" stroke="none" font-family="Arial" font-size="13px" font-style="normal" font-weight="bold" text-decoration="none" x="321.589599609375" y="963.5">quitter le client</text></g></g><g transform="translate(-30,-6) scale(1,1)"><path fill="none" stroke="#000000" d="M 287 857 L 351 897" stroke-miterlimit="10"/></g><g transform="translate(-30,-6) scale(1,1)"><path fill="none" stroke="#000000" d="M 340.15102900796654 895.1834570156431 L 351 897 L 344.61310890519263 888.0441291800814" stroke-miterlimit="10"/></g><g transform="translate(-30,-6) scale(1,1)"><path fill="none" stroke="#000000" d="M 428 857 L 375 896" stroke-miterlimit="10"/></g><g transform="translate(-30,-6) scale(1,1)"><path fill="none" stroke="#000000" d="M 380.69050165001806 886.5862764555601 L 375 896 L 385.6803000595699 893.3672845505921" stroke-miterlimit="10"/></g><g transform="translate(-30,-6) scale(1,1)"><path fill="#C0C0C0" stroke="none" d="M 359 912.5 L 370.5 903 L 381 912.5 L 370.5 921 L 359 912.5" opacity="0.2"/></g><g transform="translate(-30,-6) scale(1,1)"><path fill="#ffffff" stroke="none" d="M 352 905 L 363 896 L 374 905 L 363 914 L 352 905"/></g><g transform="translate(-30,-6) scale(1,1)"><path fill="none" stroke="#000000" d="M 352 905 L 363 896 L 374 905 L 363 914 L 352 905 L 352 905" stroke-miterlimit="10"/></g><g transform="translate(-30,-6) scale(1,1)"><path fill="none" stroke="#000000" d="M 351 905 L 40 904 L 48 408 L 143 377" stroke-miterlimit="10"/></g><g transform="translate(-30,-6) scale(1,1)"><path fill="none" stroke="#000000" d="M 134.6445585320771 384.15448096483 L 143 377 L 132.0328286721231 376.1507926843258" stroke-miterlimit="10"/></g><g transform="translate(-30,-6) scale(1,1)"><g><path fill="none" stroke="none"/><text fill="#000000" stroke="none" font-family="Arial" font-size="13px" font-style="normal" font-weight="normal" text-decoration="none" x="47.5" y="891.5">opérations restantes</text></g></g><g transform="translate(-30,-6) scale(1,1)"><path fill="none" stroke="#000000" d="M 363 915 L 363 943" stroke-miterlimit="10"/></g><g transform="translate(-30,-6) scale(1,1)"><path fill="none" stroke="#000000" d="M 358.790482243984 932.8373251423759 L 363 943 L 367.209517756016 932.8373251423759" stroke-miterlimit="10"/></g><g transform="translate(-30,-6) scale(1,1)"><g><path fill="none" stroke="none"/><text fill="#000000" stroke="none" font-family="Arial" font-size="13px" font-style="normal" font-weight="normal" text-decoration="none" x="367.5" y="934.5">opérations terminées</text></g></g><g transform="translate(-30,-6) scale(1,1)"><path fill="#C0C0C0" stroke="none" d="M 359 1027.5 C 359 1020.59644 364.59644 1015 371.5 1015 C 378.40356 1015 384 1020.59644 384 1027.5 C 384 1034.40356 378.40356 1040 371.5 1040 C 364.59644 1040 359 1034.40356 359 1027.5 Z" opacity="0.2"/></g><g transform="translate(-30,-6) scale(1,1)"><path fill="none" stroke="#000000" d="M 352 1020.5 C 352 1013.59644 357.59644 1008 364.5 1008 C 371.40356 1008 377 1013.59644 377 1020.5 C 377 1027.40356 371.40356 1033 364.5 1033 C 357.59644 1033 352 1027.40356 352 1020.5 Z" stroke-miterlimit="10"/></g><g transform="translate(-30,-6) scale(1,1)"><path fill="#000000" stroke="none" d="M 357 1020.5 C 357 1016.357864 360.357864 1013 364.5 1013 C 368.642136 1013 372 1016.357864 372 1020.5 C 372 1024.642136 368.642136 1028 364.5 1028 C 360.357864 1028 357 1024.642136 357 1020.5 Z"/></g><g transform="translate(-30,-6) scale(1,1)"><path fill="none" stroke="#000000" d="M 363 985 L 364 1007" stroke-miterlimit="10"/></g><g transform="translate(-30,-6) scale(1,1)"><path fill="none" stroke="#000000" d="M 359.33336089832187 997.0389518877435 L 364 1007 L 367.74371251375516 996.656663177951" stroke-miterlimit="10"/></g></g></svg>