<svg version="1.1" xmlns="http://www.w3.org/2000/svg" xmlns:xlink="http://www.w3.org/1999/xlink" width="1290.93896484375" height="611"><defs/><g><g transform="translate(10,10) scale(1,1)"><rect fill="#C0C0C0" stroke="none" x="207" y="7" width="776" height="560" opacity="0.2"/></g><g transform="translate(10,10) scale(1,1)"><rect fill="#ffffff" stroke="none" x="200" y="0" width="776" height="560"/></g><g transform="translate(10,10) scale(1,1)"><path fill="none" stroke="#000000" d="M 200 0 L 976 0 L 976 560 L 200 560 L 200 0 Z Z" stroke-miterlimit="10"/></g><g transform="translate(10,10) scale(1,1)"><g><path fill="none" stroke="none"/><text fill="#000000" stroke="none" font-family="Arial" font-size="13px" font-style="normal" font-weight="bold" text-decoration="none" x="448.989501953125" y="19.5">Utiliser le menu "gestion logiciels" de Warecloud</text></g></g><g transform="translate(10,10) scale(1,1)"><path fill="#ffffff" stroke="none" d="M 63.35978977272727 209.68 C 63.35978977272727 204.886167936 67.24563209767273 201 72.0390625 201 C 76.83249290232727 201 80.71833522727273 204.886167936 80.71833522727273 209.68 C 80.71833522727273 214.47383206400002 76.83249290232727 218.36 72.0390625 218.36 C 67.24563209767273 218.36 63.35978977272727 214.47383206400002 63.35978977272727 209.68 Z"/></g><g transform="translate(10,10) scale(1,1)"><path fill="none" stroke="#000000" d="M 63.35978977272727 209.68 C 63.35978977272727 204.886167936 67.24563209767273 201 72.0390625 201 C 76.83249290232727 201 80.71833522727273 204.886167936 80.71833522727273 209.68 C 80.71833522727273 214.47383206400002 76.83249290232727 218.36 72.0390625 218.36 C 67.24563209767273 218.36 63.35978977272727 214.47383206400002 63.35978977272727 209.68 Z" stroke-miterlimit="10"/></g><g transform="translate(10,10) scale(1,1)"><path fill="none" stroke="#000000" d="M 72.0390625 218.36 L 72.0390625 235.64" stroke-miterlimit="10"/></g><g transform="translate(10,10) scale(1,1)"><path fill="none" stroke="#000000" d="M 62.84924431818182 224.84 L 81.22888068181818 224.84" stroke-miterlimit="10"/></g><g transform="translate(10,10) scale(1,1)"><path fill="none" stroke="#000000" d="M 72.0390625 235.64 L 59.275426136363635 253" stroke-miterlimit="10"/></g><g transform="translate(10,10) scale(1,1)"><path fill="none" stroke="#000000" d="M 72.0390625 235.64 L 84.80269886363637 253" stroke-miterlimit="10"/></g><g transform="translate(10,10) scale(1,1)"><g><path fill="none" stroke="none"/><text fill="#000000" stroke="none" font-family="Arial" font-size="13px" font-style="normal" font-weight="bold" text-decoration="none" x="10.609619140625" y="273.5">utilisateur_authentifié</text></g></g><g transform="translate(10,10) scale(1,1)"><path fill="#ffffff" stroke="none" d="M 1158.7902096946023 521.6800000000001 C 1158.7902096946023 516.8861679360001 1162.6760520195478 513 1167.469482421875 513 C 1172.2629128242022 513 1176.1487551491477 516.8861679360001 1176.1487551491477 521.6800000000001 C 1176.1487551491477 526.473832064 1172.2629128242022 530.36 1167.469482421875 530.36 C 1162.6760520195478 530.36 1158.7902096946023 526.473832064 1158.7902096946023 521.6800000000001 Z"/></g><g transform="translate(10,10) scale(1,1)"><path fill="none" stroke="#000000" d="M 1158.7902096946023 521.6800000000001 C 1158.7902096946023 516.8861679360001 1162.6760520195478 513 1167.469482421875 513 C 1172.2629128242022 513 1176.1487551491477 516.8861679360001 1176.1487551491477 521.6800000000001 C 1176.1487551491477 526.473832064 1172.2629128242022 530.36 1167.469482421875 530.36 C 1162.6760520195478 530.36 1158.7902096946023 526.473832064 1158.7902096946023 521.6800000000001 Z" stroke-miterlimit="10"/></g><g transform="translate(10,10) scale(1,1)"><path fill="none" stroke="#000000" d="M 1167.469482421875 530.36 L 1167.469482421875 547.64" stroke-miterlimit="10"/></g><g transform="translate(10,10) scale(1,1)"><path fill="none" stroke="#000000" d="M 1158.2796642400567 536.84 L 1176.6593006036933 536.84" stroke-miterlimit="10"/></g><g transform="translate(10,10) scale(1,1)"><path fill="none" stroke="#000000" d="M 1167.469482421875 547.64 L 1154.7058460582386 565" stroke-miterlimit="10"/></g><g transform="translate(10,10) scale(1,1)"><path fill="none" stroke="#000000" d="M 1167.469482421875 547.64 L 1180.2331187855114 565" stroke-miterlimit="10"/></g><g transform="translate(10,10) scale(1,1)"><g><path fill="none" stroke="none"/><text fill="#000000" stroke="none" font-family="Arial" font-size="13px" font-style="normal" font-weight="bold" text-decoration="none" x="1074.58740234375" y="585.5">gestionnaire de base de donnée</text></g></g><g transform="translate(10,10) scale(1,1)"><path fill="#ffffff" stroke="none" d="M 1136.4093503196023 385.68 C 1136.4093503196023 380.886167936 1140.2951926445478 377 1145.088623046875 377 C 1149.8820534492022 377 1153.7678957741477 380.886167936 1153.7678957741477 385.68 C 1153.7678957741477 390.473832064 1149.8820534492022 394.36 1145.088623046875 394.36 C 1140.2951926445478 394.36 1136.4093503196023 390.473832064 1136.4093503196023 385.68 Z"/></g><g transform="translate(10,10) scale(1,1)"><path fill="none" stroke="#000000" d="M 1136.4093503196023 385.68 C 1136.4093503196023 380.886167936 1140.2951926445478 377 1145.088623046875 377 C 1149.8820534492022 377 1153.7678957741477 380.886167936 1153.7678957741477 385.68 C 1153.7678957741477 390.473832064 1149.8820534492022 394.36 1145.088623046875 394.36 C 1140.2951926445478 394.36 1136.4093503196023 390.473832064 1136.4093503196023 385.68 Z" stroke-miterlimit="10"/></g><g transform="translate(10,10) scale(1,1)"><path fill="none" stroke="#000000" d="M 1145.088623046875 394.36 L 1145.088623046875 411.64" stroke-miterlimit="10"/></g><g transform="translate(10,10) scale(1,1)"><path fill="none" stroke="#000000" d="M 1135.8988048650567 400.84 L 1154.2784412286933 400.84" stroke-miterlimit="10"/></g><g transform="translate(10,10) scale(1,1)"><path fill="none" stroke="#000000" d="M 1145.088623046875 411.64 L 1132.3249866832386 429" stroke-miterlimit="10"/></g><g transform="translate(10,10) scale(1,1)"><path fill="none" stroke="#000000" d="M 1145.088623046875 411.64 L 1157.8522594105114 429" stroke-miterlimit="10"/></g><g transform="translate(10,10) scale(1,1)"><g><path fill="none" stroke="none"/><text fill="#000000" stroke="none" font-family="Arial" font-size="13px" font-style="normal" font-weight="bold" text-decoration="none" x="1128.82275390625" y="449.5">agent</text></g></g><g transform="translate(10,10) scale(1,1)"><path fill="#C0C0C0" stroke="none" d="M 263 354.5 C 263 334.8938896 334.4105744 319 422.5 319 C 510.5894256 319 582 334.8938896 582 354.5 C 582 374.1061104 510.5894256 390 422.5 390 C 334.4105744 390 263 374.1061104 263 354.5 Z" opacity="0.2"/></g><g transform="translate(10,10) scale(1,1)"><path fill="#ffffff" stroke="none" d="M 256 347.5 C 256 327.8938896 327.4105744 312 415.5 312 C 503.5894256 312 575 327.8938896 575 347.5 C 575 367.1061104 503.5894256 383 415.5 383 C 327.4105744 383 256 367.1061104 256 347.5 Z"/></g><g transform="translate(10,10) scale(1,1)"><path fill="none" stroke="#000000" d="M 256 347.5 C 256 327.8938896 327.4105744 312 415.5 312 C 503.5894256 312 575 327.8938896 575 347.5 C 575 367.1061104 503.5894256 383 415.5 383 C 327.4105744 383 256 367.1061104 256 347.5 Z" stroke-miterlimit="10"/></g><g transform="translate(10,10) scale(1,1)"><g><path fill="none" stroke="none"/><text fill="#000000" stroke="none" font-family="Arial" font-size="13px" font-style="normal" font-weight="bold" text-decoration="none" x="315.781494140625" y="354.5">Demander les logiciels disponibles</text></g></g><g transform="translate(10,10) scale(1,1)"><path fill="none" stroke="#000000" d="M 145 262 L 301 311" stroke-miterlimit="10"/></g><g transform="translate(10,10) scale(1,1)"><path fill="none" stroke="#000000" d="M 551 384 L 1063 523" stroke-miterlimit="10"/></g><g transform="translate(10,10) scale(1,1)"><g><path fill="none" stroke="none"/><text fill="#000000" stroke="none" font-family="Arial" font-size="13px" font-style="normal" font-weight="normal" text-decoration="none" x="780.550048828125" y="444.5">+interroge</text></g></g><g transform="translate(10,10) scale(1,1)"><path fill="#C0C0C0" stroke="none" d="M 351 72 C 351 62.6111584 378.7583424 55 413 55 C 447.2416576 55 475 62.6111584 475 72 C 475 81.3888416 447.2416576 89 413 89 C 378.7583424 89 351 81.3888416 351 72 Z" opacity="0.2"/></g><g transform="translate(10,10) scale(1,1)"><path fill="#ffffff" stroke="none" d="M 344 65 C 344 55.6111584 371.7583424 48 406 48 C 440.2416576 48 468 55.6111584 468 65 C 468 74.3888416 440.2416576 82 406 82 C 371.7583424 82 344 74.3888416 344 65 Z"/></g><g transform="translate(10,10) scale(1,1)"><path fill="none" stroke="#000000" d="M 344 65 C 344 55.6111584 371.7583424 48 406 48 C 440.2416576 48 468 55.6111584 468 65 C 468 74.3888416 440.2416576 82 406 82 C 371.7583424 82 344 74.3888416 344 65 Z" stroke-miterlimit="10"/></g><g transform="translate(10,10) scale(1,1)"><g><path fill="none" stroke="none"/><text fill="#000000" stroke="none" font-family="Arial" font-size="13px" font-style="normal" font-weight="bold" text-decoration="none" x="369.513671875" y="72">mettre à jour</text></g></g><g transform="translate(10,10) scale(1,1)"><path fill="#ffffff" stroke="none" d="M 288 104 L 438.92626953125 104 L 448.92626953125 114 L 448.92626953125 166 L 288 166 L 288 104"/></g><g transform="translate(10,10) scale(1,1)"><path fill="none" stroke="#000000" d="M 288 104 L 438.92626953125 104 L 448.92626953125 114 L 448.92626953125 166 L 288 166 L 288 104 L 288 104" stroke-miterlimit="10"/></g><g transform="translate(10,10) scale(1,1)"><path fill="none" stroke="#000000" d="M 438.92626953125 104 L 438.92626953125 114 L 448.92626953125 114 L 438.92626953125 104" stroke-miterlimit="10"/></g><g transform="translate(10,10) scale(1,1)"><g><path fill="none" stroke="none"/><text fill="#000000" stroke="none" font-family="Arial" font-size="13px" font-style="normal" font-weight="normal" text-decoration="none" x="293" y="122">Condition : Si mise à jour</text><text fill="#000000" stroke="none" font-family="Arial" font-size="13px" font-style="normal" font-weight="normal" text-decoration="none" x="293" y="135">possible</text></g></g><g transform="translate(10,10) scale(1,1)"><path fill="#ffffff" stroke="none" d="M 1128.4093503196023 113.68 C 1128.4093503196023 108.886167936 1132.2951926445478 105 1137.088623046875 105 C 1141.8820534492022 105 1145.7678957741477 108.886167936 1145.7678957741477 113.68 C 1145.7678957741477 118.473832064 1141.8820534492022 122.36 1137.088623046875 122.36 C 1132.2951926445478 122.36 1128.4093503196023 118.473832064 1128.4093503196023 113.68 Z"/></g><g transform="translate(10,10) scale(1,1)"><path fill="none" stroke="#000000" d="M 1128.4093503196023 113.68 C 1128.4093503196023 108.886167936 1132.2951926445478 105 1137.088623046875 105 C 1141.8820534492022 105 1145.7678957741477 108.886167936 1145.7678957741477 113.68 C 1145.7678957741477 118.473832064 1141.8820534492022 122.36 1137.088623046875 122.36 C 1132.2951926445478 122.36 1128.4093503196023 118.473832064 1128.4093503196023 113.68 Z" stroke-miterlimit="10"/></g><g transform="translate(10,10) scale(1,1)"><path fill="none" stroke="#000000" d="M 1137.088623046875 122.36 L 1137.088623046875 139.64" stroke-miterlimit="10"/></g><g transform="translate(10,10) scale(1,1)"><path fill="none" stroke="#000000" d="M 1127.8988048650567 128.84 L 1146.2784412286933 128.84" stroke-miterlimit="10"/></g><g transform="translate(10,10) scale(1,1)"><path fill="none" stroke="#000000" d="M 1137.088623046875 139.64 L 1124.3249866832386 157" stroke-miterlimit="10"/></g><g transform="translate(10,10) scale(1,1)"><path fill="none" stroke="#000000" d="M 1137.088623046875 139.64 L 1149.8522594105114 157" stroke-miterlimit="10"/></g><g transform="translate(10,10) scale(1,1)"><g><path fill="none" stroke="none"/><text fill="#000000" stroke="none" font-family="Arial" font-size="13px" font-style="normal" font-weight="bold" text-decoration="none" x="1120.470458984375" y="177.5">Client</text></g></g><g transform="translate(10,10) scale(1,1)"><path fill="none" stroke="#000000" d="M 380 207 L 403 83" stroke-miterlimit="10"/></g><g transform="translate(10,10) scale(1,1)"><path fill="none" stroke="#000000" d="M 469 72 L 1111 140" stroke-miterlimit="10" stroke-dasharray="3"/></g><g transform="translate(10,10) scale(1,1)"><path fill="none" stroke="#000000" d="M 1100.450468894681 143.11566902252278 L 1111 140 L 1101.3372443233318 134.74346571084928" stroke-miterlimit="10"/></g><g transform="translate(10,10) scale(1,1)"><g><path fill="none" stroke="none"/><text fill="#000000" stroke="none" font-family="Arial" font-size="13px" font-style="normal" font-weight="normal" text-decoration="none" x="762.5" y="97.5">+depends</text></g></g><g transform="translate(10,10) scale(1,1)"><path fill="none" stroke="#000000" d="M 542 311 L 1111 150" stroke-miterlimit="10" stroke-dasharray="3"/></g><g transform="translate(10,10) scale(1,1)"><path fill="none" stroke="#000000" d="M 1102.3673404430726 156.81741805775417 L 1111 150 L 1100.0751453488003 148.71643042644345" stroke-miterlimit="10"/></g><g transform="translate(10,10) scale(1,1)"><g><path fill="none" stroke="none"/><text fill="#000000" stroke="none" font-family="Arial" font-size="13px" font-style="normal" font-weight="normal" text-decoration="none" x="792.5" y="221.5">+depends</text></g></g><g transform="translate(10,10) scale(1,1)"><path fill="#C0C0C0" stroke="none" d="M 263 495 C 263 481.7451648 333.51514399999996 471 420.5 471 C 507.48485600000004 471 578 481.7451648 578 495 C 578 508.2548352 507.48485600000004 519 420.5 519 C 333.51514399999996 519 263 508.2548352 263 495 Z" opacity="0.2"/></g><g transform="translate(10,10) scale(1,1)"><path fill="#ffffff" stroke="none" d="M 256 488 C 256 474.7451648 326.51514399999996 464 413.5 464 C 500.48485600000004 464 571 474.7451648 571 488 C 571 501.2548352 500.48485600000004 512 413.5 512 C 326.51514399999996 512 256 501.2548352 256 488 Z"/></g><g transform="translate(10,10) scale(1,1)"><path fill="none" stroke="#000000" d="M 256 488 C 256 474.7451648 326.51514399999996 464 413.5 464 C 500.48485600000004 464 571 474.7451648 571 488 C 571 501.2548352 500.48485600000004 512 413.5 512 C 326.51514399999996 512 256 501.2548352 256 488 Z" stroke-miterlimit="10"/></g><g transform="translate(10,10) scale(1,1)"><g><path fill="none" stroke="none"/><text fill="#000000" stroke="none" font-family="Arial" font-size="13px" font-style="normal" font-weight="bold" text-decoration="none" x="315.958740234375" y="495">Afficher les informations récoltées</text></g></g><g transform="translate(10,10) scale(1,1)"><path fill="#C0C0C0" stroke="none" d="M 271 251 C 271 231.1177472 320.02481439999997 215 380.5 215 C 440.97518560000003 215 490 231.1177472 490 251 C 490 270.8822528 440.97518560000003 287 380.5 287 C 320.02481439999997 287 271 270.8822528 271 251 Z" opacity="0.2"/></g><g transform="translate(10,10) scale(1,1)"><path fill="#ffffff" stroke="none" d="M 264 244 C 264 224.1177472 313.02481439999997 208 373.5 208 C 433.97518560000003 208 483 224.1177472 483 244 C 483 263.8822528 433.97518560000003 280 373.5 280 C 313.02481439999997 280 264 263.8822528 264 244 Z"/></g><g transform="translate(10,10) scale(1,1)"><path fill="none" stroke="#000000" d="M 264 244 C 264 224.1177472 313.02481439999997 208 373.5 208 C 433.97518560000003 208 483 224.1177472 483 244 C 483 263.8822528 433.97518560000003 280 373.5 280 C 313.02481439999997 280 264 263.8822528 264 244 Z" stroke-miterlimit="10"/></g><g transform="translate(10,10) scale(1,1)"><g><path fill="none" stroke="none"/><text fill="#000000" stroke="none" font-family="Arial" font-size="13px" font-style="normal" font-weight="bold" text-decoration="none" x="306.65283203125" y="251">Sélectionner un logiciel</text></g></g><g transform="translate(10,10) scale(1,1)"><path fill="#C0C0C0" stroke="none" d="M 607 240 C 607 230.6111584 629.6096176 223 657.5 223 C 685.3903824 223 708 230.6111584 708 240 C 708 249.3888416 685.3903824 257 657.5 257 C 629.6096176 257 607 249.3888416 607 240 Z" opacity="0.2"/></g><g transform="translate(10,10) scale(1,1)"><path fill="#ffffff" stroke="none" d="M 600 233 C 600 223.6111584 622.6096176 216 650.5 216 C 678.3903824 216 701 223.6111584 701 233 C 701 242.3888416 678.3903824 250 650.5 250 C 622.6096176 250 600 242.3888416 600 233 Z"/></g><g transform="translate(10,10) scale(1,1)"><path fill="none" stroke="#000000" d="M 600 233 C 600 223.6111584 622.6096176 216 650.5 216 C 678.3903824 216 701 223.6111584 701 233 C 701 242.3888416 678.3903824 250 650.5 250 C 622.6096176 250 600 242.3888416 600 233 Z" stroke-miterlimit="10"/></g><g transform="translate(10,10) scale(1,1)"><g><path fill="none" stroke="none"/><text fill="#000000" stroke="none" font-family="Arial" font-size="13px" font-style="normal" font-weight="bold" text-decoration="none" x="628.102294921875" y="240">installer</text></g></g><g transform="translate(10,10) scale(1,1)"><path fill="none" stroke="#000000" d="M 145 240 L 263 242" stroke-miterlimit="10"/></g><g transform="translate(10,10) scale(1,1)"><path fill="none" stroke="#000000" d="M 484 240 L 599 235" stroke-miterlimit="10"/></g><g transform="translate(10,10) scale(1,1)"><path fill="none" stroke="#000000" d="M 686 251 L 870 344 L 1119 408" stroke-miterlimit="10"/></g><g transform="translate(10,10) scale(1,1)"><g><path fill="none" stroke="none"/><text fill="#000000" stroke="none" font-family="Arial" font-size="13px" font-style="normal" font-weight="normal" text-decoration="none" x="846.5" y="335.5">+execute</text></g></g><g transform="translate(10,10) scale(1,1)"><path fill="none" stroke="#000000" d="M 413 463 L 414 384" stroke-miterlimit="10" stroke-dasharray="3"/></g><g transform="translate(10,10) scale(1,1)"><path fill="none" stroke="#000000" d="M 418.0805494005072 394.21514153548645 L 414 384 L 409.6621883015425 394.10858000258816" stroke-miterlimit="10"/></g><g transform="translate(10,10) scale(1,1)"><g><path fill="none" stroke="none"/><text fill="#000000" stroke="none" font-family="Arial" font-size="13px" font-style="normal" font-weight="normal" text-decoration="none" x="355.5" y="428.5">«include»</text></g></g><g transform="translate(10,10) scale(1,1)"><path fill="none" stroke="#000000" d="M 1144 375 L 1138 184" stroke-miterlimit="10" stroke-dasharray="3"/></g><g transform="translate(10,10) scale(1,1)"><path fill="none" stroke="#000000" d="M 1142.526531212772 194.02549326366542 L 1138 184 L 1134.111646644326 194.28983518728154" stroke-miterlimit="10"/></g><g transform="translate(10,10) scale(1,1)"><path fill="none" stroke="#000000" d="M 444 83 L 1119 403" stroke-miterlimit="10" stroke-dasharray="3"/></g><g transform="translate(10,10) scale(1,1)"><path fill="none" stroke="#000000" d="M 1108.0137435685408 402.45030042548734 L 1119 403 L 1111.6202398742141 394.84284728070753" stroke-miterlimit="10"/></g><g transform="translate(10,10) scale(1,1)"><path fill="#C0C0C0" stroke="none" d="M 703 352 C 703 342.6111584 728.743624 335 760.5 335 C 792.256376 335 818 342.6111584 818 352 C 818 361.3888416 792.256376 369 760.5 369 C 728.743624 369 703 361.3888416 703 352 Z" opacity="0.2"/></g><g transform="translate(10,10) scale(1,1)"><path fill="#ffffff" stroke="none" d="M 696 345 C 696 335.6111584 721.743624 328 753.5 328 C 785.256376 328 811 335.6111584 811 345 C 811 354.3888416 785.256376 362 753.5 362 C 721.743624 362 696 354.3888416 696 345 Z"/></g><g transform="translate(10,10) scale(1,1)"><path fill="none" stroke="#000000" d="M 696 345 C 696 335.6111584 721.743624 328 753.5 328 C 785.256376 328 811 335.6111584 811 345 C 811 354.3888416 785.256376 362 753.5 362 C 721.743624 362 696 354.3888416 696 345 Z" stroke-miterlimit="10"/></g><g transform="translate(10,10) scale(1,1)"><g><path fill="none" stroke="none"/><text fill="#000000" stroke="none" font-family="Arial" font-size="13px" font-style="normal" font-weight="bold" text-decoration="none" x="720.622314453125" y="352">désinstaller</text></g></g><g transform="translate(10,10) scale(1,1)"><path fill="none" stroke="#000000" d="M 484 274 L 695 330" stroke-miterlimit="10"/></g><g transform="translate(10,10) scale(1,1)"><path fill="none" stroke="#000000" d="M 812 344 L 864 344 L 1119 408" stroke-miterlimit="10"/></g><g transform="translate(10,10) scale(1,1)"><path fill="#C0C0C0" stroke="none" d="M 727 520 C 727 510.6111584 749.6096176 503 777.5 503 C 805.3903824 503 828 510.6111584 828 520 C 828 529.3888416 805.3903824 537 777.5 537 C 749.6096176 537 727 529.3888416 727 520 Z" opacity="0.2"/></g><g transform="translate(10,10) scale(1,1)"><path fill="#ffffff" stroke="none" d="M 720 513 C 720 503.6111584 742.6096176 496 770.5 496 C 798.3903824 496 821 503.6111584 821 513 C 821 522.3888416 798.3903824 530 770.5 530 C 742.6096176 530 720 522.3888416 720 513 Z"/></g><g transform="translate(10,10) scale(1,1)"><path fill="none" stroke="#000000" d="M 720 513 C 720 503.6111584 742.6096176 496 770.5 496 C 798.3903824 496 821 503.6111584 821 513 C 821 522.3888416 798.3903824 530 770.5 530 C 742.6096176 530 720 522.3888416 720 513 Z" stroke-miterlimit="10"/></g><g transform="translate(10,10) scale(1,1)"><g><path fill="none" stroke="none"/><text fill="#000000" stroke="none" font-family="Arial" font-size="13px" font-style="normal" font-weight="bold" text-decoration="none" x="742.681396484375" y="520">actualiser</text></g></g><g transform="translate(10,10) scale(1,1)"><path fill="none" stroke="#000000" d="M 719 509 L 572 499" stroke-miterlimit="10" stroke-dasharray="3"/></g><g transform="translate(10,10) scale(1,1)"><path fill="none" stroke="#000000" d="M 582.4249426913726 495.48993306593775 L 572 499 L 581.8535398020448 503.88955553905663" stroke-miterlimit="10"/></g><g transform="translate(10,10) scale(1,1)"><g><path fill="none" stroke="none"/><text fill="#000000" stroke="none" font-family="Arial" font-size="13px" font-style="normal" font-weight="normal" text-decoration="none" x="614.5" y="539.5">«include»</text></g></g><g transform="translate(10,10) scale(1,1)"><path fill="none" stroke="#000000" d="M 822 518 L 1063 541" stroke-miterlimit="10"/></g></g></svg>