<svg version="1.1" xmlns="http://www.w3.org/2000/svg" xmlns:xlink="http://www.w3.org/1999/xlink" width="1378.93896484375" height="596"><defs/><g><g transform="translate(10,10) scale(1,1)"><rect fill="#C0C0C0" stroke="none" x="343" y="7" width="800" height="576" opacity="0.2"/></g><g transform="translate(10,10) scale(1,1)"><rect fill="#ffffff" stroke="none" x="336" y="0" width="800" height="576"/></g><g transform="translate(10,10) scale(1,1)"><path fill="none" stroke="#000000" d="M 336 0 L 1136 0 L 1136 576 L 336 576 L 336 0 Z Z" stroke-miterlimit="10"/></g><g transform="translate(10,10) scale(1,1)"><g><path fill="none" stroke="none"/><text fill="#000000" stroke="none" font-family="Arial" font-size="13px" font-style="normal" font-weight="bold" text-decoration="none" x="698.26318359375" y="19.5">S'authentifier</text></g></g><g transform="translate(10,10) scale(1,1)"><path fill="#ffffff" stroke="none" d="M 69.55070774147727 9.68 C 69.55070774147727 4.886167936 73.43655006642273 1 78.22998046875 1 C 83.02341087107727 1 86.90925319602273 4.886167936 86.90925319602273 9.68 C 86.90925319602273 14.473832064 83.02341087107727 18.36 78.22998046875 18.36 C 73.43655006642273 18.36 69.55070774147727 14.473832064 69.55070774147727 9.68 Z"/></g><g transform="translate(10,10) scale(1,1)"><path fill="none" stroke="#000000" d="M 69.55070774147727 9.68 C 69.55070774147727 4.886167936 73.43655006642273 1 78.22998046875 1 C 83.02341087107727 1 86.90925319602273 4.886167936 86.90925319602273 9.68 C 86.90925319602273 14.473832064 83.02341087107727 18.36 78.22998046875 18.36 C 73.43655006642273 18.36 69.55070774147727 14.473832064 69.55070774147727 9.68 Z" stroke-miterlimit="10"/></g><g transform="translate(10,10) scale(1,1)"><path fill="none" stroke="#000000" d="M 78.22998046875 18.36 L 78.22998046875 35.64" stroke-miterlimit="10"/></g><g transform="translate(10,10) scale(1,1)"><path fill="none" stroke="#000000" d="M 69.04016228693182 24.84 L 87.41979865056818 24.84" stroke-miterlimit="10"/></g><g transform="translate(10,10) scale(1,1)"><path fill="none" stroke="#000000" d="M 78.22998046875 35.64 L 65.46634410511363 53" stroke-miterlimit="10"/></g><g transform="translate(10,10) scale(1,1)"><path fill="none" stroke="#000000" d="M 78.22998046875 35.64 L 90.99361683238637 53" stroke-miterlimit="10"/></g><g transform="translate(10,10) scale(1,1)"><g><path fill="none" stroke="none"/><text fill="#000000" stroke="none" font-family="Arial" font-size="13px" font-style="normal" font-weight="bold" text-decoration="none" x="18.609619140625" y="73.5">utilisateur authentifié</text></g></g><g transform="translate(10,10) scale(1,1)"><path fill="#C0C0C0" stroke="none" d="M 791 511 C 791 488.908608 839.5770992 471 899.5 471 C 959.4229008 471 1008 488.908608 1008 511 C 1008 533.091392 959.4229008 551 899.5 551 C 839.5770992 551 791 533.091392 791 511 Z" opacity="0.2"/></g><g transform="translate(10,10) scale(1,1)"><path fill="#ffffff" stroke="none" d="M 784 504 C 784 481.908608 832.5770992 464 892.5 464 C 952.4229008 464 1001 481.908608 1001 504 C 1001 526.091392 952.4229008 544 892.5 544 C 832.5770992 544 784 526.091392 784 504 Z"/></g><g transform="translate(10,10) scale(1,1)"><path fill="none" stroke="#000000" d="M 784 504 C 784 481.908608 832.5770992 464 892.5 464 C 952.4229008 464 1001 481.908608 1001 504 C 1001 526.091392 952.4229008 544 892.5 544 C 832.5770992 544 784 526.091392 784 504 Z" stroke-miterlimit="10"/></g><g transform="translate(10,10) scale(1,1)"><g><path fill="none" stroke="none"/><text fill="#000000" stroke="none" font-family="Arial" font-size="13px" font-style="normal" font-weight="bold" text-decoration="none" x="826.38916015625" y="511">entrer ses informations</text></g></g><g transform="translate(10,10) scale(1,1)"><path fill="#ffffff" stroke="none" d="M 211.32072727272728 337.68 C 211.32072727272728 332.886167936 215.20656959767274 329 220 329 C 224.79343040232726 329 228.67927272727272 332.886167936 228.67927272727272 337.68 C 228.67927272727272 342.473832064 224.79343040232726 346.36 220 346.36 C 215.20656959767274 346.36 211.32072727272728 342.473832064 211.32072727272728 337.68 Z"/></g><g transform="translate(10,10) scale(1,1)"><path fill="none" stroke="#000000" d="M 211.32072727272728 337.68 C 211.32072727272728 332.886167936 215.20656959767274 329 220 329 C 224.79343040232726 329 228.67927272727272 332.886167936 228.67927272727272 337.68 C 228.67927272727272 342.473832064 224.79343040232726 346.36 220 346.36 C 215.20656959767274 346.36 211.32072727272728 342.473832064 211.32072727272728 337.68 Z" stroke-miterlimit="10"/></g><g transform="translate(10,10) scale(1,1)"><path fill="none" stroke="#000000" d="M 220 346.36 L 220 363.64" stroke-miterlimit="10"/></g><g transform="translate(10,10) scale(1,1)"><path fill="none" stroke="#000000" d="M 210.81018181818183 352.84 L 229.18981818181817 352.84" stroke-miterlimit="10"/></g><g transform="translate(10,10) scale(1,1)"><path fill="none" stroke="#000000" d="M 220 363.64 L 207.23636363636365 381" stroke-miterlimit="10"/></g><g transform="translate(10,10) scale(1,1)"><path fill="none" stroke="#000000" d="M 220 363.64 L 232.76363636363635 381" stroke-miterlimit="10"/></g><g transform="translate(10,10) scale(1,1)"><g><path fill="none" stroke="none"/><text fill="#000000" stroke="none" font-family="Arial" font-size="13px" font-style="normal" font-weight="bold" text-decoration="none" x="171.221435546875" y="401.5">nouvel utilisateur</text></g></g><g transform="translate(10,10) scale(1,1)"><path fill="#ffffff" stroke="none" d="M 65.28068821022727 489.68 C 65.28068821022727 484.886167936 69.16653053517273 481 73.9599609375 481 C 78.75339133982727 481 82.63923366477273 484.886167936 82.63923366477273 489.68 C 82.63923366477273 494.473832064 78.75339133982727 498.36 73.9599609375 498.36 C 69.16653053517273 498.36 65.28068821022727 494.473832064 65.28068821022727 489.68 Z"/></g><g transform="translate(10,10) scale(1,1)"><path fill="none" stroke="#000000" d="M 65.28068821022727 489.68 C 65.28068821022727 484.886167936 69.16653053517273 481 73.9599609375 481 C 78.75339133982727 481 82.63923366477273 484.886167936 82.63923366477273 489.68 C 82.63923366477273 494.473832064 78.75339133982727 498.36 73.9599609375 498.36 C 69.16653053517273 498.36 65.28068821022727 494.473832064 65.28068821022727 489.68 Z" stroke-miterlimit="10"/></g><g transform="translate(10,10) scale(1,1)"><path fill="none" stroke="#000000" d="M 73.9599609375 498.36 L 73.9599609375 515.64" stroke-miterlimit="10"/></g><g transform="translate(10,10) scale(1,1)"><path fill="none" stroke="#000000" d="M 64.77014275568182 504.84 L 83.14977911931818 504.84" stroke-miterlimit="10"/></g><g transform="translate(10,10) scale(1,1)"><path fill="none" stroke="#000000" d="M 73.9599609375 515.64 L 61.196324573863635 533" stroke-miterlimit="10"/></g><g transform="translate(10,10) scale(1,1)"><path fill="none" stroke="#000000" d="M 73.9599609375 515.64 L 86.72359730113637 533" stroke-miterlimit="10"/></g><g transform="translate(10,10) scale(1,1)"><g><path fill="none" stroke="none"/><text fill="#000000" stroke="none" font-family="Arial" font-size="13px" font-style="normal" font-weight="bold" text-decoration="none" x="25.181396484375" y="553.5">ancien utilisateur</text></g></g><g transform="translate(10,10) scale(1,1)"><path fill="none" stroke="#000000" d="M 133 518 L 783 506" stroke-miterlimit="10"/></g><g transform="translate(10,10) scale(1,1)"><path fill="#C0C0C0" stroke="none" d="M 591 344 C 591 334.6111584 621.4446336 327 659 327 C 696.5553664 327 727 334.6111584 727 344 C 727 353.3888416 696.5553664 361 659 361 C 621.4446336 361 591 353.3888416 591 344 Z" opacity="0.2"/></g><g transform="translate(10,10) scale(1,1)"><path fill="#ffffff" stroke="none" d="M 584 337 C 584 327.6111584 614.4446336 320 652 320 C 689.5553664 320 720 327.6111584 720 337 C 720 346.3888416 689.5553664 354 652 354 C 614.4446336 354 584 346.3888416 584 337 Z"/></g><g transform="translate(10,10) scale(1,1)"><path fill="none" stroke="#000000" d="M 584 337 C 584 327.6111584 614.4446336 320 652 320 C 689.5553664 320 720 327.6111584 720 337 C 720 346.3888416 689.5553664 354 652 354 C 614.4446336 354 584 346.3888416 584 337 Z" stroke-miterlimit="10"/></g><g transform="translate(10,10) scale(1,1)"><g><path fill="none" stroke="none"/><text fill="#000000" stroke="none" font-family="Arial" font-size="13px" font-style="normal" font-weight="bold" text-decoration="none" x="612.260498046875" y="344">créer un profil</text></g></g><g transform="translate(10,10) scale(1,1)"><path fill="none" stroke="#000000" d="M 297 362 L 583 342" stroke-miterlimit="10"/></g><g transform="translate(10,10) scale(1,1)"><path fill="#C0C0C0" stroke="none" d="M 751 395 C 751 375.1177472 817.2618496 359 899 359 C 980.7381504 359 1047 375.1177472 1047 395 C 1047 414.8822528 980.7381504 431 899 431 C 817.2618496 431 751 414.8822528 751 395 Z" opacity="0.2"/></g><g transform="translate(10,10) scale(1,1)"><path fill="#ffffff" stroke="none" d="M 744 388 C 744 368.1177472 810.2618496 352 892 352 C 973.7381504 352 1040 368.1177472 1040 388 C 1040 407.8822528 973.7381504 424 892 424 C 810.2618496 424 744 407.8822528 744 388 Z"/></g><g transform="translate(10,10) scale(1,1)"><path fill="none" stroke="#000000" d="M 744 388 C 744 368.1177472 810.2618496 352 892 352 C 973.7381504 352 1040 368.1177472 1040 388 C 1040 407.8822528 973.7381504 424 892 424 C 810.2618496 424 744 407.8822528 744 388 Z" stroke-miterlimit="10"/></g><g transform="translate(10,10) scale(1,1)"><g><path fill="none" stroke="none"/><text fill="#000000" stroke="none" font-family="Arial" font-size="13px" font-style="normal" font-weight="bold" text-decoration="none" x="800.9619140625" y="395">vérifier validité des informations</text></g></g><g transform="translate(10,10) scale(1,1)"><path fill="none" stroke="#000000" d="M 721 352 L 743 356" stroke-miterlimit="10" stroke-dasharray="3"/></g><g transform="translate(10,10) scale(1,1)"><path fill="none" stroke="#000000" d="M 732.2482285730592 358.32366331098535 L 743 356 L 733.7542714298503 350.04042759863455" stroke-miterlimit="10"/></g><g transform="translate(10,10) scale(1,1)"><g><path fill="none" stroke="none"/><text fill="#000000" stroke="none" font-family="Arial" font-size="13px" font-style="normal" font-weight="normal" text-decoration="none" x="707.5" y="351.5">«include»</text></g></g><g transform="translate(10,10) scale(1,1)"><path fill="#C0C0C0" stroke="none" d="M 375 171 C 375 151.1177472 441.2618496 135 523 135 C 604.7381504 135 671 151.1177472 671 171 C 671 190.8822528 604.7381504 207 523 207 C 441.2618496 207 375 190.8822528 375 171 Z" opacity="0.2"/></g><g transform="translate(10,10) scale(1,1)"><path fill="#ffffff" stroke="none" d="M 368 164 C 368 144.1177472 434.2618496 128 516 128 C 597.7381504 128 664 144.1177472 664 164 C 664 183.8822528 597.7381504 200 516 200 C 434.2618496 200 368 183.8822528 368 164 Z"/></g><g transform="translate(10,10) scale(1,1)"><path fill="none" stroke="#000000" d="M 368 164 C 368 144.1177472 434.2618496 128 516 128 C 597.7381504 128 664 144.1177472 664 164 C 664 183.8822528 597.7381504 200 516 200 C 434.2618496 200 368 183.8822528 368 164 Z" stroke-miterlimit="10"/></g><g transform="translate(10,10) scale(1,1)"><g><path fill="none" stroke="none"/><text fill="#000000" stroke="none" font-family="Arial" font-size="13px" font-style="normal" font-weight="bold" text-decoration="none" x="423.8701171875" y="171">envoyer un mail de confirmation</text></g></g><g transform="translate(10,10) scale(1,1)"><path fill="#ffffff" stroke="none" d="M 1246.7902096946023 377.68 C 1246.7902096946023 372.886167936 1250.6760520195478 369 1255.469482421875 369 C 1260.2629128242022 369 1264.1487551491477 372.886167936 1264.1487551491477 377.68 C 1264.1487551491477 382.473832064 1260.2629128242022 386.36 1255.469482421875 386.36 C 1250.6760520195478 386.36 1246.7902096946023 382.473832064 1246.7902096946023 377.68 Z"/></g><g transform="translate(10,10) scale(1,1)"><path fill="none" stroke="#000000" d="M 1246.7902096946023 377.68 C 1246.7902096946023 372.886167936 1250.6760520195478 369 1255.469482421875 369 C 1260.2629128242022 369 1264.1487551491477 372.886167936 1264.1487551491477 377.68 C 1264.1487551491477 382.473832064 1260.2629128242022 386.36 1255.469482421875 386.36 C 1250.6760520195478 386.36 1246.7902096946023 382.473832064 1246.7902096946023 377.68 Z" stroke-miterlimit="10"/></g><g transform="translate(10,10) scale(1,1)"><path fill="none" stroke="#000000" d="M 1255.469482421875 386.36 L 1255.469482421875 403.64" stroke-miterlimit="10"/></g><g transform="translate(10,10) scale(1,1)"><path fill="none" stroke="#000000" d="M 1246.2796642400567 392.84 L 1264.6593006036933 392.84" stroke-miterlimit="10"/></g><g transform="translate(10,10) scale(1,1)"><path fill="none" stroke="#000000" d="M 1255.469482421875 403.64 L 1242.7058460582386 421" stroke-miterlimit="10"/></g><g transform="translate(10,10) scale(1,1)"><path fill="none" stroke="#000000" d="M 1255.469482421875 403.64 L 1268.2331187855114 421" stroke-miterlimit="10"/></g><g transform="translate(10,10) scale(1,1)"><g><path fill="none" stroke="none"/><text fill="#000000" stroke="none" font-family="Arial" font-size="13px" font-style="normal" font-weight="bold" text-decoration="none" x="1162.58740234375" y="441.5">gestionnaire de base de donnée</text></g></g><g transform="translate(10,10) scale(1,1)"><path fill="none" stroke="#000000" d="M 1041 396 L 1151 402" stroke-miterlimit="10" stroke-dasharray="3"/></g><g transform="translate(10,10) scale(1,1)"><path fill="none" stroke="#000000" d="M 1140.6231402690385 405.6497646669271 L 1151 402 L 1141.0816787710962 397.2432254625348" stroke-miterlimit="10"/></g><g transform="translate(10,10) scale(1,1)"><g><path fill="none" stroke="none"/><text fill="#000000" stroke="none" font-family="Arial" font-size="13px" font-style="normal" font-weight="normal" text-decoration="none" x="1060.9287109375" y="391.5">+vérifier disponibilité</text></g></g><g transform="translate(10,10) scale(1,1)"><path fill="#ffffff" stroke="none" d="M 480 248 L 765 248 L 775 258 L 775 284 L 480 284 L 480 248"/></g><g transform="translate(10,10) scale(1,1)"><path fill="none" stroke="#000000" d="M 480 248 L 765 248 L 775 258 L 775 284 L 480 284 L 480 248 L 480 248" stroke-miterlimit="10"/></g><g transform="translate(10,10) scale(1,1)"><path fill="none" stroke="#000000" d="M 765 248 L 765 258 L 775 258 L 765 248" stroke-miterlimit="10"/></g><g transform="translate(10,10) scale(1,1)"><g><path fill="none" stroke="none"/><text fill="#000000" stroke="none" font-family="Arial" font-size="13px" font-style="normal" font-weight="normal" text-decoration="none" x="485" y="266">Condition : si informations valides </text></g></g><g transform="translate(10,10) scale(1,1)"><path fill="none" stroke="#000000" d="M 638 319 L 545 201" stroke-miterlimit="10"/></g><g transform="translate(10,10) scale(1,1)"><path fill="#C0C0C0" stroke="none" d="M 839 75 C 839 55.1177472 898.5461216 39 972 39 C 1045.4538784000001 39 1105 55.1177472 1105 75 C 1105 94.8822528 1045.4538784000001 111 972 111 C 898.5461216 111 839 94.8822528 839 75 Z" opacity="0.2"/></g><g transform="translate(10,10) scale(1,1)"><path fill="#ffffff" stroke="none" d="M 832 68 C 832 48.1177472 891.5461216 32 965 32 C 1038.4538784000001 32 1098 48.1177472 1098 68 C 1098 87.8822528 1038.4538784000001 104 965 104 C 891.5461216 104 832 87.8822528 832 68 Z"/></g><g transform="translate(10,10) scale(1,1)"><path fill="none" stroke="#000000" d="M 832 68 C 832 48.1177472 891.5461216 32 965 32 C 1038.4538784000001 32 1098 48.1177472 1098 68 C 1098 87.8822528 1038.4538784000001 104 965 104 C 891.5461216 104 832 87.8822528 832 68 Z" stroke-miterlimit="10"/></g><g transform="translate(10,10) scale(1,1)"><g><path fill="none" stroke="none"/><text fill="#000000" stroke="none" font-family="Arial" font-size="13px" font-style="normal" font-weight="bold" text-decoration="none" x="883.346923828125" y="75">enregistrer nouvel utilisateur</text></g></g><g transform="translate(10,10) scale(1,1)"><path fill="none" stroke="#000000" d="M 997 105 L 1221 367" stroke-miterlimit="10" stroke-dasharray="3"/></g><g transform="translate(10,10) scale(1,1)"><path fill="none" stroke="#000000" d="M 1211.1963862514208 362.0110965665119 L 1221 367 L 1217.5954856867502 356.54011078974173" stroke-miterlimit="10"/></g><g transform="translate(10,10) scale(1,1)"><g><path fill="none" stroke="none"/><text fill="#000000" stroke="none" font-family="Arial" font-size="13px" font-style="normal" font-weight="normal" text-decoration="none" x="1095.5" y="218.5">+enregistrer</text></g></g><g transform="translate(10,10) scale(1,1)"><path fill="none" stroke="#000000" d="M 673 319 L 922 105" stroke-miterlimit="10"/></g><g transform="translate(10,10) scale(1,1)"><path fill="none" stroke="#000000" d="M 892 463 L 892 425" stroke-miterlimit="10"/></g><g transform="translate(10,10) scale(1,1)"><path fill="none" stroke="#000000" d="M 831 64 L 149 41" stroke-miterlimit="10"/></g><g transform="translate(10,10) scale(1,1)"><path fill="none" stroke="#000000" d="M 73 479 L 78 80" stroke-miterlimit="10"/></g><g transform="translate(10,10) scale(1,1)"><path fill="#ffffff" stroke="none" d="M 0 184 L 117 184 L 127 194 L 127 246 L 0 246 L 0 184"/></g><g transform="translate(10,10) scale(1,1)"><path fill="none" stroke="#000000" d="M 0 184 L 117 184 L 127 194 L 127 246 L 0 246 L 0 184 L 0 184" stroke-miterlimit="10"/></g><g transform="translate(10,10) scale(1,1)"><path fill="none" stroke="#000000" d="M 117 184 L 117 194 L 127 194 L 117 184" stroke-miterlimit="10"/></g><g transform="translate(10,10) scale(1,1)"><g><path fill="none" stroke="none"/><text fill="#000000" stroke="none" font-family="Arial" font-size="13px" font-style="normal" font-weight="normal" text-decoration="none" x="5" y="202">Condition : si</text><text fill="#000000" stroke="none" font-family="Arial" font-size="13px" font-style="normal" font-weight="normal" text-decoration="none" x="5" y="215">informations valides</text></g></g><g transform="translate(10,10) scale(1,1)"><path fill="none" stroke="#000000" d="M 73 479 L 78 80" stroke-miterlimit="10"/></g><g transform="translate(10,10) scale(1,1)"><path fill="#FFFFFF" stroke="none" d="M 86.1636909173842 100.42924743120555 L 78 80 L 69.3269418140501 100.2182606003367"/></g><g transform="translate(10,10) scale(1,1)"><path fill="none" stroke="#000000" d="M 86.1636909173842 100.42924743120555 L 78 80 L 69.3269418140501 100.2182606003367 L 86.1636909173842 100.42924743120555" stroke-miterlimit="10"/></g><g transform="translate(10,10) scale(1,1)"><path fill="#C0C0C0" stroke="none" d="M 399 447 C 399 429.3268864 455.85983039999996 415 526 415 C 596.1401696 415 653 429.3268864 653 447 C 653 464.6731136 596.1401696 479 526 479 C 455.85983039999996 479 399 464.6731136 399 447 Z" opacity="0.2"/></g><g transform="translate(10,10) scale(1,1)"><path fill="#ffffff" stroke="none" d="M 392 440 C 392 422.3268864 448.85983039999996 408 519 408 C 589.1401696 408 646 422.3268864 646 440 C 646 457.6731136 589.1401696 472 519 472 C 448.85983039999996 472 392 457.6731136 392 440 Z"/></g><g transform="translate(10,10) scale(1,1)"><path fill="none" stroke="#000000" d="M 392 440 C 392 422.3268864 448.85983039999996 408 519 408 C 589.1401696 408 646 422.3268864 646 440 C 646 457.6731136 589.1401696 472 519 472 C 448.85983039999996 472 392 457.6731136 392 440 Z" stroke-miterlimit="10"/></g><g transform="translate(10,10) scale(1,1)"><g><path fill="none" stroke="none"/><text fill="#000000" stroke="none" font-family="Arial" font-size="13px" font-style="normal" font-weight="bold" text-decoration="none" x="440.241455078125" y="447">réinitialiser le mot de passe</text></g></g><g transform="translate(10,10) scale(1,1)"><path fill="#C0C0C0" stroke="none" d="M 855 234.5 C 855 214.8938896 888.8024976 199 930.5 199 C 972.1975024 199 1006 214.8938896 1006 234.5 C 1006 254.1061104 972.1975024 270 930.5 270 C 888.8024976 270 855 254.1061104 855 234.5 Z" opacity="0.2"/></g><g transform="translate(10,10) scale(1,1)"><path fill="#ffffff" stroke="none" d="M 848 227.5 C 848 207.8938896 881.8024976 192 923.5 192 C 965.1975024 192 999 207.8938896 999 227.5 C 999 247.1061104 965.1975024 263 923.5 263 C 881.8024976 263 848 247.1061104 848 227.5 Z"/></g><g transform="translate(10,10) scale(1,1)"><path fill="none" stroke="#000000" d="M 848 227.5 C 848 207.8938896 881.8024976 192 923.5 192 C 965.1975024 192 999 207.8938896 999 227.5 C 999 247.1061104 965.1975024 263 923.5 263 C 881.8024976 263 848 247.1061104 848 227.5 Z" stroke-miterlimit="10"/></g><g transform="translate(10,10) scale(1,1)"><g><path fill="none" stroke="none"/><text fill="#000000" stroke="none" font-family="Arial" font-size="13px" font-style="normal" font-weight="bold" text-decoration="none" x="887.013671875" y="234.5">mettre à jour</text></g></g><g transform="translate(10,10) scale(1,1)"><path fill="none" stroke="#000000" d="M 133 508 L 391 463" stroke-miterlimit="10"/></g><g transform="translate(10,10) scale(1,1)"><path fill="none" stroke="#000000" d="M 519 407 L 516 201" stroke-miterlimit="10"/></g><g transform="translate(10,10) scale(1,1)"><path fill="none" stroke="#000000" d="M 665 187 L 847 215" stroke-miterlimit="10" stroke-dasharray="3"/></g><g transform="translate(10,10) scale(1,1)"><path fill="none" stroke="#000000" d="M 836.315412381252 217.6152604874653 L 847 215 L 837.5955872153455 209.2941240658574" stroke-miterlimit="10"/></g><g transform="translate(10,10) scale(1,1)"><g><path fill="none" stroke="none"/><text fill="#000000" stroke="none" font-family="Arial" font-size="13px" font-style="normal" font-weight="normal" text-decoration="none" x="732.5" y="177.5">«include»</text></g></g><g transform="translate(10,10) scale(1,1)"><path fill="none" stroke="#000000" d="M 991 264 L 1181 367" stroke-miterlimit="10" stroke-dasharray="3"/></g><g transform="translate(10,10) scale(1,1)"><path fill="none" stroke="#000000" d="M 1170.0595060358319 365.8573750309036 L 1181 367 L 1174.0718603924074 358.45594466440514" stroke-miterlimit="10"/></g><g transform="translate(10,10) scale(1,1)"><g><path fill="none" stroke="none"/><text fill="#000000" stroke="none" font-family="Arial" font-size="13px" font-style="normal" font-weight="normal" text-decoration="none" x="1057.5" y="307.5">+mise à jour</text></g></g><g transform="translate(10,10) scale(1,1)"><path fill="none" stroke="#000000" d="M 203 327 L 96 80" stroke-miterlimit="10"/></g><g transform="translate(10,10) scale(1,1)"><path fill="#FFFFFF" stroke="none" d="M 111.80470482589811 95.3039637142223 L 96 80 L 96.35407743568484 101.99715047840377"/></g><g transform="translate(10,10) scale(1,1)"><path fill="none" stroke="#000000" d="M 111.80470482589811 95.3039637142223 L 96 80 L 96.35407743568484 101.99715047840377 L 111.80470482589811 95.3039637142223" stroke-miterlimit="10"/></g><g transform="translate(10,10) scale(1,1)"><path fill="#ffffff" stroke="none" d="M 136 184 L 237 184 L 247 194 L 247 233 L 136 233 L 136 184"/></g><g transform="translate(10,10) scale(1,1)"><path fill="none" stroke="#000000" d="M 136 184 L 237 184 L 247 194 L 247 233 L 136 233 L 136 184 L 136 184" stroke-miterlimit="10"/></g><g transform="translate(10,10) scale(1,1)"><path fill="none" stroke="#000000" d="M 237 184 L 237 194 L 247 194 L 237 184" stroke-miterlimit="10"/></g><g transform="translate(10,10) scale(1,1)"><g><path fill="none" stroke="none"/><text fill="#000000" stroke="none" font-family="Arial" font-size="13px" font-style="normal" font-weight="normal" text-decoration="none" x="141" y="202">Condition : si</text><text fill="#000000" stroke="none" font-family="Arial" font-size="13px" font-style="normal" font-weight="normal" text-decoration="none" x="141" y="215">enregistré</text></g></g></g></svg>