<svg version="1.1" xmlns="http://www.w3.org/2000/svg" xmlns:xlink="http://www.w3.org/1999/xlink" width="1018.93896484375" height="580"><defs/><g><g transform="translate(-22,-30) scale(1,1)"><rect fill="#C0C0C0" stroke="none" x="199" y="47" width="552" height="560" opacity="0.2"/></g><g transform="translate(-22,-30) scale(1,1)"><rect fill="#ffffff" stroke="none" x="192" y="40" width="552" height="560"/></g><g transform="translate(-22,-30) scale(1,1)"><path fill="none" stroke="#000000" d="M 192 40 L 744 40 L 744 600 L 192 600 L 192 40 Z Z" stroke-miterlimit="10"/></g><g transform="translate(-22,-30) scale(1,1)"><g><path fill="none" stroke="none"/><text fill="#000000" stroke="none" font-family="Arial" font-size="13px" font-style="normal" font-weight="bold" text-decoration="none" x="418.50732421875" y="59.5">Client Warecloud</text></g></g><g transform="translate(-22,-30) scale(1,1)"><path fill="#ffffff" stroke="none" d="M 93.55070774147727 177.68 C 93.55070774147727 172.886167936 97.43655006642273 169 102.22998046875 169 C 107.02341087107727 169 110.90925319602273 172.886167936 110.90925319602273 177.68 C 110.90925319602273 182.47383206400002 107.02341087107727 186.36 102.22998046875 186.36 C 97.43655006642273 186.36 93.55070774147727 182.47383206400002 93.55070774147727 177.68 Z"/></g><g transform="translate(-22,-30) scale(1,1)"><path fill="none" stroke="#000000" d="M 93.55070774147727 177.68 C 93.55070774147727 172.886167936 97.43655006642273 169 102.22998046875 169 C 107.02341087107727 169 110.90925319602273 172.886167936 110.90925319602273 177.68 C 110.90925319602273 182.47383206400002 107.02341087107727 186.36 102.22998046875 186.36 C 97.43655006642273 186.36 93.55070774147727 182.47383206400002 93.55070774147727 177.68 Z" stroke-miterlimit="10"/></g><g transform="translate(-22,-30) scale(1,1)"><path fill="none" stroke="#000000" d="M 102.22998046875 186.36 L 102.22998046875 203.64" stroke-miterlimit="10"/></g><g transform="translate(-22,-30) scale(1,1)"><path fill="none" stroke="#000000" d="M 93.04016228693182 192.84 L 111.41979865056818 192.84" stroke-miterlimit="10"/></g><g transform="translate(-22,-30) scale(1,1)"><path fill="none" stroke="#000000" d="M 102.22998046875 203.64 L 89.46634410511363 221" stroke-miterlimit="10"/></g><g transform="translate(-22,-30) scale(1,1)"><path fill="none" stroke="#000000" d="M 102.22998046875 203.64 L 114.99361683238637 221" stroke-miterlimit="10"/></g><g transform="translate(-22,-30) scale(1,1)"><g><path fill="none" stroke="none"/><text fill="#000000" stroke="none" font-family="Arial" font-size="13px" font-style="normal" font-weight="bold" text-decoration="none" x="42.609619140625" y="241.5">utilisateur authentifié</text></g></g><g transform="translate(-22,-30) scale(1,1)"><path fill="#C0C0C0" stroke="none" d="M 327 200 C 327 190.6111584 387.6654096 183 462.5 183 C 537.3345904 183 598 190.6111584 598 200 C 598 209.3888416 537.3345904 217 462.5 217 C 387.6654096 217 327 209.3888416 327 200 Z" opacity="0.2"/></g><g transform="translate(-22,-30) scale(1,1)"><path fill="#ffffff" stroke="none" d="M 320 193 C 320 183.6111584 380.6654096 176 455.5 176 C 530.3345904 176 591 183.6111584 591 193 C 591 202.3888416 530.3345904 210 455.5 210 C 380.6654096 210 320 202.3888416 320 193 Z"/></g><g transform="translate(-22,-30) scale(1,1)"><path fill="none" stroke="#000000" d="M 320 193 C 320 183.6111584 380.6654096 176 455.5 176 C 530.3345904 176 591 183.6111584 591 193 C 591 202.3888416 530.3345904 210 455.5 210 C 380.6654096 210 320 202.3888416 320 193 Z" stroke-miterlimit="10"/></g><g transform="translate(-22,-30) scale(1,1)"><g><path fill="none" stroke="none"/><text fill="#000000" stroke="none" font-family="Arial" font-size="13px" font-style="normal" font-weight="bold" text-decoration="none" x="372.4091796875" y="200">parcourir la liste des logiciels</text></g></g><g transform="translate(-22,-30) scale(1,1)"><path fill="#ffffff" stroke="none" d="M 918.7902096946023 169.68 C 918.7902096946023 164.886167936 922.6760520195477 161 927.469482421875 161 C 932.2629128242023 161 936.1487551491477 164.886167936 936.1487551491477 169.68 C 936.1487551491477 174.47383206400002 932.2629128242023 178.36 927.469482421875 178.36 C 922.6760520195477 178.36 918.7902096946023 174.47383206400002 918.7902096946023 169.68 Z"/></g><g transform="translate(-22,-30) scale(1,1)"><path fill="none" stroke="#000000" d="M 918.7902096946023 169.68 C 918.7902096946023 164.886167936 922.6760520195477 161 927.469482421875 161 C 932.2629128242023 161 936.1487551491477 164.886167936 936.1487551491477 169.68 C 936.1487551491477 174.47383206400002 932.2629128242023 178.36 927.469482421875 178.36 C 922.6760520195477 178.36 918.7902096946023 174.47383206400002 918.7902096946023 169.68 Z" stroke-miterlimit="10"/></g><g transform="translate(-22,-30) scale(1,1)"><path fill="none" stroke="#000000" d="M 927.469482421875 178.36 L 927.469482421875 195.64" stroke-miterlimit="10"/></g><g transform="translate(-22,-30) scale(1,1)"><path fill="none" stroke="#000000" d="M 918.2796642400568 184.84 L 936.6593006036932 184.84" stroke-miterlimit="10"/></g><g transform="translate(-22,-30) scale(1,1)"><path fill="none" stroke="#000000" d="M 927.469482421875 195.64 L 914.7058460582386 213" stroke-miterlimit="10"/></g><g transform="translate(-22,-30) scale(1,1)"><path fill="none" stroke="#000000" d="M 927.469482421875 195.64 L 940.2331187855114 213" stroke-miterlimit="10"/></g><g transform="translate(-22,-30) scale(1,1)"><g><path fill="none" stroke="none"/><text fill="#000000" stroke="none" font-family="Arial" font-size="13px" font-style="normal" font-weight="bold" text-decoration="none" x="834.58740234375" y="233.5">gestionnaire de base de donnée</text></g></g><g transform="translate(-22,-30) scale(1,1)"><path fill="none" stroke="#000000" d="M 592 195 L 823 198" stroke-miterlimit="10" stroke-dasharray="3"/></g><g transform="translate(-22,-30) scale(1,1)"><path fill="none" stroke="#000000" d="M 812.7835176130465 202.07719114551534 L 823 198 L 812.8928465171246 193.65886553149988" stroke-miterlimit="10"/></g><g transform="translate(-22,-30) scale(1,1)"><g><path fill="none" stroke="none"/><text fill="#000000" stroke="none" font-family="Arial" font-size="13px" font-style="normal" font-weight="normal" text-decoration="none" x="678.5" y="187.5">+depends</text></g></g><g transform="translate(-22,-30) scale(1,1)"><path fill="none" stroke="#000000" d="M 173 204 L 319 198" stroke-miterlimit="10"/></g><g transform="translate(-22,-30) scale(1,1)"><path fill="#C0C0C0" stroke="none" d="M 255 448 C 255 438.6111584 291.7126464 431 337 431 C 382.2873536 431 419 438.6111584 419 448 C 419 457.3888416 382.2873536 465 337 465 C 291.7126464 465 255 457.3888416 255 448 Z" opacity="0.2"/></g><g transform="translate(-22,-30) scale(1,1)"><path fill="#ffffff" stroke="none" d="M 248 441 C 248 431.6111584 284.7126464 424 330 424 C 375.2873536 424 412 431.6111584 412 441 C 412 450.3888416 375.2873536 458 330 458 C 284.7126464 458 248 450.3888416 248 441 Z"/></g><g transform="translate(-22,-30) scale(1,1)"><path fill="none" stroke="#000000" d="M 248 441 C 248 431.6111584 284.7126464 424 330 424 C 375.2873536 424 412 431.6111584 412 441 C 412 450.3888416 375.2873536 458 330 458 C 284.7126464 458 248 450.3888416 248 441 Z" stroke-miterlimit="10"/></g><g transform="translate(-22,-30) scale(1,1)"><g><path fill="none" stroke="none"/><text fill="#000000" stroke="none" font-family="Arial" font-size="13px" font-style="normal" font-weight="bold" text-decoration="none" x="279.774169921875" y="448">créer un package</text></g></g><g transform="translate(-22,-30) scale(1,1)"><path fill="none" stroke="#000000" d="M 142 248 L 312 423" stroke-miterlimit="10"/></g><g transform="translate(-22,-30) scale(1,1)"><path fill="#C0C0C0" stroke="none" d="M 359 328 C 359 318.6111584 407.5770992 311 467.5 311 C 527.4229008 311 576 318.6111584 576 328 C 576 337.3888416 527.4229008 345 467.5 345 C 407.5770992 345 359 337.3888416 359 328 Z" opacity="0.2"/></g><g transform="translate(-22,-30) scale(1,1)"><path fill="#ffffff" stroke="none" d="M 352 321 C 352 311.6111584 400.5770992 304 460.5 304 C 520.4229008 304 569 311.6111584 569 321 C 569 330.3888416 520.4229008 338 460.5 338 C 400.5770992 338 352 330.3888416 352 321 Z"/></g><g transform="translate(-22,-30) scale(1,1)"><path fill="none" stroke="#000000" d="M 352 321 C 352 311.6111584 400.5770992 304 460.5 304 C 520.4229008 304 569 311.6111584 569 321 C 569 330.3888416 520.4229008 338 460.5 338 C 400.5770992 338 352 330.3888416 352 321 Z" stroke-miterlimit="10"/></g><g transform="translate(-22,-30) scale(1,1)"><g><path fill="none" stroke="none"/><text fill="#000000" stroke="none" font-family="Arial" font-size="13px" font-style="normal" font-weight="bold" text-decoration="none" x="394.73828125" y="328">séléctionner un logiciel</text></g></g><g transform="translate(-22,-30) scale(1,1)"><path fill="none" stroke="#000000" d="M 459 303 L 456 211" stroke-miterlimit="10" stroke-dasharray="3"/></g><g transform="translate(-22,-30) scale(1,1)"><path fill="none" stroke="#000000" d="M 460.53849701527827 221.02008207762344 L 456 211 L 452.1239340307648 221.29447000103147" stroke-miterlimit="10"/></g><g transform="translate(-22,-30) scale(1,1)"><g><path fill="none" stroke="none"/><text fill="#000000" stroke="none" font-family="Arial" font-size="13px" font-style="normal" font-weight="normal" text-decoration="none" x="399.5" y="263.5">«include»</text></g></g><g transform="translate(-22,-30) scale(1,1)"><path fill="#C0C0C0" stroke="none" d="M 527 424 C 527 414.6111584 567.0705104 407 616.5 407 C 665.9294896 407 706 414.6111584 706 424 C 706 433.3888416 665.9294896 441 616.5 441 C 567.0705104 441 527 433.3888416 527 424 Z" opacity="0.2"/></g><g transform="translate(-22,-30) scale(1,1)"><path fill="#ffffff" stroke="none" d="M 520 417 C 520 407.6111584 560.0705104 400 609.5 400 C 658.9294896 400 699 407.6111584 699 417 C 699 426.3888416 658.9294896 434 609.5 434 C 560.0705104 434 520 426.3888416 520 417 Z"/></g><g transform="translate(-22,-30) scale(1,1)"><path fill="none" stroke="#000000" d="M 520 417 C 520 407.6111584 560.0705104 400 609.5 400 C 658.9294896 400 699 407.6111584 699 417 C 699 426.3888416 658.9294896 434 609.5 434 C 560.0705104 434 520 426.3888416 520 417 Z" stroke-miterlimit="10"/></g><g transform="translate(-22,-30) scale(1,1)"><g><path fill="none" stroke="none"/><text fill="#000000" stroke="none" font-family="Arial" font-size="13px" font-style="normal" font-weight="bold" text-decoration="none" x="554.208740234375" y="424">ajouter au package</text></g></g><g transform="translate(-22,-30) scale(1,1)"><path fill="none" stroke="#000000" d="M 519 425 L 413 434" stroke-miterlimit="10" stroke-dasharray="3"/></g><g transform="translate(-22,-30) scale(1,1)"><path fill="none" stroke="#000000" d="M 422.77010999251144 428.9457987046192 L 413 434 L 423.48237103808884 437.33465101919774" stroke-miterlimit="10"/></g><g transform="translate(-22,-30) scale(1,1)"><g><path fill="none" stroke="none"/><text fill="#000000" stroke="none" font-family="Arial" font-size="13px" font-style="normal" font-weight="normal" text-decoration="none" x="440.5" y="464.5">«include»</text></g></g><g transform="translate(-22,-30) scale(1,1)"><path fill="none" stroke="#000000" d="M 581 399 L 488 339" stroke-miterlimit="10" stroke-dasharray="3"/></g><g transform="translate(-22,-30) scale(1,1)"><path fill="none" stroke="#000000" d="M 498.82175430438383 340.9722154485628 L 488 339 L 494.2575689353249 348.04670277060416" stroke-miterlimit="10"/></g><g transform="translate(-22,-30) scale(1,1)"><g><path fill="none" stroke="none"/><text fill="#000000" stroke="none" font-family="Arial" font-size="13px" font-style="normal" font-weight="normal" text-decoration="none" x="489.5" y="400.5">«include»</text></g></g><g transform="translate(-22,-30) scale(1,1)"><path fill="#C0C0C0" stroke="none" d="M 247 560 C 247 550.6111584 288.1897984 543 339 543 C 389.8102016 543 431 550.6111584 431 560 C 431 569.3888416 389.8102016 577 339 577 C 288.1897984 577 247 569.3888416 247 560 Z" opacity="0.2"/></g><g transform="translate(-22,-30) scale(1,1)"><path fill="#ffffff" stroke="none" d="M 240 553 C 240 543.6111584 281.1897984 536 332 536 C 382.8102016 536 424 543.6111584 424 553 C 424 562.3888416 382.8102016 570 332 570 C 281.1897984 570 240 562.3888416 240 553 Z"/></g><g transform="translate(-22,-30) scale(1,1)"><path fill="none" stroke="#000000" d="M 240 553 C 240 543.6111584 281.1897984 536 332 536 C 382.8102016 536 424 543.6111584 424 553 C 424 562.3888416 382.8102016 570 332 570 C 281.1897984 570 240 562.3888416 240 553 Z" stroke-miterlimit="10"/></g><g transform="translate(-22,-30) scale(1,1)"><g><path fill="none" stroke="none"/><text fill="#000000" stroke="none" font-family="Arial" font-size="13px" font-style="normal" font-weight="bold" text-decoration="none" x="274.91552734375" y="560">nommer le package</text></g></g><g transform="translate(-22,-30) scale(1,1)"><path fill="none" stroke="#000000" d="M 332 535 L 330 459" stroke-miterlimit="10" stroke-dasharray="3"/></g><g transform="translate(-22,-30) scale(1,1)"><path fill="none" stroke="#000000" d="M 334.4754071800324 469.0484193071803 L 330 459 L 326.0592853332588 469.2698961978849" stroke-miterlimit="10"/></g><g transform="translate(-22,-30) scale(1,1)"><g><path fill="none" stroke="none"/><text fill="#000000" stroke="none" font-family="Arial" font-size="13px" font-style="normal" font-weight="normal" text-decoration="none" x="273.5" y="503.5">«include»</text></g></g><g transform="translate(-22,-30) scale(1,1)"><path fill="#C0C0C0" stroke="none" d="M 527 552 C 527 542.6111584 573.5623808 535 631 535 C 688.4376192 535 735 542.6111584 735 552 C 735 561.3888416 688.4376192 569 631 569 C 573.5623808 569 527 561.3888416 527 552 Z" opacity="0.2"/></g><g transform="translate(-22,-30) scale(1,1)"><path fill="#ffffff" stroke="none" d="M 520 545 C 520 535.6111584 566.5623808 528 624 528 C 681.4376192 528 728 535.6111584 728 545 C 728 554.3888416 681.4376192 562 624 562 C 566.5623808 562 520 554.3888416 520 545 Z"/></g><g transform="translate(-22,-30) scale(1,1)"><path fill="none" stroke="#000000" d="M 520 545 C 520 535.6111584 566.5623808 528 624 528 C 681.4376192 528 728 535.6111584 728 545 C 728 554.3888416 681.4376192 562 624 562 C 566.5623808 562 520 554.3888416 520 545 Z" stroke-miterlimit="10"/></g><g transform="translate(-22,-30) scale(1,1)"><g><path fill="none" stroke="none"/><text fill="#000000" stroke="none" font-family="Arial" font-size="13px" font-style="normal" font-weight="bold" text-decoration="none" x="559.685546875" y="552">enregistrer le package</text></g></g><g transform="translate(-22,-30) scale(1,1)"><path fill="none" stroke="#000000" d="M 573 527 L 381 459" stroke-miterlimit="10" stroke-dasharray="3"/></g><g transform="translate(-22,-30) scale(1,1)"><path fill="none" stroke="#000000" d="M 391.98494947433164 458.42477391715863 L 381 459 L 389.174278528184 466.360786000399" stroke-miterlimit="10"/></g><g transform="translate(-22,-30) scale(1,1)"><path fill="none" stroke="#000000" d="M 640 527 L 891 240" stroke-miterlimit="10"/></g></g></svg>